<?xml version="1.0" encoding="utf-8"?>
<!-- Generator: Adobe Illustrator 18.1.1, SVG Export Plug-In . SVG Version: 6.00 Build 0)  -->
<svg version="1.1" id="Capa_1" xmlns="http://www.w3.org/2000/svg" xmlns:xlink="http://www.w3.org/1999/xlink" x="0px" y="0px"
	 viewBox="-482 203.9 314.1 314.1" enable-background="new -482 203.9 314.1 314.1" xml:space="preserve">
<g>
	<g id="_x34_95._Up">
		<g>
			<path fill="#FFFFFF" d="M-313.9,301.4c-6.1-6.1-16.1-6.1-22.2,0h0c0,0,0,0,0,0l-44.4,44.4c-6.1,6.1-6.1,16.1,0,22.2v0
				c6.1,6.1,16.1,6.1,22.2,0l17.6-17.6v65.5c0,8.7,7,15.7,15.7,15.7c8.7,0,15.7-7,15.7-15.7v-65.5l17.6,17.6
				c6.1,6.1,16.1,6.1,22.2,0v0c6.1-6.1,6.1-16.1,0-22.2L-313.9,301.4z M-189,282.5c-43.4-75.1-139.4-100.8-214.5-57.5
				c-75.1,43.4-100.8,139.4-57.5,214.5c43.4,75.1,139.4,100.8,214.5,57.5C-171.4,453.6-145.6,357.6-189,282.5z M-262.2,469.7
				c-60.1,34.7-136.9,14.1-171.6-46c-34.7-60.1-14.1-136.9,46-171.6c60.1-34.7,136.9-14.1,171.6,46
				C-181.5,358.2-202.1,435-262.2,469.7z"/>
		</g>
	</g>
</g>
</svg>
