<?xml version="1.0" encoding="utf-8"?>
<!-- Generator: Adobe Illustrator 18.1.1, SVG Export Plug-In . SVG Version: 6.00 Build 0)  -->
<svg version="1.1" id="Capa_1" xmlns="http://www.w3.org/2000/svg" xmlns:xlink="http://www.w3.org/1999/xlink" x="0px" y="0px"
	 viewBox="280 0 720 720" enable-background="new 280 0 720 720" xml:space="preserve">
<g>
	<path fill="#FFFFFF" d="M640,0C441.2,0,280,161.2,280,360s161.2,360,360,360s360-161.2,360-360S838.8,0,640,0z M640,589.8
		c-28.1,0-47.4-21.7-47.4-49.8c0-28.9,20.1-49.8,47.4-49.8c28.9,0,47.4,20.9,47.4,49.8C687.4,568.1,668.9,589.8,640,589.8z
		 M658.7,399.6c-7.2,24.4-29.8,24.9-37.3,0c-8.7-28.7-39.5-137.5-39.5-208.3c0-93.3,116.7-93.8,116.7,0
		C698.6,262.5,666.1,374.2,658.7,399.6z"/>
</g>
</svg>
