<?xml version="1.0" encoding="utf-8"?>
<!-- Generator: Adobe Illustrator 18.1.1, SVG Export Plug-In . SVG Version: 6.00 Build 0)  -->
<svg version="1.1" id="Layer_1" xmlns="http://www.w3.org/2000/svg" xmlns:xlink="http://www.w3.org/1999/xlink" x="0px" y="0px"
	 viewBox="0 0 400 400" enable-background="new 0 0 400 400" xml:space="preserve">
<g>
	<g>
		<linearGradient id="SVGID_1_" gradientUnits="userSpaceOnUse" x1="-194.0677" y1="-76.6872" x2="485.4019" y2="456.2445">
			<stop  offset="5.618000e-003" style="stop-color:#FCCB00"/>
			<stop  offset="0.2528" style="stop-color:#FFFAD2"/>
			<stop  offset="0.2986" style="stop-color:#FCF1C0"/>
			<stop  offset="0.3896" style="stop-color:#EED793"/>
			<stop  offset="0.5159" style="stop-color:#D8AF4B"/>
			<stop  offset="0.5955" style="stop-color:#C9961A"/>
			<stop  offset="0.8143" style="stop-color:#EACD75"/>
			<stop  offset="0.8708" style="stop-color:#F2DC8E"/>
			<stop  offset="1" style="stop-color:#FFFAD2"/>
		</linearGradient>
		<polygon fill="url(#SVGID_1_)" points="331,164.6 241.4,157.1 200,63.2 159,156.9 69.4,164.4 134.2,232.4 115.6,336.7 
			200.1,288.1 284.7,336.9 266.2,232.6 		"/>
		<linearGradient id="SVGID_2_" gradientUnits="userSpaceOnUse" x1="-109.646" y1="-184.3219" x2="569.8236" y2="348.6098">
			<stop  offset="5.618000e-003" style="stop-color:#FCCB00"/>
			<stop  offset="0.2528" style="stop-color:#FFFAD2"/>
			<stop  offset="0.2986" style="stop-color:#FCF1C0"/>
			<stop  offset="0.3896" style="stop-color:#EED793"/>
			<stop  offset="0.5159" style="stop-color:#D8AF4B"/>
			<stop  offset="0.5955" style="stop-color:#C9961A"/>
			<stop  offset="0.8143" style="stop-color:#EACD75"/>
			<stop  offset="0.8708" style="stop-color:#F2DC8E"/>
			<stop  offset="1" style="stop-color:#FFFAD2"/>
		</linearGradient>
		<path fill="url(#SVGID_2_)" d="M397.9,164.8l-59.3-0.2c0,0,0.1,0.3-27,30.2C407.3,201.6,397.9,164.8,397.9,164.8z"/>
		<linearGradient id="SVGID_3_" gradientUnits="userSpaceOnUse" x1="-140.2705" y1="-145.2767" x2="539.1992" y2="387.6549">
			<stop  offset="5.618000e-003" style="stop-color:#FCCB00"/>
			<stop  offset="0.2528" style="stop-color:#FFFAD2"/>
			<stop  offset="0.2986" style="stop-color:#FCF1C0"/>
			<stop  offset="0.3896" style="stop-color:#EED793"/>
			<stop  offset="0.5159" style="stop-color:#D8AF4B"/>
			<stop  offset="0.5955" style="stop-color:#C9961A"/>
			<stop  offset="0.8143" style="stop-color:#EACD75"/>
			<stop  offset="0.8708" style="stop-color:#F2DC8E"/>
			<stop  offset="1" style="stop-color:#FFFAD2"/>
		</linearGradient>
		<path fill="url(#SVGID_3_)" d="M307.8,202.8c0,0-0.6,0.4-29.4,30c95.8,6.7,88.7-29.8,88.7-29.8L307.8,202.8z"/>
		<linearGradient id="SVGID_4_" gradientUnits="userSpaceOnUse" x1="-165.9638" y1="-112.5187" x2="513.5059" y2="420.413">
			<stop  offset="5.618000e-003" style="stop-color:#FCCB00"/>
			<stop  offset="0.2528" style="stop-color:#FFFAD2"/>
			<stop  offset="0.2986" style="stop-color:#FCF1C0"/>
			<stop  offset="0.3896" style="stop-color:#EED793"/>
			<stop  offset="0.5159" style="stop-color:#D8AF4B"/>
			<stop  offset="0.5955" style="stop-color:#C9961A"/>
			<stop  offset="0.8143" style="stop-color:#EACD75"/>
			<stop  offset="0.8708" style="stop-color:#F2DC8E"/>
			<stop  offset="1" style="stop-color:#FFFAD2"/>
		</linearGradient>
		<path fill="url(#SVGID_4_)" d="M282.8,277.7c45.6-5.1,55.5-32.9,55.5-32.9h-60.1C278.2,244.8,278,244.8,282.8,277.7z"/>
		<linearGradient id="SVGID_5_" gradientUnits="userSpaceOnUse" x1="-185.0687" y1="-88.1606" x2="494.4009" y2="444.7711">
			<stop  offset="5.618000e-003" style="stop-color:#FCCB00"/>
			<stop  offset="0.2528" style="stop-color:#FFFAD2"/>
			<stop  offset="0.2986" style="stop-color:#FCF1C0"/>
			<stop  offset="0.3896" style="stop-color:#EED793"/>
			<stop  offset="0.5159" style="stop-color:#D8AF4B"/>
			<stop  offset="0.5955" style="stop-color:#C9961A"/>
			<stop  offset="0.8143" style="stop-color:#EACD75"/>
			<stop  offset="0.8708" style="stop-color:#F2DC8E"/>
			<stop  offset="1" style="stop-color:#FFFAD2"/>
		</linearGradient>
		<path fill="url(#SVGID_5_)" d="M288.8,311.1c21.2-1.1,35.5-27.4,35.5-27.4l-40.3-0.2C283.9,283.5,284,283.7,288.8,311.1z"/>
		<linearGradient id="SVGID_6_" gradientUnits="userSpaceOnUse" x1="-227.9481" y1="-33.4908" x2="451.5215" y2="499.4409">
			<stop  offset="5.618000e-003" style="stop-color:#FCCB00"/>
			<stop  offset="0.2528" style="stop-color:#FFFAD2"/>
			<stop  offset="0.2986" style="stop-color:#FCF1C0"/>
			<stop  offset="0.3896" style="stop-color:#EED793"/>
			<stop  offset="0.5159" style="stop-color:#D8AF4B"/>
			<stop  offset="0.5955" style="stop-color:#C9961A"/>
			<stop  offset="0.8143" style="stop-color:#EACD75"/>
			<stop  offset="0.8708" style="stop-color:#F2DC8E"/>
			<stop  offset="1" style="stop-color:#FFFAD2"/>
		</linearGradient>
		<path fill="url(#SVGID_6_)" d="M88.9,194.7c-27.1-30-27.1-30.2-27.1-30.2l-59.3,0.2C2.5,164.6-6.9,201.4,88.9,194.7z"/>
		<linearGradient id="SVGID_7_" gradientUnits="userSpaceOnUse" x1="-234.5064" y1="-25.1291" x2="444.9632" y2="507.8025">
			<stop  offset="5.618000e-003" style="stop-color:#FCCB00"/>
			<stop  offset="0.2528" style="stop-color:#FFFAD2"/>
			<stop  offset="0.2986" style="stop-color:#FCF1C0"/>
			<stop  offset="0.3896" style="stop-color:#EED793"/>
			<stop  offset="0.5159" style="stop-color:#D8AF4B"/>
			<stop  offset="0.5955" style="stop-color:#C9961A"/>
			<stop  offset="0.8143" style="stop-color:#EACD75"/>
			<stop  offset="0.8708" style="stop-color:#F2DC8E"/>
			<stop  offset="1" style="stop-color:#FFFAD2"/>
		</linearGradient>
		<path fill="url(#SVGID_7_)" d="M121.9,232.6c-28.8-29.6-29.4-30-29.4-30l-59.3,0.2C33.2,202.8,26.1,239.3,121.9,232.6z"/>
		<linearGradient id="SVGID_8_" gradientUnits="userSpaceOnUse" x1="-242.6523" y1="-14.7434" x2="436.8173" y2="518.1882">
			<stop  offset="5.618000e-003" style="stop-color:#FCCB00"/>
			<stop  offset="0.2528" style="stop-color:#FFFAD2"/>
			<stop  offset="0.2986" style="stop-color:#FCF1C0"/>
			<stop  offset="0.3896" style="stop-color:#EED793"/>
			<stop  offset="0.5159" style="stop-color:#D8AF4B"/>
			<stop  offset="0.5955" style="stop-color:#C9961A"/>
			<stop  offset="0.8143" style="stop-color:#EACD75"/>
			<stop  offset="0.8708" style="stop-color:#F2DC8E"/>
			<stop  offset="1" style="stop-color:#FFFAD2"/>
		</linearGradient>
		<path fill="url(#SVGID_8_)" d="M122.1,244.6l-60.1,0c0,0,10,27.9,55.5,32.9C122.4,244.6,122.1,244.6,122.1,244.6z"/>
		<linearGradient id="SVGID_9_" gradientUnits="userSpaceOnUse" x1="-259.9252" y1="7.2789" x2="419.5444" y2="540.2106">
			<stop  offset="5.618000e-003" style="stop-color:#FCCB00"/>
			<stop  offset="0.2528" style="stop-color:#FFFAD2"/>
			<stop  offset="0.2986" style="stop-color:#FCF1C0"/>
			<stop  offset="0.3896" style="stop-color:#EED793"/>
			<stop  offset="0.5159" style="stop-color:#D8AF4B"/>
			<stop  offset="0.5955" style="stop-color:#C9961A"/>
			<stop  offset="0.8143" style="stop-color:#EACD75"/>
			<stop  offset="0.8708" style="stop-color:#F2DC8E"/>
			<stop  offset="1" style="stop-color:#FFFAD2"/>
		</linearGradient>
		<path fill="url(#SVGID_9_)" d="M76.1,283.5c0,0,14.3,26.3,35.5,27.4c4.8-27.4,4.9-27.6,4.9-27.6L76.1,283.5z"/>
	</g>
</g>
</svg>
