<?xml version="1.0" encoding="utf-8"?>
<!-- Generator: Adobe Illustrator 18.1.1, SVG Export Plug-In . SVG Version: 6.00 Build 0)  -->
<svg version="1.1" id="Layer_1" xmlns="http://www.w3.org/2000/svg" xmlns:xlink="http://www.w3.org/1999/xlink" x="0px" y="0px"
	 viewBox="0 0 500 500" enable-background="new 0 0 500 500" xml:space="preserve">
<circle fill="#3D3D3B" cx="249.2" cy="249.7" r="248.2"/>
<circle fill="#010202" cx="249.2" cy="249.7" r="222.6"/>
<g>
	<g>
		<polygon fill="#005A98" points="368.8,210.7 286.8,203.8 249.1,117.9 211.5,203.6 129.6,210.5 188.9,272.6 171.9,368 249.1,323.5 
			326.5,368.2 309.5,272.8 		"/>
		<path fill="#005A98" d="M430,210.9l-54.3-0.1c0,0,0.1,0.2-24.7,27.6C438.6,244.5,430,210.9,430,210.9z"/>
		<path fill="#005A98" d="M347.6,245.6c0,0-0.5,0.4-26.9,27.4c87.6,6.1,81.1-27.3,81.1-27.3L347.6,245.6z"/>
		<path fill="#005A98" d="M324.7,314.1c41.7-4.6,50.8-30.1,50.8-30.1h-55C320.6,284,320.3,284,324.7,314.1z"/>
		<path fill="#005A98" d="M330.2,344.6c19.3-1,32.4-25,32.4-25l-36.9-0.2C325.7,319.4,325.8,319.5,330.2,344.6z"/>
		<path fill="#005A98" d="M147.4,238.2c-24.8-27.4-24.7-27.6-24.7-27.6l-54.3,0.1C68.4,210.7,59.8,244.3,147.4,238.2z"/>
		<path fill="#005A98" d="M177.6,272.8c-26.3-27-26.9-27.4-26.9-27.4l-54.3,0.1C96.5,245.6,90,279,177.6,272.8z"/>
		<path fill="#005A98" d="M177.8,283.8l-55,0c0,0,9.1,25.5,50.8,30.1C178.1,283.8,177.8,283.8,177.8,283.8z"/>
		<path fill="#005A98" d="M135.8,319.4c0,0,13.1,24,32.4,25c4.4-25,4.5-25.2,4.5-25.2L135.8,319.4z"/>
	</g>
</g>
</svg>
