<?xml version="1.0" encoding="utf-8"?>
<!-- Generator: Adobe Illustrator 18.1.1, SVG Export Plug-In . SVG Version: 6.00 Build 0)  -->
<svg version="1.1" id="Layer_1" xmlns="http://www.w3.org/2000/svg" xmlns:xlink="http://www.w3.org/1999/xlink" x="0px" y="0px"
	 viewBox="0 0 1280 400" enable-background="new 0 0 1280 400" xml:space="preserve">
<g>
	<path fill="#FFFFFF" d="M192.3,143.8v112.7H79.6V143.8H192.3z M151.8,231.5h15.5l-22.1-25.1h22.1v-37.6h-62.6v62.6h12.5v-25.1h12.5
		L151.8,231.5z M154.7,181.4v12.5h-37.6v-12.5H154.7z"/>
	<path fill="#FFFFFF" d="M317.6,143.8v112.7H204.8V143.8H317.6z M229.9,231.5h62.6V219h-50.1v-37.6h50.1v-12.5h-62.6V231.5z
		 M248.7,206.4h43.8v-12.5h-43.8V206.4z"/>
	<path fill="#FFFFFF" d="M442.8,143.8v112.7H330.1V143.8H442.8z M355.1,231.5h12.5v-25.1h50.1v-12.5h-50.1v-12.5h50.1v-12.5h-62.6
		V231.5z"/>
	<path fill="#FFFFFF" d="M568.1,143.8v112.7H455.3V143.8H568.1z M480.4,231.5H543V219h-50.1v-50.1h-12.5V231.5z"/>
	<path fill="#FFFFFF" d="M693.3,143.8v112.7H580.6V143.8H693.3z M605.6,231.5h62.6V219h-50.1v-37.6h50.1v-12.5h-62.6V231.5z
		 M624.4,206.4h43.8v-12.5h-43.8V206.4z"/>
	<path fill="#FFFFFF" d="M818.6,143.8v112.7H705.8V143.8H818.6z M730.9,231.5h15.7l15.7-20.9l15.7,20.9h15.7L770,200.2l23.5-31.3
		h-15.7l-15.7,20.9l-15.7-20.9h-15.7l23.5,31.3L730.9,231.5z"/>
	<path fill="#FFFFFF" d="M943.8,143.8v112.7H831.1V143.8H943.8z M903.3,231.5h15.5l-22.1-25.1h22.1v-37.6h-62.6v62.6h12.5v-25.1
		h12.5L903.3,231.5z M906.3,181.4v12.5h-37.6v-12.5H906.3z"/>
	<path fill="#FFFFFF" d="M1069.1,143.8v112.7H956.4V143.8H1069.1z M981.4,168.8v62.6h62.6v-62.6h-12.5V219h-37.6v-50.1H981.4z"/>
	<path fill="#FFFFFF" d="M1194.3,143.8v112.7h-112.7V143.8H1194.3z M1119.2,231.5v-43.1l37.6,43.1h12.5v-62.6h-12.5v44.4l-37.6-44.4
		h-12.5v62.6H1119.2z"/>
</g>
</svg>
