<?xml version="1.0" encoding="utf-8"?>
<!-- Generator: Adobe Illustrator 18.1.1, SVG Export Plug-In . SVG Version: 6.00 Build 0)  -->
<svg version="1.1" id="Layer_1" xmlns="http://www.w3.org/2000/svg" xmlns:xlink="http://www.w3.org/1999/xlink" x="0px" y="0px"
	 viewBox="0 0 1280 720" enable-background="new 0 0 1280 720" xml:space="preserve">
<rect x="100.1" y="111" opacity="0.9" fill="#1D1D1B" stroke="#1D1D1B" stroke-miterlimit="10" width="1045" height="498"/>
<g>
	<path fill="#FFFFFF" d="M534.5,180.3v7.5h1.9v-7.5h1.9v7.5h1.9v-7.5h1.9v9.4h-9.4v-9.4H534.5z"/>
	<path fill="#FFFFFF" d="M551.3,180.3h9.4v1.9h-7.5v5.6h7.5v1.9h-9.4V180.3z M554.2,184h6.6v1.9h-6.6V184z"/>
	<path fill="#FFFFFF" d="M570.1,180.3h1.9v7.5h7.5v1.9h-9.4V180.3z"/>
	<path fill="#FFFFFF" d="M588.8,180.3h9.4v1.9h-7.5v5.6h7.5v1.9h-9.4V180.3z"/>
	<path fill="#FFFFFF" d="M607.6,189.7v-9.4h9.4v9.4H607.6z M615.1,187.8v-5.6h-5.6v5.6H615.1z"/>
	<path fill="#FFFFFF" d="M626.3,189.7v-9.4h9.4v9.4h-1.9v-7.5H632v7.5h-1.9v-7.5h-1.9v7.5H626.3z"/>
	<path fill="#FFFFFF" d="M645.1,180.3h9.4v1.9H647v5.6h7.5v1.9h-9.4V180.3z M647.9,184h6.6v1.9h-6.6V184z"/>
	<path fill="#FFFFFF" d="M682.6,180.3h9.4v1.9h-3.8v7.5h-1.9v-7.5h-3.8V180.3z"/>
	<path fill="#FFFFFF" d="M701.3,189.7v-9.4h9.4v9.4H701.3z M708.8,187.8v-5.6h-5.6v5.6H708.8z"/>
</g>
<g>
	<path fill="#FFFFFF" d="M590.2,296.1h1.9l0.9,3.6c0.2,0.9,0.4,1.6,0.6,2.5h0c0.2-0.9,0.4-1.7,0.6-2.5l0.9-3.6h1.8l-2.4,7.8h-2.1
		L590.2,296.1z"/>
	<path fill="#FFFFFF" d="M600,297.8c1.7,0,2.5,1.2,2.5,2.9c0,0.3,0,0.6-0.1,0.7h-3.6c0.2,0.9,0.8,1.3,1.5,1.3c0.4,0,0.9-0.1,1.3-0.4
		l0.6,1.1c-0.6,0.4-1.4,0.7-2.1,0.7c-1.7,0-3-1.2-3-3.1C597.2,299,598.6,297.8,600,297.8z M601,300.3c0-0.7-0.3-1.2-1-1.2
		c-0.6,0-1,0.4-1.2,1.2H601z"/>
	<path fill="#FFFFFF" d="M603.7,298h1.4l0.1,1h0c0.4-0.8,1.1-1.2,1.7-1.2c0.3,0,0.5,0,0.7,0.1l-0.3,1.5c-0.2-0.1-0.4-0.1-0.6-0.1
		c-0.4,0-1,0.3-1.3,1.1v3.5h-1.8V298z"/>
	<path fill="#FFFFFF" d="M608.7,302.1c0.5,0.4,1,0.6,1.5,0.6c0.5,0,0.8-0.2,0.8-0.5c0-0.4-0.6-0.6-1.2-0.8c-0.7-0.3-1.6-0.8-1.6-1.8
		c0-1.1,0.9-1.9,2.3-1.9c0.9,0,1.6,0.4,2.1,0.8l-0.8,1.1c-0.4-0.3-0.8-0.5-1.3-0.5c-0.5,0-0.7,0.2-0.7,0.5c0,0.4,0.6,0.5,1.2,0.8
		c0.8,0.3,1.6,0.7,1.6,1.8c0,1.1-0.9,1.9-2.4,1.9c-0.8,0-1.7-0.3-2.3-0.8L608.7,302.1z"/>
	<path fill="#FFFFFF" d="M613.6,296.2c0-0.5,0.4-0.9,1-0.9c0.6,0,1,0.4,1,0.9c0,0.5-0.4,0.9-1,0.9
		C614,297.1,613.6,296.7,613.6,296.2z M613.7,298h1.8v5.9h-1.8V298z"/>
	<path fill="#FFFFFF" d="M619.6,297.8c1.5,0,2.9,1.1,2.9,3.1c0,2-1.4,3.1-2.9,3.1c-1.5,0-2.9-1.1-2.9-3.1
		C616.7,299,618.1,297.8,619.6,297.8z M619.6,302.6c0.7,0,1.1-0.7,1.1-1.7s-0.4-1.7-1.1-1.7c-0.7,0-1.1,0.7-1.1,1.7
		S618.8,302.6,619.6,302.6z"/>
	<path fill="#FFFFFF" d="M623.7,298h1.4l0.1,0.8h0c0.5-0.5,1.1-0.9,1.9-0.9c1.3,0,1.8,0.9,1.8,2.4v3.7h-1.8v-3.5
		c0-0.9-0.2-1.1-0.7-1.1c-0.4,0-0.7,0.2-1.1,0.6v4h-1.8V298z"/>
	<path fill="#FFFFFF" d="M632.7,300.1c0-2.6,1.1-3.9,2.7-3.9c1.6,0,2.7,1.3,2.7,3.9s-1.1,4-2.7,4
		C633.8,304.1,632.7,302.7,632.7,300.1z M636.5,300.1c0-2.1-0.5-2.6-1.1-2.6c-0.6,0-1.1,0.5-1.1,2.6c0,2.1,0.5,2.6,1.1,2.6
		C636,302.7,636.5,302.1,636.5,300.1z"/>
	<path fill="#FFFFFF" d="M640.4,301.8c0.6,0,1.1,0.5,1.1,1.1c0,0.6-0.5,1.1-1.1,1.1c-0.6,0-1.1-0.5-1.1-1.1
		C639.3,302.3,639.8,301.8,640.4,301.8z"/>
	<path fill="#FFFFFF" d="M643.7,302.1c0.3,0.3,0.7,0.5,1.2,0.5c0.9,0,1.5-0.6,1.6-2.4c-0.4,0.5-1.1,0.8-1.5,0.8
		c-1.3,0-2.3-0.7-2.3-2.4c0-1.6,1.2-2.6,2.5-2.6c1.5,0,2.9,1.1,2.9,3.8c0,2.8-1.5,4.1-3.1,4.1c-1,0-1.8-0.4-2.2-0.9L643.7,302.1z
		 M646.4,299.1c-0.2-1.2-0.6-1.6-1.2-1.6c-0.5,0-1,0.4-1,1.2c0,0.8,0.4,1.1,1,1.1C645.6,299.8,646,299.6,646.4,299.1z"/>
	<path fill="#FFFFFF" d="M650.3,300.1L650.3,300.1c-0.6-0.5-1-1-1-1.8c0-1.3,1-2.1,2.4-2.1c1.4,0,2.3,0.8,2.3,2.1
		c0,0.7-0.5,1.3-1,1.7v0c0.7,0.4,1.3,1,1.3,2c0,1.2-1.1,2.1-2.7,2.1c-1.5,0-2.7-0.9-2.7-2.1C649,301,649.6,300.5,650.3,300.1z
		 M651.7,302.8c0.6,0,1-0.3,1-0.9c0-0.7-0.6-0.9-1.6-1.3c-0.3,0.3-0.6,0.7-0.6,1.2C650.6,302.4,651.1,302.8,651.7,302.8z
		 M652.6,298.4c0-0.6-0.3-1-0.9-1c-0.5,0-0.9,0.3-0.9,0.9c0,0.6,0.5,0.9,1.3,1.2C652.5,299.1,652.6,298.8,652.6,298.4z"/>
	<path fill="#FFFFFF" d="M557,312.2c0.7,0,1.3,0.3,1.7,0.7L558,314c-0.3-0.2-0.6-0.3-0.8-0.3c-0.9,0-1.4,0.7-1.4,1.7
		s0.6,1.7,1.3,1.7c0.4,0,0.8-0.2,1.1-0.4l0.7,1.1c-0.6,0.5-1.3,0.7-2,0.7c-1.7,0-2.9-1.1-2.9-3.1C554,313.4,555.4,312.2,557,312.2z"
		/>
	<path fill="#FFFFFF" d="M559.9,312.4h1.4l0.1,1h0c0.4-0.8,1.1-1.2,1.7-1.2c0.3,0,0.5,0,0.7,0.1l-0.3,1.5c-0.2-0.1-0.4-0.1-0.6-0.1
		c-0.4,0-1,0.3-1.3,1.1v3.5h-1.8V312.4z"/>
	<path fill="#FFFFFF" d="M567,312.2c1.7,0,2.5,1.2,2.5,2.9c0,0.3,0,0.6-0.1,0.7h-3.6c0.2,0.9,0.8,1.3,1.5,1.3c0.4,0,0.9-0.1,1.3-0.4
		l0.6,1.1c-0.6,0.4-1.4,0.7-2.1,0.7c-1.7,0-3-1.2-3-3.1C564.2,313.4,565.6,312.2,567,312.2z M568.1,314.7c0-0.7-0.3-1.2-1-1.2
		c-0.6,0-1,0.4-1.2,1.2H568.1z"/>
	<path fill="#FFFFFF" d="M573.8,314.5c0-0.5-0.3-0.9-0.9-0.9c-0.5,0-1,0.2-1.6,0.5l-0.6-1.2c0.8-0.5,1.6-0.8,2.5-0.8
		c1.5,0,2.4,0.9,2.4,2.7v3.4h-1.4l-0.1-0.6h0c-0.5,0.4-1.1,0.8-1.7,0.8c-1.1,0-1.8-0.8-1.8-1.8C570.4,315.4,571.4,314.7,573.8,314.5
		z M572.8,317.1c0.4,0,0.7-0.2,1-0.5v-1c-1.3,0.2-1.7,0.5-1.7,1C572.1,316.9,572.4,317.1,572.8,317.1z"/>
	<path fill="#FFFFFF" d="M577.3,313.7h-0.8v-1.3l0.9-0.1l0.2-1.6h1.5v1.6h1.4v1.4h-1.4v2.4c0,0.7,0.3,0.9,0.8,0.9
		c0.2,0,0.4-0.1,0.6-0.1l0.3,1.3c-0.3,0.1-0.7,0.2-1.3,0.2c-1.5,0-2.1-0.9-2.1-2.3V313.7z"/>
	<path fill="#FFFFFF" d="M584,312.2c1.7,0,2.5,1.2,2.5,2.9c0,0.3,0,0.6-0.1,0.7h-3.6c0.2,0.9,0.8,1.3,1.5,1.3c0.4,0,0.9-0.1,1.3-0.4
		l0.6,1.1c-0.6,0.4-1.4,0.7-2.1,0.7c-1.7,0-3-1.2-3-3.1C581.2,313.4,582.6,312.2,584,312.2z M585,314.7c0-0.7-0.3-1.2-1-1.2
		c-0.6,0-1,0.4-1.2,1.2H585z"/>
	<path fill="#FFFFFF" d="M589.9,312.2c0.7,0,1.1,0.2,1.5,0.6l-0.1-0.9v-2h1.8v8.4h-1.4l-0.1-0.6h0c-0.4,0.4-1,0.7-1.6,0.7
		c-1.5,0-2.4-1.2-2.4-3.1C587.4,313.4,588.6,312.2,589.9,312.2z M590.3,317c0.4,0,0.7-0.1,1-0.5V314c-0.3-0.3-0.7-0.4-1-0.4
		c-0.6,0-1.1,0.5-1.1,1.7C589.2,316.5,589.6,317,590.3,317z"/>
	<path fill="#FFFFFF" d="M597.1,309.9h1.8v2.1l0,0.9c0.5-0.4,1-0.7,1.6-0.7c1.4,0,2.3,1.2,2.3,3c0,2.1-1.2,3.2-2.5,3.2
		c-0.5,0-1.1-0.3-1.5-0.8h0l-0.1,0.6h-1.4V309.9z M599.8,317c0.6,0,1.1-0.5,1.1-1.8c0-1.1-0.3-1.6-1-1.6c-0.4,0-0.7,0.2-1,0.5v2.4
		C599.2,316.9,599.5,317,599.8,317z"/>
	<path fill="#FFFFFF" d="M604.4,319.2c0.6,0,0.9-0.3,1-0.8l0.1-0.3l-2.3-5.8h1.8l0.9,2.6c0.2,0.5,0.3,1.1,0.5,1.7h0
		c0.1-0.6,0.3-1.1,0.4-1.7l0.7-2.6h1.7l-2.1,6c-0.6,1.5-1.2,2.3-2.6,2.3c-0.4,0-0.6,0-0.8-0.1l0.3-1.3
		C604.1,319.2,604.3,319.2,604.4,319.2z"/>
	<path fill="#FFFFFF" d="M619.9,320.2c-0.3,0.1-0.8,0.3-1.4,0.3c-1.7,0-2.8-0.9-3.4-2.1c-1.7-0.3-2.7-1.8-2.7-4c0-2.6,1.4-4,3.5-4
		c2.1,0,3.6,1.5,3.6,4c0,2.1-1,3.5-2.5,3.9c0.4,0.5,1.1,0.7,1.7,0.7c0.3,0,0.6-0.1,0.9-0.1L619.9,320.2z M615.9,316.9
		c1.1,0,1.7-1,1.7-2.6c0-1.6-0.7-2.5-1.7-2.5s-1.7,0.9-1.7,2.5C614.2,315.9,614.9,316.9,615.9,316.9z"/>
	<path fill="#FFFFFF" d="M620.8,312.4h1.8v3.5c0,0.9,0.2,1.1,0.7,1.1c0.4,0,0.7-0.2,1.1-0.7v-3.9h1.8v5.9h-1.4l-0.1-0.8h0
		c-0.5,0.6-1.1,1-1.9,1c-1.3,0-1.8-0.9-1.8-2.4V312.4z"/>
	<path fill="#FFFFFF" d="M630.8,314.5c0-0.5-0.3-0.9-0.9-0.9c-0.5,0-1,0.2-1.6,0.5l-0.6-1.2c0.8-0.5,1.6-0.8,2.5-0.8
		c1.5,0,2.4,0.9,2.4,2.7v3.4h-1.4l-0.1-0.6h0c-0.5,0.4-1.1,0.8-1.7,0.8c-1.1,0-1.8-0.8-1.8-1.8C627.4,315.4,628.4,314.7,630.8,314.5
		z M629.8,317.1c0.4,0,0.7-0.2,1-0.5v-1c-1.3,0.2-1.7,0.5-1.7,1C629.1,316.9,629.4,317.1,629.8,317.1z"/>
	<path fill="#FFFFFF" d="M634.1,312.4h1.4l0.1,1h0c0.4-0.8,1.1-1.2,1.7-1.2c0.3,0,0.5,0,0.7,0.1l-0.3,1.5c-0.2-0.1-0.4-0.1-0.6-0.1
		c-0.4,0-1,0.3-1.3,1.1v3.5h-1.8V312.4z"/>
	<path fill="#FFFFFF" d="M639.1,313.7h-0.8v-1.3l0.9-0.1l0.2-1.6h1.5v1.6h1.4v1.4h-1.4v2.4c0,0.7,0.3,0.9,0.8,0.9
		c0.2,0,0.4-0.1,0.6-0.1l0.3,1.3c-0.3,0.1-0.7,0.2-1.3,0.2c-1.5,0-2.1-0.9-2.1-2.3V313.7z"/>
	<path fill="#FFFFFF" d="M643.1,317.4l2.5-3.6h-2.2v-1.4h4.4v0.9l-2.5,3.6h2.6v1.4h-4.8V317.4z"/>
	<path fill="#FFFFFF" d="M654.6,314.5c0-0.5-0.3-0.9-0.9-0.9c-0.5,0-1,0.2-1.6,0.5l-0.6-1.2c0.8-0.5,1.6-0.8,2.5-0.8
		c1.5,0,2.4,0.9,2.4,2.7v3.4h-1.4l-0.1-0.6h0c-0.5,0.4-1.1,0.8-1.7,0.8c-1.1,0-1.8-0.8-1.8-1.8C651.2,315.4,652.2,314.7,654.6,314.5
		z M653.6,317.1c0.4,0,0.7-0.2,1-0.5v-1c-1.3,0.2-1.7,0.5-1.7,1C652.9,316.9,653.2,317.1,653.6,317.1z"/>
	<path fill="#FFFFFF" d="M657.9,312.4h1.4l0.1,0.8h0c0.5-0.5,1.1-0.9,1.9-0.9c1.3,0,1.8,0.9,1.8,2.4v3.7h-1.8v-3.5
		c0-0.9-0.2-1.1-0.7-1.1c-0.4,0-0.7,0.2-1.1,0.6v4h-1.8V312.4z"/>
	<path fill="#FFFFFF" d="M666.9,312.2c0.7,0,1.1,0.2,1.5,0.6l-0.1-0.9v-2h1.8v8.4h-1.4l-0.1-0.6h0c-0.4,0.4-1,0.7-1.6,0.7
		c-1.5,0-2.4-1.2-2.4-3.1C664.4,313.4,665.6,312.2,666.9,312.2z M667.3,317c0.4,0,0.7-0.1,1-0.5V314c-0.3-0.3-0.7-0.4-1-0.4
		c-0.6,0-1.1,0.5-1.1,1.7C666.2,316.5,666.6,317,667.3,317z"/>
	<path fill="#FFFFFF" d="M673.8,317.4l2.5-3.6H674v-1.4h4.4v0.9l-2.5,3.6h2.6v1.4h-4.8V317.4z"/>
	<path fill="#FFFFFF" d="M679.7,310.5h4.9v1.5h-3.1v1.6h2.7v1.5h-2.7v1.8h3.3v1.5h-5V310.5z"/>
	<path fill="#FFFFFF" d="M685.5,312.4h1.8l0.8,2.8c0.2,0.6,0.3,1.2,0.5,1.8h0c0.1-0.6,0.3-1.2,0.5-1.8l0.8-2.8h1.7l-1.9,5.9h-2
		L685.5,312.4z"/>
</g>
<g>
	<path fill="#FFFFFF" d="M454.6,463.4h-2.2V462h6.1v1.5h-2.1v6.3h-1.8V463.4z"/>
	<path fill="#FFFFFF" d="M459.5,462c0-0.5,0.4-0.9,1-0.9c0.6,0,1,0.4,1,0.9c0,0.5-0.4,0.9-1,0.9C459.9,463,459.5,462.6,459.5,462z
		 M459.6,463.8h1.8v5.9h-1.8V463.8z"/>
	<path fill="#FFFFFF" d="M462.9,463.8h1.4l0.1,0.8h0c0.5-0.5,1-0.9,1.8-0.9c0.8,0,1.3,0.4,1.6,1c0.5-0.5,1.1-1,1.9-1
		c1.3,0,1.9,0.9,1.9,2.4v3.7H470v-3.5c0-0.9-0.2-1.1-0.7-1.1c-0.3,0-0.6,0.2-1,0.6v4h-1.8v-3.5c0-0.9-0.2-1.1-0.7-1.1
		c-0.3,0-0.6,0.2-1,0.6v4h-1.8V463.8z"/>
	<path fill="#FFFFFF" d="M475.7,463.7c1.7,0,2.5,1.2,2.5,2.9c0,0.3,0,0.6-0.1,0.7h-3.6c0.2,0.9,0.8,1.3,1.5,1.3
		c0.4,0,0.9-0.1,1.3-0.4l0.6,1.1c-0.6,0.4-1.4,0.7-2.1,0.7c-1.7,0-3-1.2-3-3.1C472.9,464.9,474.3,463.7,475.7,463.7z M476.7,466.2
		c0-0.7-0.3-1.2-1-1.2c-0.6,0-1,0.4-1.2,1.2H476.7z"/>
	<path fill="#FFFFFF" d="M481.8,462c0-0.5,0.4-0.9,1-0.9c0.6,0,1,0.4,1,0.9c0,0.5-0.4,0.9-1,0.9C482.2,463,481.8,462.6,481.8,462z
		 M481.9,463.8h1.8v5.9h-1.8V463.8z"/>
	<path fill="#FFFFFF" d="M485.5,468c0.5,0.4,1,0.6,1.5,0.6c0.5,0,0.8-0.2,0.8-0.5c0-0.4-0.6-0.6-1.2-0.8c-0.7-0.3-1.6-0.8-1.6-1.8
		c0-1.1,0.9-1.9,2.3-1.9c0.9,0,1.6,0.4,2.1,0.8l-0.8,1.1c-0.4-0.3-0.8-0.5-1.3-0.5c-0.5,0-0.7,0.2-0.7,0.5c0,0.4,0.6,0.5,1.2,0.8
		c0.8,0.3,1.6,0.7,1.6,1.8c0,1.1-0.9,1.9-2.4,1.9c-0.8,0-1.7-0.3-2.3-0.8L485.5,468z"/>
	<path fill="#FFFFFF" d="M493.1,463.8h1.4l0.1,1h0c0.4-0.8,1.1-1.2,1.7-1.2c0.3,0,0.5,0,0.7,0.1l-0.3,1.5c-0.2-0.1-0.4-0.1-0.6-0.1
		c-0.4,0-1,0.3-1.3,1.1v3.5h-1.8V463.8z"/>
	<path fill="#FFFFFF" d="M500.2,463.7c1.7,0,2.5,1.2,2.5,2.9c0,0.3,0,0.6-0.1,0.7h-3.6c0.2,0.9,0.8,1.3,1.5,1.3
		c0.4,0,0.9-0.1,1.3-0.4l0.6,1.1c-0.6,0.4-1.4,0.7-2.1,0.7c-1.7,0-3-1.2-3-3.1C497.4,464.9,498.8,463.7,500.2,463.7z M501.2,466.2
		c0-0.7-0.3-1.2-1-1.2c-0.6,0-1,0.4-1.2,1.2H501.2z"/>
	<path fill="#FFFFFF" d="M506.7,463.7c0.7,0,1.3,0.3,1.7,0.7l-0.8,1.1c-0.3-0.2-0.6-0.3-0.8-0.3c-0.9,0-1.4,0.7-1.4,1.7
		s0.6,1.7,1.3,1.7c0.4,0,0.8-0.2,1.1-0.4l0.7,1.1c-0.6,0.5-1.3,0.7-2,0.7c-1.7,0-2.9-1.1-2.9-3.1C503.6,464.8,505,463.7,506.7,463.7
		z"/>
	<path fill="#FFFFFF" d="M511.8,463.7c1.5,0,2.9,1.1,2.9,3.1c0,2-1.4,3.1-2.9,3.1c-1.5,0-2.9-1.1-2.9-3.1
		C508.9,464.8,510.3,463.7,511.8,463.7z M511.8,468.5c0.7,0,1.1-0.7,1.1-1.7s-0.4-1.7-1.1-1.7c-0.7,0-1.1,0.7-1.1,1.7
		S511,468.5,511.8,468.5z"/>
	<path fill="#FFFFFF" d="M515.9,463.8h1.4l0.1,1h0c0.4-0.8,1.1-1.2,1.7-1.2c0.3,0,0.5,0,0.7,0.1l-0.3,1.5c-0.2-0.1-0.4-0.1-0.6-0.1
		c-0.4,0-1,0.3-1.3,1.1v3.5h-1.8V463.8z"/>
	<path fill="#FFFFFF" d="M522.7,463.7c0.7,0,1.1,0.2,1.5,0.6l-0.1-0.9v-2h1.8v8.4h-1.4l-0.1-0.6h0c-0.4,0.4-1,0.7-1.6,0.7
		c-1.5,0-2.4-1.2-2.4-3.1C520.2,464.9,521.4,463.7,522.7,463.7z M523.1,468.5c0.4,0,0.7-0.1,1-0.5v-2.4c-0.3-0.3-0.7-0.4-1-0.4
		c-0.6,0-1.1,0.5-1.1,1.7C522,468,522.4,468.5,523.1,468.5z"/>
	<path fill="#FFFFFF" d="M529.9,463.7c1.7,0,2.5,1.2,2.5,2.9c0,0.3,0,0.6-0.1,0.7h-3.6c0.2,0.9,0.8,1.3,1.5,1.3
		c0.4,0,0.9-0.1,1.3-0.4l0.6,1.1c-0.6,0.4-1.4,0.7-2.1,0.7c-1.7,0-3-1.2-3-3.1C527.1,464.9,528.4,463.7,529.9,463.7z M530.9,466.2
		c0-0.7-0.3-1.2-1-1.2c-0.6,0-1,0.4-1.2,1.2H530.9z"/>
	<path fill="#FFFFFF" d="M535.8,463.7c0.7,0,1.1,0.2,1.5,0.6l-0.1-0.9v-2h1.8v8.4h-1.4l-0.1-0.6h0c-0.4,0.4-1,0.7-1.6,0.7
		c-1.5,0-2.4-1.2-2.4-3.1C533.3,464.9,534.5,463.7,535.8,463.7z M536.2,468.5c0.4,0,0.7-0.1,1-0.5v-2.4c-0.3-0.3-0.7-0.4-1-0.4
		c-0.6,0-1.1,0.5-1.1,1.7C535.1,468,535.5,468.5,536.2,468.5z"/>
	<path fill="#FFFFFF" d="M543,461.4h1.8v2.1l0,0.9c0.5-0.4,1-0.7,1.6-0.7c1.4,0,2.3,1.2,2.3,3c0,2.1-1.2,3.2-2.5,3.2
		c-0.5,0-1.1-0.3-1.5-0.8h0l-0.1,0.6H543V461.4z M545.7,468.5c0.6,0,1.1-0.5,1.1-1.8c0-1.1-0.3-1.6-1-1.6c-0.4,0-0.7,0.2-1,0.5v2.4
		C545.1,468.4,545.4,468.5,545.7,468.5z"/>
	<path fill="#FFFFFF" d="M552.9,465.9c0-0.5-0.3-0.9-0.9-0.9c-0.5,0-1,0.2-1.6,0.5l-0.6-1.2c0.8-0.5,1.6-0.8,2.5-0.8
		c1.5,0,2.4,0.9,2.4,2.7v3.4h-1.4l-0.1-0.6h0c-0.5,0.4-1.1,0.8-1.7,0.8c-1.1,0-1.8-0.8-1.8-1.8C549.5,466.9,550.5,466.2,552.9,465.9
		z M551.9,468.6c0.4,0,0.7-0.2,1-0.5v-1c-1.3,0.2-1.7,0.5-1.7,1C551.2,468.4,551.5,468.6,551.9,468.6z"/>
	<path fill="#FFFFFF" d="M556.4,468c0.5,0.4,1,0.6,1.5,0.6c0.5,0,0.8-0.2,0.8-0.5c0-0.4-0.6-0.6-1.2-0.8c-0.7-0.3-1.6-0.8-1.6-1.8
		c0-1.1,0.9-1.9,2.3-1.9c0.9,0,1.6,0.4,2.1,0.8l-0.8,1.1c-0.4-0.3-0.8-0.5-1.3-0.5c-0.5,0-0.7,0.2-0.7,0.5c0,0.4,0.6,0.5,1.2,0.8
		c0.8,0.3,1.6,0.7,1.6,1.8c0,1.1-0.9,1.9-2.4,1.9c-0.8,0-1.7-0.3-2.3-0.8L556.4,468z"/>
	<path fill="#FFFFFF" d="M563.9,463.7c1.7,0,2.5,1.2,2.5,2.9c0,0.3,0,0.6-0.1,0.7h-3.6c0.2,0.9,0.8,1.3,1.5,1.3
		c0.4,0,0.9-0.1,1.3-0.4l0.6,1.1c-0.6,0.4-1.4,0.7-2.1,0.7c-1.7,0-3-1.2-3-3.1C561.1,464.9,562.5,463.7,563.9,463.7z M564.9,466.2
		c0-0.7-0.3-1.2-1-1.2c-0.6,0-1,0.4-1.2,1.2H564.9z"/>
	<path fill="#FFFFFF" d="M569.8,463.7c0.7,0,1.1,0.2,1.5,0.6l-0.1-0.9v-2h1.8v8.4h-1.4l-0.1-0.6h0c-0.4,0.4-1,0.7-1.6,0.7
		c-1.5,0-2.4-1.2-2.4-3.1C567.4,464.9,568.6,463.7,569.8,463.7z M570.3,468.5c0.4,0,0.7-0.1,1-0.5v-2.4c-0.3-0.3-0.7-0.4-1-0.4
		c-0.6,0-1.1,0.5-1.1,1.7C569.2,468,569.6,468.5,570.3,468.5z"/>
	<path fill="#FFFFFF" d="M579.6,463.7c1.5,0,2.9,1.1,2.9,3.1c0,2-1.4,3.1-2.9,3.1c-1.5,0-2.9-1.1-2.9-3.1
		C576.7,464.8,578.1,463.7,579.6,463.7z M579.6,468.5c0.7,0,1.1-0.7,1.1-1.7s-0.4-1.7-1.1-1.7c-0.7,0-1.1,0.7-1.1,1.7
		S578.9,468.5,579.6,468.5z"/>
	<path fill="#FFFFFF" d="M583.7,463.8h1.4l0.1,0.8h0c0.5-0.5,1.1-0.9,1.9-0.9c1.3,0,1.8,0.9,1.8,2.4v3.7h-1.8v-3.5
		c0-0.9-0.2-1.1-0.7-1.1c-0.4,0-0.7,0.2-1.1,0.6v4h-1.8V463.8z"/>
	<path fill="#FFFFFF" d="M593.6,470.7c0.6,0,0.9-0.3,1-0.8l0.1-0.3l-2.3-5.8h1.8l0.9,2.6c0.2,0.5,0.3,1.1,0.5,1.7h0
		c0.1-0.6,0.3-1.1,0.4-1.7l0.7-2.6h1.7l-2.1,6c-0.6,1.5-1.2,2.3-2.6,2.3c-0.4,0-0.6,0-0.8-0.1l0.3-1.3
		C593.3,470.7,593.5,470.7,593.6,470.7z"/>
	<path fill="#FFFFFF" d="M601.8,463.7c1.5,0,2.9,1.1,2.9,3.1c0,2-1.4,3.1-2.9,3.1c-1.5,0-2.9-1.1-2.9-3.1
		C598.9,464.8,600.3,463.7,601.8,463.7z M601.8,468.5c0.7,0,1.1-0.7,1.1-1.7s-0.4-1.7-1.1-1.7c-0.7,0-1.1,0.7-1.1,1.7
		S601,468.5,601.8,468.5z"/>
	<path fill="#FFFFFF" d="M605.8,463.8h1.8v3.5c0,0.9,0.2,1.1,0.7,1.1c0.4,0,0.7-0.2,1.1-0.7v-3.9h1.8v5.9h-1.4l-0.1-0.8h0
		c-0.5,0.6-1.1,1-1.9,1c-1.3,0-1.8-0.9-1.8-2.4V463.8z"/>
	<path fill="#FFFFFF" d="M612.7,463.8h1.4l0.1,1h0c0.4-0.8,1.1-1.2,1.7-1.2c0.3,0,0.5,0,0.7,0.1l-0.3,1.5c-0.2-0.1-0.4-0.1-0.6-0.1
		c-0.4,0-1,0.3-1.3,1.1v3.5h-1.8V463.8z"/>
	<path fill="#FFFFFF" d="M621.7,470.2v1.7H620v-8.2h1.4l0.1,0.6h0c0.5-0.4,1.1-0.7,1.7-0.7c1.4,0,2.3,1.2,2.3,3c0,2-1.2,3.2-2.5,3.2
		c-0.5,0-1-0.2-1.4-0.6L621.7,470.2z M622.7,468.5c0.6,0,1.1-0.5,1.1-1.8c0-1.1-0.3-1.6-1-1.6c-0.4,0-0.7,0.2-1,0.5v2.4
		C622,468.4,622.4,468.5,622.7,468.5z"/>
	<path fill="#FFFFFF" d="M629.4,463.7c1.5,0,2.9,1.1,2.9,3.1c0,2-1.4,3.1-2.9,3.1c-1.5,0-2.9-1.1-2.9-3.1
		C626.5,464.8,627.9,463.7,629.4,463.7z M629.4,468.5c0.7,0,1.1-0.7,1.1-1.7s-0.4-1.7-1.1-1.7c-0.7,0-1.1,0.7-1.1,1.7
		S628.7,468.5,629.4,468.5z"/>
	<path fill="#FFFFFF" d="M633.7,468c0.5,0.4,1,0.6,1.5,0.6c0.5,0,0.8-0.2,0.8-0.5c0-0.4-0.6-0.6-1.2-0.8c-0.7-0.3-1.6-0.8-1.6-1.8
		c0-1.1,0.9-1.9,2.3-1.9c0.9,0,1.6,0.4,2.1,0.8l-0.8,1.1c-0.4-0.3-0.8-0.5-1.3-0.5c-0.5,0-0.7,0.2-0.7,0.5c0,0.4,0.6,0.5,1.2,0.8
		c0.8,0.3,1.6,0.7,1.6,1.8c0,1.1-0.9,1.9-2.4,1.9c-0.8,0-1.7-0.3-2.3-0.8L633.7,468z"/>
	<path fill="#FFFFFF" d="M638.6,462c0-0.5,0.4-0.9,1-0.9c0.6,0,1,0.4,1,0.9c0,0.5-0.4,0.9-1,0.9C639,463,638.6,462.6,638.6,462z
		 M638.8,463.8h1.8v5.9h-1.8V463.8z"/>
	<path fill="#FFFFFF" d="M642.3,465.2h-0.8v-1.3l0.9-0.1l0.2-1.6h1.5v1.6h1.4v1.4h-1.4v2.4c0,0.7,0.3,0.9,0.8,0.9
		c0.2,0,0.4-0.1,0.6-0.1l0.3,1.3c-0.3,0.1-0.7,0.2-1.3,0.2c-1.5,0-2.1-0.9-2.1-2.3V465.2z"/>
	<path fill="#FFFFFF" d="M646.5,462c0-0.5,0.4-0.9,1-0.9c0.6,0,1,0.4,1,0.9c0,0.5-0.4,0.9-1,0.9C647,463,646.5,462.6,646.5,462z
		 M646.7,463.8h1.8v5.9h-1.8V463.8z"/>
	<path fill="#FFFFFF" d="M652.5,463.7c1.5,0,2.9,1.1,2.9,3.1c0,2-1.4,3.1-2.9,3.1c-1.5,0-2.9-1.1-2.9-3.1
		C649.6,464.8,651,463.7,652.5,463.7z M652.5,468.5c0.7,0,1.1-0.7,1.1-1.7s-0.4-1.7-1.1-1.7c-0.7,0-1.1,0.7-1.1,1.7
		S651.8,468.5,652.5,468.5z"/>
	<path fill="#FFFFFF" d="M656.6,463.8h1.4l0.1,0.8h0c0.5-0.5,1.1-0.9,1.9-0.9c1.3,0,1.8,0.9,1.8,2.4v3.7h-1.8v-3.5
		c0-0.9-0.2-1.1-0.7-1.1c-0.4,0-0.7,0.2-1.1,0.6v4h-1.8V463.8z"/>
	<path fill="#FFFFFF" d="M665.7,466.1h3v1.2h-3V466.1z"/>
	<path fill="#FFFFFF" d="M672.5,463.8h1.4l0.1,0.8h0c0.5-0.5,1.1-0.9,1.9-0.9c1.3,0,1.8,0.9,1.8,2.4v3.7h-1.8v-3.5
		c0-0.9-0.2-1.1-0.7-1.1c-0.4,0-0.7,0.2-1.1,0.6v4h-1.8V463.8z"/>
	<path fill="#FFFFFF" d="M681.9,463.7c1.5,0,2.9,1.1,2.9,3.1c0,2-1.4,3.1-2.9,3.1c-1.5,0-2.9-1.1-2.9-3.1
		C679,464.8,680.4,463.7,681.9,463.7z M681.9,468.5c0.7,0,1.1-0.7,1.1-1.7s-0.4-1.7-1.1-1.7c-0.7,0-1.1,0.7-1.1,1.7
		S681.2,468.5,681.9,468.5z"/>
	<path fill="#FFFFFF" d="M688.5,463.8h1.4l0.1,0.8h0c0.5-0.5,1-0.9,1.8-0.9c0.8,0,1.3,0.4,1.6,1c0.5-0.5,1.1-1,1.9-1
		c1.3,0,1.9,0.9,1.9,2.4v3.7h-1.8v-3.5c0-0.9-0.2-1.1-0.7-1.1c-0.3,0-0.6,0.2-1,0.6v4H692v-3.5c0-0.9-0.2-1.1-0.7-1.1
		c-0.3,0-0.6,0.2-1,0.6v4h-1.8V463.8z"/>
	<path fill="#FFFFFF" d="M701.3,463.7c1.5,0,2.9,1.1,2.9,3.1c0,2-1.4,3.1-2.9,3.1c-1.5,0-2.9-1.1-2.9-3.1
		C698.4,464.8,699.8,463.7,701.3,463.7z M701.3,468.5c0.7,0,1.1-0.7,1.1-1.7s-0.4-1.7-1.1-1.7c-0.7,0-1.1,0.7-1.1,1.7
		S700.6,468.5,701.3,468.5z"/>
	<path fill="#FFFFFF" d="M705.4,463.8h1.4l0.1,1h0c0.4-0.8,1.1-1.2,1.7-1.2c0.3,0,0.5,0,0.7,0.1l-0.3,1.5c-0.2-0.1-0.4-0.1-0.6-0.1
		c-0.4,0-1,0.3-1.3,1.1v3.5h-1.8V463.8z"/>
	<path fill="#FFFFFF" d="M712.6,463.7c1.7,0,2.5,1.2,2.5,2.9c0,0.3,0,0.6-0.1,0.7h-3.6c0.2,0.9,0.8,1.3,1.5,1.3
		c0.4,0,0.9-0.1,1.3-0.4l0.6,1.1c-0.6,0.4-1.4,0.7-2.1,0.7c-1.7,0-3-1.2-3-3.1C709.8,464.9,711.1,463.7,712.6,463.7z M713.6,466.2
		c0-0.7-0.3-1.2-1-1.2c-0.6,0-1,0.4-1.2,1.2H713.6z"/>
	<path fill="#FFFFFF" d="M718.7,462c0-0.5,0.4-0.9,1-0.9c0.6,0,1,0.4,1,0.9c0,0.5-0.4,0.9-1,0.9C719.1,463,718.7,462.6,718.7,462z
		 M718.8,463.8h1.8v5.9h-1.8V463.8z"/>
	<path fill="#FFFFFF" d="M722.4,465.2h-0.8v-1.3l0.9-0.1l0.2-1.6h1.5v1.6h1.4v1.4h-1.4v2.4c0,0.7,0.3,0.9,0.8,0.9
		c0.2,0,0.4-0.1,0.6-0.1l0.3,1.3c-0.3,0.1-0.7,0.2-1.3,0.2c-1.5,0-2.1-0.9-2.1-2.3V465.2z"/>
	<path fill="#FFFFFF" d="M729.1,463.7c1.7,0,2.5,1.2,2.5,2.9c0,0.3,0,0.6-0.1,0.7H728c0.2,0.9,0.8,1.3,1.5,1.3
		c0.4,0,0.9-0.1,1.3-0.4l0.6,1.1c-0.6,0.4-1.4,0.7-2.1,0.7c-1.7,0-3-1.2-3-3.1C726.2,464.9,727.6,463.7,729.1,463.7z M730.1,466.2
		c0-0.7-0.3-1.2-1-1.2c-0.6,0-1,0.4-1.2,1.2H730.1z"/>
	<path fill="#FFFFFF" d="M732.8,463.8h1.4l0.1,0.8h0c0.5-0.5,1-0.9,1.8-0.9c0.8,0,1.3,0.4,1.6,1c0.5-0.5,1.1-1,1.9-1
		c1.3,0,1.9,0.9,1.9,2.4v3.7h-1.8v-3.5c0-0.9-0.2-1.1-0.7-1.1c-0.3,0-0.6,0.2-1,0.6v4h-1.8v-3.5c0-0.9-0.2-1.1-0.7-1.1
		c-0.3,0-0.6,0.2-1,0.6v4h-1.8V463.8z"/>
	<path fill="#FFFFFF" d="M743.4,468c0.5,0.4,1,0.6,1.5,0.6c0.5,0,0.8-0.2,0.8-0.5c0-0.4-0.6-0.6-1.2-0.8c-0.7-0.3-1.6-0.8-1.6-1.8
		c0-1.1,0.9-1.9,2.3-1.9c0.9,0,1.6,0.4,2.1,0.8l-0.8,1.1c-0.4-0.3-0.8-0.5-1.3-0.5c-0.5,0-0.7,0.2-0.7,0.5c0,0.4,0.6,0.5,1.2,0.8
		c0.8,0.3,1.6,0.7,1.6,1.8c0,1.1-0.9,1.9-2.4,1.9c-0.8,0-1.7-0.3-2.3-0.8L743.4,468z"/>
	<path fill="#FFFFFF" d="M750.9,463.8h1.4l0.1,0.8h0c0.5-0.5,1.1-0.9,1.9-0.9c1.3,0,1.8,0.9,1.8,2.4v3.7h-1.8v-3.5
		c0-0.9-0.2-1.1-0.7-1.1c-0.4,0-0.7,0.2-1.1,0.6v4h-1.8V463.8z"/>
	<path fill="#FFFFFF" d="M760.2,463.7c1.7,0,2.5,1.2,2.5,2.9c0,0.3,0,0.6-0.1,0.7h-3.6c0.2,0.9,0.8,1.3,1.5,1.3
		c0.4,0,0.9-0.1,1.3-0.4l0.6,1.1c-0.6,0.4-1.4,0.7-2.1,0.7c-1.7,0-3-1.2-3-3.1C757.4,464.9,758.8,463.7,760.2,463.7z M761.3,466.2
		c0-0.7-0.3-1.2-1-1.2c-0.6,0-1,0.4-1.2,1.2H761.3z"/>
	<path fill="#FFFFFF" d="M766.4,463.7c1.7,0,2.5,1.2,2.5,2.9c0,0.3,0,0.6-0.1,0.7h-3.6c0.2,0.9,0.8,1.3,1.5,1.3
		c0.4,0,0.9-0.1,1.3-0.4l0.6,1.1c-0.6,0.4-1.4,0.7-2.1,0.7c-1.7,0-3-1.2-3-3.1C763.6,464.9,765,463.7,766.4,463.7z M767.5,466.2
		c0-0.7-0.3-1.2-1-1.2c-0.6,0-1,0.4-1.2,1.2H767.5z"/>
	<path fill="#FFFFFF" d="M772.4,463.7c0.7,0,1.1,0.2,1.5,0.6l-0.1-0.9v-2h1.8v8.4h-1.4l-0.1-0.6h0c-0.4,0.4-1,0.7-1.6,0.7
		c-1.5,0-2.4-1.2-2.4-3.1C769.9,464.9,771.1,463.7,772.4,463.7z M772.8,468.5c0.4,0,0.7-0.1,1-0.5v-2.4c-0.3-0.3-0.7-0.4-1-0.4
		c-0.6,0-1.1,0.5-1.1,1.7C771.7,468,772.1,468.5,772.8,468.5z"/>
	<path fill="#FFFFFF" d="M779.5,463.7c1.7,0,2.5,1.2,2.5,2.9c0,0.3,0,0.6-0.1,0.7h-3.6c0.2,0.9,0.8,1.3,1.5,1.3
		c0.4,0,0.9-0.1,1.3-0.4l0.6,1.1c-0.6,0.4-1.4,0.7-2.1,0.7c-1.7,0-3-1.2-3-3.1C776.7,464.9,778.1,463.7,779.5,463.7z M780.6,466.2
		c0-0.7-0.3-1.2-1-1.2c-0.6,0-1,0.4-1.2,1.2H780.6z"/>
	<path fill="#FFFFFF" d="M785.5,463.7c0.7,0,1.1,0.2,1.5,0.6l-0.1-0.9v-2h1.8v8.4h-1.4l-0.1-0.6h0c-0.4,0.4-1,0.7-1.6,0.7
		c-1.5,0-2.4-1.2-2.4-3.1C783,464.9,784.2,463.7,785.5,463.7z M785.9,468.5c0.4,0,0.7-0.1,1-0.5v-2.4c-0.3-0.3-0.7-0.4-1-0.4
		c-0.6,0-1.1,0.5-1.1,1.7C784.8,468,785.2,468.5,785.9,468.5z"/>
	<path fill="#FFFFFF" d="M791.2,467.7c0.6,0,1.1,0.5,1.1,1.1c0,0.6-0.5,1.1-1.1,1.1c-0.6,0-1.1-0.5-1.1-1.1
		C790.1,468.2,790.6,467.7,791.2,467.7z"/>
</g>
<g>
	<path fill="#FFFFFF" d="M350.3,539.6h1.2l1.5,4.2l0.6,1.6h0l0.6-1.6l1.5-4.2h1.2v7.9h-0.9v-4.3c0-0.7,0.1-1.6,0.1-2.3h0l-0.6,1.8
		l-1.5,4.1h-0.6l-1.5-4.1l-0.6-1.8h0c0,0.7,0.1,1.6,0.1,2.3v4.3h-0.9V539.6z"/>
	<path fill="#FFFFFF" d="M362.2,543.8c0-0.7-0.3-1.5-1.2-1.5c-0.7,0-1.3,0.3-1.7,0.6l-0.4-0.7c0.5-0.3,1.4-0.8,2.3-0.8
		c1.4,0,2,0.9,2,2.4v3.6h-0.8l-0.1-0.7h0c-0.6,0.5-1.2,0.8-1.9,0.8c-1,0-1.7-0.6-1.7-1.7C358.6,544.7,359.7,544.1,362.2,543.8z
		 M360.6,546.8c0.6,0,1-0.3,1.6-0.8v-1.6c-2,0.2-2.6,0.7-2.6,1.5C359.6,546.6,360,546.8,360.6,546.8z"/>
	<path fill="#FFFFFF" d="M366,548v2h-1v-8.3h0.8l0.1,0.7h0c0.5-0.4,1.2-0.8,1.9-0.8c1.5,0,2.3,1.2,2.3,3c0,2-1.2,3.1-2.5,3.1
		c-0.5,0-1.1-0.3-1.6-0.7L366,548z M367.4,546.8c1,0,1.7-0.9,1.7-2.3c0-1.3-0.4-2.1-1.5-2.1c-0.5,0-1,0.3-1.6,0.8v3.1
		C366.5,546.6,367.1,546.8,367.4,546.8z"/>
	<path fill="#FFFFFF" d="M371.5,546.2c0.5,0.4,1,0.7,1.7,0.7c0.8,0,1.2-0.4,1.2-0.9c0-0.6-0.7-0.9-1.3-1.1c-0.8-0.3-1.7-0.7-1.7-1.7
		c0-0.9,0.7-1.7,2-1.7c0.7,0,1.4,0.3,1.8,0.7l-0.5,0.6c-0.4-0.3-0.8-0.5-1.3-0.5c-0.7,0-1.1,0.4-1.1,0.8c0,0.5,0.6,0.8,1.3,1
		c0.8,0.3,1.8,0.7,1.8,1.8c0,0.9-0.8,1.7-2.1,1.7c-0.8,0-1.6-0.3-2.2-0.8L371.5,546.2z"/>
	<path fill="#FFFFFF" d="M379.1,541.7h0.8l0.1,0.8h0c0.5-0.6,1.1-1,1.8-1c0.9,0,1.4,0.4,1.6,1.1c0.6-0.7,1.2-1.1,1.9-1.1
		c1.2,0,1.8,0.8,1.8,2.3v3.7h-1v-3.6c0-1.1-0.3-1.6-1.1-1.6c-0.5,0-0.9,0.3-1.5,0.9v4.2h-1v-3.6c0-1.1-0.3-1.6-1.1-1.6
		c-0.4,0-0.9,0.3-1.5,0.9v4.2h-1V541.7z"/>
	<path fill="#FFFFFF" d="M392.4,543.8c0-0.7-0.3-1.5-1.2-1.5c-0.7,0-1.3,0.3-1.7,0.6l-0.4-0.7c0.5-0.3,1.4-0.8,2.3-0.8
		c1.4,0,2,0.9,2,2.4v3.6h-0.8l-0.1-0.7h0c-0.6,0.5-1.2,0.8-1.9,0.8c-1,0-1.7-0.6-1.7-1.7C388.8,544.7,389.9,544.1,392.4,543.8z
		 M390.8,546.8c0.6,0,1-0.3,1.6-0.8v-1.6c-2,0.2-2.6,0.7-2.6,1.5C389.8,546.6,390.2,546.8,390.8,546.8z"/>
	<path fill="#FFFFFF" d="M397.3,541.5c0.7,0,1.1,0.3,1.6,0.7l0-1V539h1v8.5h-0.8l-0.1-0.7h0c-0.5,0.4-1.1,0.8-1.8,0.8
		c-1.5,0-2.4-1.1-2.4-3C394.8,542.7,396,541.5,397.3,541.5z M397.4,546.8c0.5,0,1-0.3,1.5-0.8v-3c-0.5-0.4-0.9-0.6-1.4-0.6
		c-0.9,0-1.7,0.9-1.7,2.2C395.8,546,396.4,546.8,397.4,546.8z"/>
	<path fill="#FFFFFF" d="M404.1,541.5c1.5,0,2.3,1.1,2.3,2.7c0,0.2,0,0.4,0,0.5h-3.9c0.1,1.3,0.8,2.1,1.9,2.1c0.6,0,1-0.2,1.5-0.5
		l0.3,0.6c-0.5,0.3-1.1,0.6-1.9,0.6c-1.6,0-2.8-1.1-2.8-3S402.7,541.5,404.1,541.5z M405.5,544.1c0-1.2-0.5-1.8-1.4-1.8
		c-0.8,0-1.6,0.7-1.7,1.8H405.5z"/>
	<path fill="#FFFFFF" d="M412.9,539.8c-0.2-0.1-0.4-0.1-0.7-0.1c-0.6,0-0.8,0.4-0.8,1.1v0.9h1.2v0.8h-1.2v5h-1v-5h-0.8v-0.7l0.8-0.1
		v-0.9c0-1.2,0.5-1.9,1.7-1.9c0.4,0,0.7,0.1,1,0.2L412.9,539.8z"/>
	<path fill="#FFFFFF" d="M415.9,541.5c1.4,0,2.7,1.1,2.7,3.1c0,1.9-1.3,3-2.7,3s-2.7-1.1-2.7-3C413.2,542.6,414.5,541.5,415.9,541.5
		z M415.9,546.8c1,0,1.7-0.9,1.7-2.2c0-1.3-0.7-2.3-1.7-2.3c-1,0-1.7,0.9-1.7,2.3C414.2,545.9,414.9,546.8,415.9,546.8z"/>
	<path fill="#FFFFFF" d="M420.2,541.7h0.8l0.1,1.1h0c0.4-0.7,1-1.2,1.7-1.2c0.3,0,0.4,0,0.6,0.1l-0.2,0.9c-0.2-0.1-0.3-0.1-0.6-0.1
		c-0.5,0-1.1,0.4-1.5,1.3v3.7h-1V541.7z"/>
	<path fill="#FFFFFF" d="M431.1,547.5l-1.9-3.3h-1.4v3.3h-1v-7.9h2.5c1.6,0,2.7,0.6,2.7,2.2c0,1.2-0.7,2-1.8,2.2l2,3.4H431.1z
		 M427.8,543.4h1.3c1.2,0,1.9-0.5,1.9-1.5c0-1-0.7-1.4-1.9-1.4h-1.3V543.4z"/>
	<path fill="#FFFFFF" d="M435.7,541.5c1.5,0,2.3,1.1,2.3,2.7c0,0.2,0,0.4,0,0.5h-3.9c0.1,1.3,0.8,2.1,1.9,2.1c0.6,0,1-0.2,1.5-0.5
		l0.3,0.6c-0.5,0.3-1.1,0.6-1.9,0.6c-1.6,0-2.8-1.1-2.8-3S434.4,541.5,435.7,541.5z M437.2,544.1c0-1.2-0.5-1.8-1.4-1.8
		c-0.8,0-1.6,0.7-1.7,1.8H437.2z"/>
	<path fill="#FFFFFF" d="M442.1,539.8c-0.2-0.1-0.4-0.1-0.7-0.1c-0.6,0-0.8,0.4-0.8,1.1v0.9h1.2v0.8h-1.2v5h-1v-5h-0.8v-0.7l0.8-0.1
		v-0.9c0-1.2,0.5-1.9,1.7-1.9c0.4,0,0.7,0.1,1,0.2L442.1,539.8z"/>
	<path fill="#FFFFFF" d="M443,539h1v7.4c0,0.3,0.1,0.4,0.3,0.4c0.1,0,0.1,0,0.2,0l0.1,0.7c-0.1,0.1-0.3,0.1-0.6,0.1
		c-0.7,0-1-0.5-1-1.3V539z"/>
	<path fill="#FFFFFF" d="M448.2,541.5c1.5,0,2.3,1.1,2.3,2.7c0,0.2,0,0.4,0,0.5h-3.9c0.1,1.3,0.8,2.1,1.9,2.1c0.6,0,1-0.2,1.5-0.5
		l0.3,0.6c-0.5,0.3-1.1,0.6-1.9,0.6c-1.6,0-2.8-1.1-2.8-3S446.9,541.5,448.2,541.5z M449.7,544.1c0-1.2-0.5-1.8-1.4-1.8
		c-0.8,0-1.6,0.7-1.7,1.8H449.7z"/>
	<path fill="#FFFFFF" d="M453,544.4l-1.8-2.8h1.1l0.8,1.3c0.2,0.3,0.4,0.6,0.6,1h0c0.2-0.3,0.3-0.7,0.5-1l0.7-1.3h1l-1.8,2.9
		l1.9,2.9H455l-0.9-1.4c-0.2-0.3-0.4-0.7-0.6-1h0c-0.2,0.3-0.4,0.7-0.6,1l-0.8,1.4h-1L453,544.4z"/>
	<path fill="#FFFFFF" d="M457.3,541.7h0.8l0.1,1.1h0c0.4-0.7,1-1.2,1.7-1.2c0.3,0,0.4,0,0.6,0.1l-0.2,0.9c-0.2-0.1-0.3-0.1-0.6-0.1
		c-0.5,0-1.1,0.4-1.5,1.3v3.7h-1V541.7z"/>
	<path fill="#FFFFFF" d="M461.3,541.7h1v3.6c0,1.1,0.3,1.6,1.1,1.6c0.6,0,1-0.3,1.6-1v-4.1h1v5.8h-0.8l-0.1-0.9h0
		c-0.5,0.6-1.1,1.1-1.9,1.1c-1.2,0-1.8-0.8-1.8-2.3V541.7z"/>
	<path fill="#FFFFFF" d="M468,541.7h0.8l0.1,0.8h0c0.6-0.6,1.2-1,2-1c1.2,0,1.8,0.8,1.8,2.3v3.7h-1v-3.6c0-1.1-0.3-1.6-1.1-1.6
		c-0.6,0-1,0.3-1.6,0.9v4.2h-1V541.7z"/>
	<path fill="#FFFFFF" d="M480.2,543.8c0-0.7-0.3-1.5-1.2-1.5c-0.7,0-1.3,0.3-1.7,0.6l-0.4-0.7c0.5-0.3,1.4-0.8,2.3-0.8
		c1.4,0,2,0.9,2,2.4v3.6h-0.8l-0.1-0.7h0c-0.6,0.5-1.2,0.8-1.9,0.8c-1,0-1.7-0.6-1.7-1.7C476.7,544.7,477.8,544.1,480.2,543.8z
		 M478.6,546.8c0.6,0,1-0.3,1.6-0.8v-1.6c-2,0.2-2.6,0.7-2.6,1.5C477.6,546.6,478.1,546.8,478.6,546.8z"/>
	<path fill="#FFFFFF" d="M483.1,541.7h0.8l0.1,1.1h0c0.4-0.7,1-1.2,1.7-1.2c0.3,0,0.4,0,0.6,0.1l-0.2,0.9c-0.2-0.1-0.3-0.1-0.6-0.1
		c-0.5,0-1.1,0.4-1.5,1.3v3.7h-1V541.7z"/>
	<path fill="#FFFFFF" d="M489.3,541.5c1.5,0,2.3,1.1,2.3,2.7c0,0.2,0,0.4,0,0.5h-3.9c0.1,1.3,0.8,2.1,1.9,2.1c0.6,0,1-0.2,1.5-0.5
		l0.3,0.6c-0.5,0.3-1.1,0.6-1.9,0.6c-1.6,0-2.8-1.1-2.8-3S488,541.5,489.3,541.5z M490.8,544.1c0-1.2-0.5-1.8-1.4-1.8
		c-0.8,0-1.6,0.7-1.7,1.8H490.8z"/>
	<path fill="#FFFFFF" d="M495.5,539h1v7.4c0,0.3,0.1,0.4,0.3,0.4c0.1,0,0.1,0,0.2,0l0.1,0.7c-0.1,0.1-0.3,0.1-0.6,0.1
		c-0.7,0-1-0.5-1-1.3V539z"/>
	<path fill="#FFFFFF" d="M501.9,543.8c0-0.7-0.3-1.5-1.2-1.5c-0.7,0-1.3,0.3-1.7,0.6l-0.4-0.7c0.5-0.3,1.4-0.8,2.3-0.8
		c1.4,0,2,0.9,2,2.4v3.6H502l-0.1-0.7h0c-0.6,0.5-1.2,0.8-1.9,0.8c-1,0-1.7-0.6-1.7-1.7C498.3,544.7,499.4,544.1,501.9,543.8z
		 M500.3,546.8c0.6,0,1-0.3,1.6-0.8v-1.6c-2,0.2-2.6,0.7-2.6,1.5C499.3,546.6,499.7,546.8,500.3,546.8z"/>
	<path fill="#FFFFFF" d="M504.7,539h1v2.3l0,1.1c0.5-0.5,1.2-0.8,1.8-0.8c1.5,0,2.3,1.2,2.3,3c0,2-1.2,3.2-2.5,3.2
		c-0.5,0-1.2-0.3-1.7-0.7h0l-0.1,0.6h-0.8V539z M507.1,546.8c1,0,1.7-0.9,1.7-2.3c0-1.3-0.4-2.1-1.5-2.1c-0.5,0-1,0.3-1.6,0.8v3.1
		C506.2,546.6,506.7,546.8,507.1,546.8z"/>
	<path fill="#FFFFFF" d="M513.6,541.5c1.5,0,2.3,1.1,2.3,2.7c0,0.2,0,0.4,0,0.5h-3.9c0.1,1.3,0.8,2.1,1.9,2.1c0.6,0,1-0.2,1.5-0.5
		l0.3,0.6c-0.5,0.3-1.1,0.6-1.9,0.6c-1.6,0-2.8-1.1-2.8-3S512.2,541.5,513.6,541.5z M515,544.1c0-1.2-0.5-1.8-1.4-1.8
		c-0.8,0-1.6,0.7-1.7,1.8H515z"/>
	<path fill="#FFFFFF" d="M517.3,539h1v7.4c0,0.3,0.1,0.4,0.3,0.4c0.1,0,0.1,0,0.2,0l0.1,0.7c-0.1,0.1-0.3,0.1-0.6,0.1
		c-0.7,0-1-0.5-1-1.3V539z"/>
	<path fill="#FFFFFF" d="M522.6,541.5c1.5,0,2.3,1.1,2.3,2.7c0,0.2,0,0.4,0,0.5h-3.9c0.1,1.3,0.8,2.1,1.9,2.1c0.6,0,1-0.2,1.5-0.5
		l0.3,0.6c-0.5,0.3-1.1,0.6-1.9,0.6c-1.6,0-2.8-1.1-2.8-3S521.2,541.5,522.6,541.5z M524,544.1c0-1.2-0.5-1.8-1.4-1.8
		c-0.8,0-1.6,0.7-1.7,1.8H524z"/>
	<path fill="#FFFFFF" d="M528.4,541.5c0.7,0,1.1,0.3,1.6,0.7l0-1V539h1v8.5h-0.8l-0.1-0.7h0c-0.5,0.4-1.1,0.8-1.8,0.8
		c-1.5,0-2.4-1.1-2.4-3C525.9,542.7,527.1,541.5,528.4,541.5z M528.5,546.8c0.5,0,1-0.3,1.5-0.8v-3c-0.5-0.4-0.9-0.6-1.4-0.6
		c-0.9,0-1.7,0.9-1.7,2.2C526.9,546,527.5,546.8,528.5,546.8z"/>
	<path fill="#FFFFFF" d="M534.7,541.7h1l0.9,3.4c0.1,0.6,0.2,1.1,0.3,1.6h0c0.1-0.5,0.3-1.1,0.4-1.6l0.9-3.4h1l0.9,3.4
		c0.1,0.6,0.3,1.1,0.4,1.6h0c0.1-0.5,0.2-1.1,0.4-1.6l0.9-3.4h0.9l-1.6,5.8H540l-0.8-3.1c-0.1-0.6-0.3-1.1-0.4-1.7h0
		c-0.1,0.6-0.3,1.1-0.4,1.7l-0.8,3.1h-1.2L534.7,541.7z"/>
	<path fill="#FFFFFF" d="M543.9,539.8c0-0.4,0.3-0.6,0.7-0.6s0.7,0.3,0.7,0.6c0,0.4-0.3,0.6-0.7,0.6S543.9,540.2,543.9,539.8z
		 M544,541.7h1v5.8h-1V541.7z"/>
	<path fill="#FFFFFF" d="M547.2,542.5h-0.9v-0.7l0.9-0.1l0.1-1.6h0.8v1.6h1.6v0.8h-1.6v3.2c0,0.7,0.2,1.1,0.9,1.1
		c0.2,0,0.5-0.1,0.7-0.2l0.2,0.7c-0.3,0.1-0.7,0.2-1.1,0.2c-1.2,0-1.7-0.8-1.7-1.9V542.5z"/>
	<path fill="#FFFFFF" d="M551,539h1v2.3l0,1.2c0.6-0.5,1.1-1,1.9-1c1.2,0,1.8,0.8,1.8,2.3v3.7h-1v-3.6c0-1.1-0.3-1.6-1.1-1.6
		c-0.6,0-1,0.3-1.6,0.9v4.2h-1V539z"/>
	<path fill="#FFFFFF" d="M561.3,539.6c-0.6,0.4-0.9,0.8-0.9,1.5c0,0,0.1,0,0.1,0c0.3,0,0.6,0.2,0.6,0.6c0,0.4-0.3,0.7-0.6,0.7
		c-0.5,0-0.8-0.4-0.8-1.1c0-1,0.4-1.7,1.3-2.1L561.3,539.6z M563.4,539.6c-0.6,0.4-0.9,0.8-0.9,1.5c0,0,0.1,0,0.1,0
		c0.3,0,0.6,0.2,0.6,0.6c0,0.4-0.3,0.7-0.6,0.7c-0.5,0-0.8-0.4-0.8-1.1c0-1,0.4-1.7,1.3-2.1L563.4,539.6z"/>
	<path fill="#FFFFFF" d="M569.5,547.5l-1.9-3.3h-1.4v3.3h-1v-7.9h2.5c1.6,0,2.7,0.6,2.7,2.2c0,1.2-0.7,2-1.8,2.2l2,3.4H569.5z
		 M566.2,543.4h1.3c1.2,0,1.9-0.5,1.9-1.5c0-1-0.7-1.4-1.9-1.4h-1.3V543.4z"/>
	<path fill="#FFFFFF" d="M576.4,547.5l-1.9-3.3h-1.4v3.3h-1v-7.9h2.5c1.6,0,2.7,0.6,2.7,2.2c0,1.2-0.7,2-1.8,2.2l2,3.4H576.4z
		 M573.1,543.4h1.3c1.2,0,1.9-0.5,1.9-1.5c0-1-0.7-1.4-1.9-1.4h-1.3V543.4z"/>
	<path fill="#FFFFFF" d="M578.7,541.9c0.6-0.4,0.9-0.8,0.9-1.5c0,0-0.1,0-0.1,0c-0.3,0-0.6-0.2-0.6-0.6c0-0.4,0.3-0.7,0.6-0.7
		c0.5,0,0.8,0.4,0.8,1.1c0,1-0.5,1.6-1.3,2.1L578.7,541.9z M580.8,541.9c0.6-0.4,0.9-0.8,0.9-1.5c0,0-0.1,0-0.1,0
		c-0.3,0-0.6-0.2-0.6-0.6c0-0.4,0.3-0.7,0.6-0.7c0.5,0,0.8,0.4,0.8,1.1c0,1-0.4,1.6-1.3,2.1L580.8,541.9z"/>
	<path fill="#FFFFFF" d="M586,544.1h2.8v0.8H586V544.1z"/>
	<path fill="#FFFFFF" d="M596.3,545.1h-2.9l-0.8,2.4h-1l2.7-7.9h1.1l2.7,7.9H597L596.3,545.1z M596,544.3l-0.4-1.2
		c-0.3-0.9-0.5-1.7-0.8-2.7h0c-0.3,0.9-0.5,1.8-0.8,2.7l-0.4,1.2H596z"/>
	<path fill="#FFFFFF" d="M599.1,539h1v7.4c0,0.3,0.1,0.4,0.3,0.4c0.1,0,0.1,0,0.2,0l0.1,0.7c-0.1,0.1-0.3,0.1-0.6,0.1
		c-0.7,0-1-0.5-1-1.3V539z"/>
	<path fill="#FFFFFF" d="M602.1,539h1v7.4c0,0.3,0.1,0.4,0.3,0.4c0.1,0,0.1,0,0.2,0l0.1,0.7c-0.1,0.1-0.3,0.1-0.6,0.1
		c-0.7,0-1-0.5-1-1.3V539z"/>
	<path fill="#FFFFFF" d="M612,547.5l-1.9-3.3h-1.4v3.3h-1v-7.9h2.5c1.6,0,2.7,0.6,2.7,2.2c0,1.2-0.7,2-1.8,2.2l2,3.4H612z
		 M608.7,543.4h1.3c1.2,0,1.9-0.5,1.9-1.5c0-1-0.7-1.4-1.9-1.4h-1.3V543.4z"/>
	<path fill="#FFFFFF" d="M618.9,547.5l-1.9-3.3h-1.4v3.3h-1v-7.9h2.5c1.6,0,2.7,0.6,2.7,2.2c0,1.2-0.7,2-1.8,2.2l2,3.4H618.9z
		 M615.6,543.4h1.3c1.2,0,1.9-0.5,1.9-1.5c0-1-0.7-1.4-1.9-1.4h-1.3V543.4z"/>
	<path fill="#FFFFFF" d="M623.9,541.7h0.8l0.1,0.8h0c0.5-0.6,1.1-1,1.8-1c0.9,0,1.4,0.4,1.6,1.1c0.6-0.7,1.2-1.1,1.9-1.1
		c1.2,0,1.8,0.8,1.8,2.3v3.7h-1v-3.6c0-1.1-0.3-1.6-1.1-1.6c-0.5,0-0.9,0.3-1.5,0.9v4.2h-1v-3.6c0-1.1-0.3-1.6-1.1-1.6
		c-0.4,0-0.9,0.3-1.5,0.9v4.2h-1V541.7z"/>
	<path fill="#FFFFFF" d="M637.1,543.8c0-0.7-0.3-1.5-1.2-1.5c-0.7,0-1.3,0.3-1.7,0.6l-0.4-0.7c0.5-0.3,1.4-0.8,2.3-0.8
		c1.4,0,2,0.9,2,2.4v3.6h-0.8l-0.1-0.7h0c-0.6,0.5-1.2,0.8-1.9,0.8c-1,0-1.7-0.6-1.7-1.7C633.5,544.7,634.6,544.1,637.1,543.8z
		 M635.5,546.8c0.6,0,1-0.3,1.6-0.8v-1.6c-2,0.2-2.6,0.7-2.6,1.5C634.5,546.6,634.9,546.8,635.5,546.8z"/>
	<path fill="#FFFFFF" d="M640.9,548v2h-1v-8.3h0.8l0.1,0.7h0c0.5-0.4,1.2-0.8,1.9-0.8c1.5,0,2.3,1.2,2.3,3c0,2-1.2,3.1-2.5,3.1
		c-0.5,0-1.1-0.3-1.6-0.7L640.9,548z M642.4,546.8c1,0,1.7-0.9,1.7-2.3c0-1.3-0.4-2.1-1.5-2.1c-0.5,0-1,0.3-1.6,0.8v3.1
		C641.5,546.6,642,546.8,642.4,546.8z"/>
	<path fill="#FFFFFF" d="M646.5,546.2c0.5,0.4,1,0.7,1.7,0.7c0.8,0,1.2-0.4,1.2-0.9c0-0.6-0.7-0.9-1.3-1.1c-0.8-0.3-1.7-0.7-1.7-1.7
		c0-0.9,0.7-1.7,2-1.7c0.7,0,1.4,0.3,1.8,0.7l-0.5,0.6c-0.4-0.3-0.8-0.5-1.3-0.5c-0.7,0-1.1,0.4-1.1,0.8c0,0.5,0.6,0.8,1.3,1
		c0.8,0.3,1.8,0.7,1.8,1.8c0,0.9-0.8,1.7-2.1,1.7c-0.8,0-1.6-0.3-2.2-0.8L646.5,546.2z"/>
	<path fill="#FFFFFF" d="M657.4,543.8c0-0.7-0.3-1.5-1.2-1.5c-0.7,0-1.3,0.3-1.7,0.6l-0.4-0.7c0.5-0.3,1.4-0.8,2.3-0.8
		c1.4,0,2,0.9,2,2.4v3.6h-0.8l-0.1-0.7h0c-0.6,0.5-1.2,0.8-1.9,0.8c-1,0-1.7-0.6-1.7-1.7C653.8,544.7,654.9,544.1,657.4,543.8z
		 M655.8,546.8c0.6,0,1-0.3,1.6-0.8v-1.6c-2,0.2-2.6,0.7-2.6,1.5C654.8,546.6,655.2,546.8,655.8,546.8z"/>
	<path fill="#FFFFFF" d="M660.2,541.7h0.8l0.1,1.1h0c0.4-0.7,1-1.2,1.7-1.2c0.3,0,0.4,0,0.6,0.1l-0.2,0.9c-0.2-0.1-0.3-0.1-0.6-0.1
		c-0.5,0-1.1,0.4-1.5,1.3v3.7h-1V541.7z"/>
	<path fill="#FFFFFF" d="M666.4,541.5c1.5,0,2.3,1.1,2.3,2.7c0,0.2,0,0.4,0,0.5h-3.9c0.1,1.3,0.8,2.1,1.9,2.1c0.6,0,1-0.2,1.5-0.5
		l0.3,0.6c-0.5,0.3-1.1,0.6-1.9,0.6c-1.6,0-2.8-1.1-2.8-3S665.1,541.5,666.4,541.5z M667.9,544.1c0-1.2-0.5-1.8-1.4-1.8
		c-0.8,0-1.6,0.7-1.7,1.8H667.9z"/>
	<path fill="#FFFFFF" d="M674.9,541.5c1.4,0,2.7,1.1,2.7,3.1c0,1.9-1.3,3-2.7,3c-1.4,0-2.7-1.1-2.7-3
		C672.2,542.6,673.5,541.5,674.9,541.5z M674.9,546.8c1,0,1.7-0.9,1.7-2.2c0-1.3-0.7-2.3-1.7-2.3c-1,0-1.7,0.9-1.7,2.3
		C673.2,545.9,673.9,546.8,674.9,546.8z"/>
	<path fill="#FFFFFF" d="M679.1,541.7h0.8l0.1,0.8h0c0.6-0.6,1.2-1,2-1c1.2,0,1.8,0.8,1.8,2.3v3.7h-1v-3.6c0-1.1-0.3-1.6-1.1-1.6
		c-0.6,0-1,0.3-1.6,0.9v4.2h-1V541.7z"/>
	<path fill="#FFFFFF" d="M688.3,542.5h-0.9v-0.7l0.9-0.1l0.1-1.6h0.8v1.6h1.6v0.8h-1.6v3.2c0,0.7,0.2,1.1,0.9,1.1
		c0.2,0,0.5-0.1,0.7-0.2l0.2,0.7c-0.3,0.1-0.7,0.2-1.1,0.2c-1.2,0-1.7-0.8-1.7-1.9V542.5z"/>
	<path fill="#FFFFFF" d="M692.2,539h1v2.3l0,1.2c0.6-0.5,1.1-1,1.9-1c1.2,0,1.8,0.8,1.8,2.3v3.7h-1v-3.6c0-1.1-0.3-1.6-1.1-1.6
		c-0.6,0-1,0.3-1.6,0.9v4.2h-1V539z"/>
	<path fill="#FFFFFF" d="M700.9,541.5c1.5,0,2.3,1.1,2.3,2.7c0,0.2,0,0.4,0,0.5h-3.9c0.1,1.3,0.8,2.1,1.9,2.1c0.6,0,1-0.2,1.5-0.5
		l0.3,0.6c-0.5,0.3-1.1,0.6-1.9,0.6c-1.6,0-2.8-1.1-2.8-3S699.6,541.5,700.9,541.5z M702.4,544.1c0-1.2-0.5-1.8-1.4-1.8
		c-0.8,0-1.6,0.7-1.7,1.8H702.4z"/>
	<path fill="#FFFFFF" d="M707.1,539.6h2.4c1.7,0,2.9,0.6,2.9,2.3c0,1.7-1.2,2.4-2.9,2.4h-1.4v3.1h-1V539.6z M709.4,543.6
		c1.4,0,2-0.5,2-1.6c0-1.1-0.7-1.5-2-1.5h-1.3v3.1H709.4z"/>
	<path fill="#FFFFFF" d="M714,539.6h1v3.3h3.7v-3.3h1v7.9h-1v-3.7H715v3.7h-1V539.6z"/>
	<path fill="#FFFFFF" d="M724.9,539.5c1.1,0,1.8,0.5,2.3,1l-0.6,0.6c-0.4-0.4-0.9-0.7-1.7-0.7c-1.6,0-2.6,1.2-2.6,3.2
		c0,2,0.9,3.2,2.6,3.2c0.6,0,1.1-0.2,1.4-0.5v-2.1h-1.7v-0.8h2.6v3.3c-0.5,0.5-1.4,0.9-2.4,0.9c-2.1,0-3.5-1.5-3.5-4.1
		C721.3,541,722.8,539.5,724.9,539.5z"/>
	<path fill="#FFFFFF" d="M729.1,539.6h2.4c1.7,0,2.9,0.6,2.9,2.3c0,1.7-1.2,2.4-2.9,2.4h-1.4v3.1h-1V539.6z M731.4,543.6
		c1.4,0,2-0.5,2-1.6c0-1.1-0.7-1.5-2-1.5h-1.3v3.1H731.4z"/>
	<path fill="#FFFFFF" d="M735.1,546.1c0.4,0,0.7,0.3,0.7,0.8c0,0.4-0.3,0.7-0.7,0.7c-0.4,0-0.7-0.3-0.7-0.7
		C734.4,546.4,734.7,546.1,735.1,546.1z"/>
	<path fill="#FFFFFF" d="M738,540.5h-2.4v-0.8h5.8v0.8H739v7h-1V540.5z"/>
	<path fill="#FFFFFF" d="M741.6,539.6h1.1l1.3,4.2c0.3,0.9,0.5,1.7,0.8,2.6h0c0.3-0.9,0.5-1.7,0.8-2.6l1.3-4.2h1l-2.5,7.9h-1.2
		L741.6,539.6z"/>
	<path fill="#FFFFFF" d="M755.6,547.5l-1.9-3.3h-1.4v3.3h-1v-7.9h2.5c1.6,0,2.7,0.6,2.7,2.2c0,1.2-0.7,2-1.8,2.2l2,3.4H755.6z
		 M752.3,543.4h1.3c1.2,0,1.9-0.5,1.9-1.5c0-1-0.7-1.4-1.9-1.4h-1.3V543.4z"/>
	<path fill="#FFFFFF" d="M760.2,541.5c1.5,0,2.3,1.1,2.3,2.7c0,0.2,0,0.4,0,0.5h-3.9c0.1,1.3,0.8,2.1,1.9,2.1c0.6,0,1-0.2,1.5-0.5
		l0.3,0.6c-0.5,0.3-1.1,0.6-1.9,0.6c-1.6,0-2.8-1.1-2.8-3S758.8,541.5,760.2,541.5z M761.6,544.1c0-1.2-0.5-1.8-1.4-1.8
		c-0.8,0-1.6,0.7-1.7,1.8H761.6z"/>
	<path fill="#FFFFFF" d="M766.6,539.8c-0.2-0.1-0.4-0.1-0.7-0.1c-0.6,0-0.8,0.4-0.8,1.1v0.9h1.2v0.8h-1.2v5h-1v-5h-0.8v-0.7l0.8-0.1
		v-0.9c0-1.2,0.5-1.9,1.7-1.9c0.4,0,0.7,0.1,1,0.2L766.6,539.8z"/>
	<path fill="#FFFFFF" d="M767.4,539h1v7.4c0,0.3,0.1,0.4,0.3,0.4c0.1,0,0.1,0,0.2,0l0.1,0.7c-0.1,0.1-0.3,0.1-0.6,0.1
		c-0.7,0-1-0.5-1-1.3V539z"/>
	<path fill="#FFFFFF" d="M772.7,541.5c1.5,0,2.3,1.1,2.3,2.7c0,0.2,0,0.4,0,0.5H771c0.1,1.3,0.8,2.1,1.9,2.1c0.6,0,1-0.2,1.5-0.5
		l0.3,0.6c-0.5,0.3-1.1,0.6-1.9,0.6c-1.6,0-2.8-1.1-2.8-3S771.3,541.5,772.7,541.5z M774.1,544.1c0-1.2-0.5-1.8-1.4-1.8
		c-0.8,0-1.6,0.7-1.7,1.8H774.1z"/>
	<path fill="#FFFFFF" d="M777.5,544.4l-1.8-2.8h1.1l0.8,1.3c0.2,0.3,0.4,0.6,0.6,1h0c0.2-0.3,0.3-0.7,0.5-1l0.7-1.3h1l-1.8,2.9
		l1.9,2.9h-1.1l-0.9-1.4c-0.2-0.3-0.4-0.7-0.6-1h0c-0.2,0.3-0.4,0.7-0.6,1l-0.8,1.4h-1L777.5,544.4z"/>
	<path fill="#FFFFFF" d="M781.7,541.7h0.8l0.1,1.1h0c0.4-0.7,1-1.2,1.7-1.2c0.3,0,0.4,0,0.6,0.1l-0.2,0.9c-0.2-0.1-0.3-0.1-0.6-0.1
		c-0.5,0-1.1,0.4-1.5,1.3v3.7h-1V541.7z"/>
	<path fill="#FFFFFF" d="M785.8,541.7h1v3.6c0,1.1,0.3,1.6,1.1,1.6c0.6,0,1-0.3,1.6-1v-4.1h1v5.8h-0.8l-0.1-0.9h0
		c-0.5,0.6-1.1,1.1-1.9,1.1c-1.2,0-1.8-0.8-1.8-2.3V541.7z"/>
	<path fill="#FFFFFF" d="M792.4,541.7h0.8l0.1,0.8h0c0.6-0.6,1.2-1,2-1c1.2,0,1.8,0.8,1.8,2.3v3.7h-1v-3.6c0-1.1-0.3-1.6-1.1-1.6
		c-0.6,0-1,0.3-1.6,0.9v4.2h-1V541.7z"/>
	<path fill="#FFFFFF" d="M803.7,539h0.7l-3.2,10.4h-0.7L803.7,539z"/>
	<path fill="#FFFFFF" d="M808.1,539.6h1.2l1.5,4.2l0.6,1.6h0l0.6-1.6l1.5-4.2h1.2v7.9h-0.9v-4.3c0-0.7,0.1-1.6,0.1-2.3h0l-0.6,1.8
		l-1.5,4.1h-0.6l-1.5-4.1l-0.6-1.8h0c0,0.7,0.1,1.6,0.1,2.3v4.3h-0.9V539.6z"/>
	<path fill="#FFFFFF" d="M819,541.5c1.4,0,2.7,1.1,2.7,3.1c0,1.9-1.3,3-2.7,3c-1.4,0-2.7-1.1-2.7-3
		C816.3,542.6,817.5,541.5,819,541.5z M819,546.8c1,0,1.7-0.9,1.7-2.2c0-1.3-0.7-2.3-1.7-2.3c-1,0-1.7,0.9-1.7,2.3
		C817.3,545.9,818,546.8,819,546.8z"/>
	<path fill="#FFFFFF" d="M822.3,541.7h1l1.1,3.3c0.2,0.6,0.4,1.2,0.5,1.7h0c0.2-0.6,0.4-1.1,0.5-1.7l1.1-3.3h1l-2.1,5.8h-1.2
		L822.3,541.7z"/>
	<path fill="#FFFFFF" d="M830.9,541.5c1.5,0,2.3,1.1,2.3,2.7c0,0.2,0,0.4,0,0.5h-3.9c0.1,1.3,0.8,2.1,1.9,2.1c0.6,0,1-0.2,1.5-0.5
		l0.3,0.6c-0.5,0.3-1.1,0.6-1.9,0.6c-1.6,0-2.8-1.1-2.8-3S829.5,541.5,830.9,541.5z M832.3,544.1c0-1.2-0.5-1.8-1.4-1.8
		c-0.8,0-1.6,0.7-1.7,1.8H832.3z"/>
	<path fill="#FFFFFF" d="M834.6,541.7h0.8l0.1,0.8h0c0.5-0.6,1.1-1,1.8-1c0.9,0,1.4,0.4,1.6,1.1c0.6-0.7,1.2-1.1,1.9-1.1
		c1.2,0,1.8,0.8,1.8,2.3v3.7h-1v-3.6c0-1.1-0.3-1.6-1.1-1.6c-0.5,0-0.9,0.3-1.5,0.9v4.2h-1v-3.6c0-1.1-0.3-1.6-1.1-1.6
		c-0.4,0-0.9,0.3-1.5,0.9v4.2h-1V541.7z"/>
	<path fill="#FFFFFF" d="M846.8,541.5c1.5,0,2.3,1.1,2.3,2.7c0,0.2,0,0.4,0,0.5h-3.9c0.1,1.3,0.8,2.1,1.9,2.1c0.6,0,1-0.2,1.5-0.5
		l0.3,0.6c-0.5,0.3-1.1,0.6-1.9,0.6c-1.6,0-2.8-1.1-2.8-3S845.4,541.5,846.8,541.5z M848.2,544.1c0-1.2-0.5-1.8-1.4-1.8
		c-0.8,0-1.6,0.7-1.7,1.8H848.2z"/>
	<path fill="#FFFFFF" d="M850.5,541.7h0.8l0.1,0.8h0c0.6-0.6,1.2-1,2-1c1.2,0,1.8,0.8,1.8,2.3v3.7h-1v-3.6c0-1.1-0.3-1.6-1.1-1.6
		c-0.6,0-1,0.3-1.6,0.9v4.2h-1V541.7z"/>
	<path fill="#FFFFFF" d="M857.3,542.5h-0.9v-0.7l0.9-0.1l0.1-1.6h0.8v1.6h1.6v0.8h-1.6v3.2c0,0.7,0.2,1.1,0.9,1.1
		c0.2,0,0.5-0.1,0.7-0.2l0.2,0.7c-0.3,0.1-0.7,0.2-1.1,0.2c-1.2,0-1.7-0.8-1.7-1.9V542.5z"/>
	<path fill="#FFFFFF" d="M863.4,546.2c0.5,0.4,1,0.7,1.7,0.7c0.8,0,1.2-0.4,1.2-0.9c0-0.6-0.7-0.9-1.3-1.1c-0.8-0.3-1.7-0.7-1.7-1.7
		c0-0.9,0.7-1.7,2-1.7c0.7,0,1.4,0.3,1.8,0.7l-0.5,0.6c-0.4-0.3-0.8-0.5-1.3-0.5c-0.7,0-1.1,0.4-1.1,0.8c0,0.5,0.6,0.8,1.3,1
		c0.8,0.3,1.8,0.7,1.8,1.8c0,0.9-0.8,1.7-2.1,1.7c-0.8,0-1.6-0.3-2.2-0.8L863.4,546.2z"/>
	<path fill="#FFFFFF" d="M870.8,541.5c1.5,0,2.3,1.1,2.3,2.7c0,0.2,0,0.4,0,0.5h-3.9c0.1,1.3,0.8,2.1,1.9,2.1c0.6,0,1-0.2,1.5-0.5
		l0.3,0.6c-0.5,0.3-1.1,0.6-1.9,0.6c-1.6,0-2.8-1.1-2.8-3S869.5,541.5,870.8,541.5z M872.3,544.1c0-1.2-0.5-1.8-1.4-1.8
		c-0.8,0-1.6,0.7-1.7,1.8H872.3z"/>
	<path fill="#FFFFFF" d="M874.6,541.7h0.8l0.1,1.1h0c0.4-0.7,1-1.2,1.7-1.2c0.3,0,0.4,0,0.6,0.1l-0.2,0.9c-0.2-0.1-0.3-0.1-0.6-0.1
		c-0.5,0-1.1,0.4-1.5,1.3v3.7h-1V541.7z"/>
	<path fill="#FFFFFF" d="M878.1,541.7h1l1.1,3.3c0.2,0.6,0.4,1.2,0.5,1.7h0c0.2-0.6,0.4-1.1,0.5-1.7l1.1-3.3h1l-2.1,5.8h-1.2
		L878.1,541.7z"/>
	<path fill="#FFFFFF" d="M886.7,541.5c1.5,0,2.3,1.1,2.3,2.7c0,0.2,0,0.4,0,0.5h-3.9c0.1,1.3,0.8,2.1,1.9,2.1c0.6,0,1-0.2,1.5-0.5
		l0.3,0.6c-0.5,0.3-1.1,0.6-1.9,0.6c-1.6,0-2.8-1.1-2.8-3S885.4,541.5,886.7,541.5z M888.2,544.1c0-1.2-0.5-1.8-1.4-1.8
		c-0.8,0-1.6,0.7-1.7,1.8H888.2z"/>
	<path fill="#FFFFFF" d="M890.5,541.7h0.8l0.1,1.1h0c0.4-0.7,1-1.2,1.7-1.2c0.3,0,0.4,0,0.6,0.1l-0.2,0.9c-0.2-0.1-0.3-0.1-0.6-0.1
		c-0.5,0-1.1,0.4-1.5,1.3v3.7h-1V541.7z"/>
	<path fill="#FFFFFF" d="M894.5,546.1c0.4,0,0.7,0.3,0.7,0.8c0,0.4-0.3,0.7-0.7,0.7c-0.4,0-0.7-0.3-0.7-0.7
		C893.7,546.4,894.1,546.1,894.5,546.1z"/>
	<path fill="#FFFFFF" d="M460.9,553.9c0.9,0,1.7,0.5,2.1,1l-0.6,0.6c-0.4-0.4-0.9-0.7-1.6-0.7c-1.5,0-2.5,1.2-2.5,3.2
		c0,2,0.9,3.2,2.4,3.2c0.7,0,1.3-0.3,1.8-0.9l0.6,0.6c-0.6,0.7-1.4,1.1-2.4,1.1c-2,0-3.5-1.5-3.5-4.1
		C457.4,555.4,458.9,553.9,460.9,553.9z"/>
	<path fill="#FFFFFF" d="M464.6,553.4h1v2.3l0,1.2c0.6-0.5,1.1-1,1.9-1c1.2,0,1.8,0.8,1.8,2.3v3.7h-1v-3.6c0-1.1-0.3-1.6-1.1-1.6
		c-0.6,0-1,0.3-1.6,0.9v4.2h-1V553.4z"/>
	<path fill="#FFFFFF" d="M473.3,555.9c1.5,0,2.3,1.1,2.3,2.7c0,0.2,0,0.4,0,0.5h-3.9c0.1,1.3,0.8,2.1,1.9,2.1c0.6,0,1-0.2,1.5-0.5
		l0.3,0.6c-0.5,0.3-1.1,0.6-1.9,0.6c-1.6,0-2.8-1.1-2.8-3S472,555.9,473.3,555.9z M474.8,558.5c0-1.2-0.5-1.8-1.4-1.8
		c-0.8,0-1.6,0.7-1.7,1.8H474.8z"/>
	<path fill="#FFFFFF" d="M479.5,555.9c0.8,0,1.3,0.3,1.7,0.7l-0.5,0.6c-0.3-0.3-0.7-0.5-1.2-0.5c-1.1,0-1.8,0.9-1.8,2.3
		c0,1.3,0.7,2.2,1.8,2.2c0.6,0,1-0.3,1.4-0.6l0.4,0.6c-0.5,0.5-1.2,0.8-1.9,0.8c-1.5,0-2.7-1.1-2.7-3
		C476.6,557,478,555.9,479.5,555.9z"/>
	<path fill="#FFFFFF" d="M482.5,553.4h1v5.8h0l2.5-3.1h1.1l-2,2.3l2.2,3.5h-1.1l-1.7-2.8l-1.1,1.3v1.5h-1V553.4z"/>
	<path fill="#FFFFFF" d="M490.2,555.9h1.8l0.6,2.8c0.1,0.6,0.2,1.2,0.3,1.8h0c0.1-0.6,0.2-1.2,0.3-1.8l0.7-2.8h1.5l0.7,2.8
		c0.1,0.6,0.3,1.2,0.4,1.8h0c0.1-0.6,0.2-1.2,0.3-1.8l0.6-2.8h1.6l-1.4,5.9h-2.1l-0.5-2.4c-0.1-0.6-0.2-1.1-0.3-1.7h0
		c-0.1,0.6-0.2,1.2-0.3,1.7l-0.5,2.4h-2L490.2,555.9z"/>
	<path fill="#FFFFFF" d="M499.5,555.9h1.8l0.6,2.8c0.1,0.6,0.2,1.2,0.3,1.8h0c0.1-0.6,0.2-1.2,0.3-1.8l0.7-2.8h1.5l0.7,2.8
		c0.1,0.6,0.3,1.2,0.4,1.8h0c0.1-0.6,0.2-1.2,0.3-1.8l0.6-2.8h1.6l-1.4,5.9h-2.1l-0.5-2.4c-0.1-0.6-0.2-1.1-0.3-1.7h0
		c-0.1,0.6-0.2,1.2-0.3,1.7l-0.5,2.4h-2L499.5,555.9z"/>
	<path fill="#FFFFFF" d="M508.8,555.9h1.8l0.6,2.8c0.1,0.6,0.2,1.2,0.3,1.8h0c0.1-0.6,0.2-1.2,0.3-1.8l0.7-2.8h1.5l0.7,2.8
		c0.1,0.6,0.3,1.2,0.4,1.8h0c0.1-0.6,0.2-1.2,0.3-1.8l0.6-2.8h1.6l-1.4,5.9h-2.1l-0.5-2.4c-0.1-0.6-0.2-1.1-0.3-1.7h0
		c-0.1,0.6-0.2,1.2-0.3,1.7l-0.5,2.4h-2L508.8,555.9z"/>
	<path fill="#FFFFFF" d="M518.7,559.8c0.6,0,1.1,0.5,1.1,1.1c0,0.6-0.5,1.1-1.1,1.1c-0.6,0-1.1-0.5-1.1-1.1
		C517.6,560.3,518.1,559.8,518.7,559.8z"/>
	<path fill="#FFFFFF" d="M523,562.4v1.7h-1.8v-8.2h1.4l0.1,0.6h0c0.5-0.4,1.1-0.7,1.7-0.7c1.4,0,2.3,1.2,2.3,3c0,2-1.2,3.2-2.5,3.2
		c-0.5,0-1-0.2-1.4-0.6L523,562.4z M524,560.6c0.6,0,1.1-0.5,1.1-1.8c0-1.1-0.3-1.6-1-1.6c-0.4,0-0.7,0.2-1,0.5v2.4
		C523.3,560.5,523.7,560.6,524,560.6z"/>
	<path fill="#FFFFFF" d="M528.1,553.5h1.8v2.1l-0.1,1.1c0.4-0.4,1-0.8,1.8-0.8c1.3,0,1.8,0.9,1.8,2.4v3.7h-1.8v-3.5
		c0-0.9-0.2-1.1-0.7-1.1c-0.4,0-0.7,0.2-1.1,0.6v4h-1.8V553.5z"/>
	<path fill="#FFFFFF" d="M535.5,561.7L535.5,561.7c-0.3-0.3-0.6-0.6-0.6-1.1c0-0.4,0.3-0.9,0.7-1.1v0c-0.4-0.3-0.8-0.9-0.8-1.5
		c0-1.4,1.2-2.1,2.5-2.1c0.3,0,0.7,0,0.9,0.1h2.2v1.3h-0.9c0.1,0.2,0.2,0.5,0.2,0.8c0,1.4-1,2-2.3,2c-0.2,0-0.5,0-0.7-0.1
		c-0.2,0.1-0.2,0.2-0.2,0.4c0,0.3,0.2,0.4,0.9,0.4h1c1.5,0,2.3,0.4,2.3,1.5c0,1.2-1.3,2.1-3.3,2.1c-1.4,0-2.5-0.5-2.5-1.5
		C534.6,562.4,534.9,562,535.5,561.7z M537.4,563.3c0.8,0,1.4-0.3,1.4-0.7c0-0.4-0.3-0.5-0.9-0.5h-0.6c-0.4,0-0.6,0-0.8-0.1
		c-0.2,0.2-0.3,0.4-0.3,0.6C536.1,563.1,536.6,563.3,537.4,563.3z M538,557.9c0-0.6-0.3-1-0.8-1s-0.8,0.3-0.8,1c0,0.7,0.3,1,0.8,1
		S538,558.6,538,557.9z"/>
	<path fill="#FFFFFF" d="M543.1,562.4v1.7h-1.8v-8.2h1.4l0.1,0.6h0c0.5-0.4,1.1-0.7,1.7-0.7c1.4,0,2.3,1.2,2.3,3
		c0,2-1.2,3.2-2.5,3.2c-0.5,0-1-0.2-1.4-0.6L543.1,562.4z M544.1,560.6c0.6,0,1.1-0.5,1.1-1.8c0-1.1-0.3-1.6-1-1.6
		c-0.4,0-0.7,0.2-1,0.5v2.4C543.5,560.5,543.8,560.6,544.1,560.6z"/>
	<path fill="#FFFFFF" d="M549.2,559.8c0.6,0,1.1,0.5,1.1,1.1c0,0.6-0.5,1.1-1.1,1.1s-1.1-0.5-1.1-1.1
		C548.1,560.3,548.5,559.8,549.2,559.8z"/>
	<path fill="#FFFFFF" d="M551.7,557.3h-0.8V556l0.9-0.1l0.2-1.6h1.5v1.6h1.4v1.4h-1.4v2.4c0,0.7,0.3,0.9,0.8,0.9
		c0.2,0,0.4-0.1,0.6-0.1l0.3,1.3c-0.3,0.1-0.7,0.2-1.3,0.2c-1.5,0-2.1-0.9-2.1-2.3V557.3z"/>
	<path fill="#FFFFFF" d="M555.4,555.9h1.8l0.8,2.8c0.2,0.6,0.3,1.2,0.5,1.8h0c0.1-0.6,0.3-1.2,0.5-1.8l0.8-2.8h1.7l-1.9,5.9h-2
		L555.4,555.9z"/>
	<path fill="#FFFFFF" d="M567.6,554.2c-0.2-0.1-0.4-0.1-0.7-0.1c-0.6,0-0.8,0.4-0.8,1.1v0.9h1.2v0.8h-1.2v5h-1v-5h-0.8v-0.7l0.8-0.1
		v-0.9c0-1.2,0.5-1.9,1.7-1.9c0.4,0,0.7,0.1,1,0.2L567.6,554.2z"/>
	<path fill="#FFFFFF" d="M570.6,555.9c1.4,0,2.7,1.1,2.7,3.1c0,1.9-1.3,3-2.7,3c-1.4,0-2.7-1.1-2.7-3
		C567.9,557,569.2,555.9,570.6,555.9z M570.6,561.2c1,0,1.7-0.9,1.7-2.2c0-1.3-0.7-2.3-1.7-2.3c-1,0-1.7,0.9-1.7,2.3
		C568.9,560.3,569.6,561.2,570.6,561.2z"/>
	<path fill="#FFFFFF" d="M574.9,556.1h0.8l0.1,1.1h0c0.4-0.7,1-1.2,1.7-1.2c0.3,0,0.4,0,0.6,0.1l-0.2,0.9c-0.2-0.1-0.3-0.1-0.6-0.1
		c-0.5,0-1.1,0.4-1.5,1.3v3.7h-1V556.1z"/>
	<path fill="#FFFFFF" d="M581.5,556.1h0.8l0.1,0.8h0c0.5-0.6,1.1-1,1.8-1c0.9,0,1.4,0.4,1.6,1.1c0.6-0.7,1.2-1.1,1.9-1.1
		c1.2,0,1.8,0.8,1.8,2.3v3.7h-1v-3.6c0-1.1-0.3-1.6-1.1-1.6c-0.5,0-0.9,0.3-1.5,0.9v4.2h-1v-3.6c0-1.1-0.3-1.6-1.1-1.6
		c-0.4,0-0.9,0.3-1.5,0.9v4.2h-1V556.1z"/>
	<path fill="#FFFFFF" d="M593.7,555.9c1.4,0,2.7,1.1,2.7,3.1c0,1.9-1.3,3-2.7,3c-1.4,0-2.7-1.1-2.7-3
		C591,557,592.2,555.9,593.7,555.9z M593.7,561.2c1,0,1.7-0.9,1.7-2.2c0-1.3-0.7-2.3-1.7-2.3c-1,0-1.7,0.9-1.7,2.3
		C592,560.3,592.7,561.2,593.7,561.2z"/>
	<path fill="#FFFFFF" d="M597.9,556.1h0.8l0.1,1.1h0c0.4-0.7,1-1.2,1.7-1.2c0.3,0,0.4,0,0.6,0.1l-0.2,0.9c-0.2-0.1-0.3-0.1-0.6-0.1
		c-0.5,0-1.1,0.4-1.5,1.3v3.7h-1V556.1z"/>
	<path fill="#FFFFFF" d="M604.1,555.9c1.5,0,2.3,1.1,2.3,2.7c0,0.2,0,0.4,0,0.5h-3.9c0.1,1.3,0.8,2.1,1.9,2.1c0.6,0,1-0.2,1.5-0.5
		l0.3,0.6c-0.5,0.3-1.1,0.6-1.9,0.6c-1.6,0-2.8-1.1-2.8-3S602.8,555.9,604.1,555.9z M605.6,558.5c0-1.2-0.5-1.8-1.4-1.8
		c-0.8,0-1.6,0.7-1.7,1.8H605.6z"/>
	<path fill="#FFFFFF" d="M610.1,554.2c0-0.4,0.3-0.6,0.7-0.6s0.7,0.3,0.7,0.6c0,0.4-0.3,0.6-0.7,0.6S610.1,554.6,610.1,554.2z
		 M610.3,556.1h1v5.8h-1V556.1z"/>
	<path fill="#FFFFFF" d="M613.3,556.1h0.8l0.1,0.8h0c0.6-0.6,1.2-1,2-1c1.2,0,1.8,0.8,1.8,2.3v3.7h-1v-3.6c0-1.1-0.3-1.6-1.1-1.6
		c-0.6,0-1,0.3-1.6,0.9v4.2h-1V556.1z"/>
	<path fill="#FFFFFF" d="M622.5,554.2c-0.2-0.1-0.4-0.1-0.7-0.1c-0.6,0-0.8,0.4-0.8,1.1v0.9h1.2v0.8H621v5h-1v-5h-0.8v-0.7l0.8-0.1
		v-0.9c0-1.2,0.5-1.9,1.7-1.9c0.4,0,0.7,0.1,1,0.2L622.5,554.2z"/>
	<path fill="#FFFFFF" d="M625.5,555.9c1.4,0,2.7,1.1,2.7,3.1c0,1.9-1.3,3-2.7,3c-1.4,0-2.7-1.1-2.7-3
		C622.8,557,624.1,555.9,625.5,555.9z M625.5,561.2c1,0,1.7-0.9,1.7-2.2c0-1.3-0.7-2.3-1.7-2.3c-1,0-1.7,0.9-1.7,2.3
		C623.8,560.3,624.5,561.2,625.5,561.2z"/>
	<path fill="#FFFFFF" d="M629.7,556.1h0.8l0.1,1.1h0c0.4-0.7,1-1.2,1.7-1.2c0.3,0,0.4,0,0.6,0.1l-0.2,0.9c-0.2-0.1-0.3-0.1-0.6-0.1
		c-0.5,0-1.1,0.4-1.5,1.3v3.7h-1V556.1z"/>
	<path fill="#FFFFFF" d="M633.9,556.1h0.8l0.1,0.8h0c0.5-0.6,1.1-1,1.8-1c0.9,0,1.4,0.4,1.6,1.1c0.6-0.7,1.2-1.1,1.9-1.1
		c1.2,0,1.8,0.8,1.8,2.3v3.7h-1v-3.6c0-1.1-0.3-1.6-1.1-1.6c-0.5,0-0.9,0.3-1.5,0.9v4.2h-1v-3.6c0-1.1-0.3-1.6-1.1-1.6
		c-0.4,0-0.9,0.3-1.5,0.9v4.2h-1V556.1z"/>
	<path fill="#FFFFFF" d="M647.1,558.2c0-0.7-0.3-1.5-1.2-1.5c-0.7,0-1.3,0.3-1.7,0.6l-0.4-0.7c0.5-0.3,1.4-0.8,2.3-0.8
		c1.4,0,2,0.9,2,2.4v3.6h-0.8l-0.1-0.7h0c-0.6,0.5-1.2,0.8-1.9,0.8c-1,0-1.7-0.6-1.7-1.7C643.5,559.1,644.7,558.5,647.1,558.2z
		 M645.5,561.2c0.6,0,1-0.3,1.6-0.8v-1.6c-2,0.2-2.6,0.7-2.6,1.5C644.5,561,645,561.2,645.5,561.2z"/>
	<path fill="#FFFFFF" d="M650.1,556.9h-0.9v-0.7l0.9-0.1l0.1-1.6h0.8v1.6h1.6v0.8h-1.6v3.2c0,0.7,0.2,1.1,0.9,1.1
		c0.2,0,0.5-0.1,0.7-0.2l0.2,0.7c-0.3,0.1-0.7,0.2-1.1,0.2c-1.2,0-1.7-0.8-1.7-1.9V556.9z"/>
	<path fill="#FFFFFF" d="M653.9,554.2c0-0.4,0.3-0.6,0.7-0.6s0.7,0.3,0.7,0.6c0,0.4-0.3,0.6-0.7,0.6S653.9,554.6,653.9,554.2z
		 M654,556.1h1v5.8h-1V556.1z"/>
	<path fill="#FFFFFF" d="M659.3,555.9c1.4,0,2.7,1.1,2.7,3.1c0,1.9-1.3,3-2.7,3c-1.4,0-2.7-1.1-2.7-3
		C656.6,557,657.8,555.9,659.3,555.9z M659.3,561.2c1,0,1.7-0.9,1.7-2.2c0-1.3-0.7-2.3-1.7-2.3c-1,0-1.7,0.9-1.7,2.3
		C657.6,560.3,658.3,561.2,659.3,561.2z"/>
	<path fill="#FFFFFF" d="M663.5,556.1h0.8l0.1,0.8h0c0.6-0.6,1.2-1,2-1c1.2,0,1.8,0.8,1.8,2.3v3.7h-1v-3.6c0-1.1-0.3-1.6-1.1-1.6
		c-0.6,0-1,0.3-1.6,0.9v4.2h-1V556.1z"/>
	<path fill="#FFFFFF" d="M669.6,563.4c0.7-0.3,1.1-0.8,1.1-1.5c0,0-0.1,0-0.1,0c-0.4,0-0.7-0.2-0.7-0.7c0-0.4,0.3-0.7,0.7-0.7
		c0.5,0,0.8,0.4,0.8,1.2c0,1-0.6,1.8-1.6,2.2L669.6,563.4z"/>
	<path fill="#FFFFFF" d="M675.6,556.9h-0.9v-0.7l0.9-0.1l0.1-1.6h0.8v1.6h1.6v0.8h-1.6v3.2c0,0.7,0.2,1.1,0.9,1.1
		c0.2,0,0.5-0.1,0.7-0.2l0.2,0.7c-0.3,0.1-0.7,0.2-1.1,0.2c-1.2,0-1.7-0.8-1.7-1.9V556.9z"/>
	<path fill="#FFFFFF" d="M679.4,556.1h1v3.6c0,1.1,0.3,1.6,1.1,1.6c0.6,0,1-0.3,1.6-1v-4.1h1v5.8h-0.8l-0.1-0.9h0
		c-0.5,0.6-1.1,1.1-1.9,1.1c-1.2,0-1.8-0.8-1.8-2.3V556.1z"/>
	<path fill="#FFFFFF" d="M686.1,556.9h-0.9v-0.7l0.9-0.1l0.1-1.6h0.8v1.6h1.6v0.8h-1.6v3.2c0,0.7,0.2,1.1,0.9,1.1
		c0.2,0,0.5-0.1,0.7-0.2l0.2,0.7c-0.3,0.1-0.7,0.2-1.1,0.2c-1.2,0-1.7-0.8-1.7-1.9V556.9z"/>
	<path fill="#FFFFFF" d="M692.2,555.9c1.4,0,2.7,1.1,2.7,3.1c0,1.9-1.3,3-2.7,3c-1.4,0-2.7-1.1-2.7-3
		C689.5,557,690.8,555.9,692.2,555.9z M692.2,561.2c1,0,1.7-0.9,1.7-2.2c0-1.3-0.7-2.3-1.7-2.3c-1,0-1.7,0.9-1.7,2.3
		C690.5,560.3,691.2,561.2,692.2,561.2z"/>
	<path fill="#FFFFFF" d="M696.4,556.1h0.8l0.1,1.1h0c0.4-0.7,1-1.2,1.7-1.2c0.3,0,0.4,0,0.6,0.1l-0.2,0.9c-0.2-0.1-0.3-0.1-0.6-0.1
		c-0.5,0-1.1,0.4-1.5,1.3v3.7h-1V556.1z"/>
	<path fill="#FFFFFF" d="M700.4,554.2c0-0.4,0.3-0.6,0.7-0.6s0.7,0.3,0.7,0.6c0,0.4-0.3,0.6-0.7,0.6S700.4,554.6,700.4,554.2z
		 M700.6,556.1h1v5.8h-1V556.1z"/>
	<path fill="#FFFFFF" d="M706.8,558.2c0-0.7-0.3-1.5-1.2-1.5c-0.7,0-1.3,0.3-1.7,0.6l-0.4-0.7c0.5-0.3,1.4-0.8,2.3-0.8
		c1.4,0,2,0.9,2,2.4v3.6H707l-0.1-0.7h0c-0.6,0.5-1.2,0.8-1.9,0.8c-1,0-1.7-0.6-1.7-1.7C703.2,559.1,704.4,558.5,706.8,558.2z
		 M705.2,561.2c0.6,0,1-0.3,1.6-0.8v-1.6c-2,0.2-2.6,0.7-2.6,1.5C704.2,561,704.7,561.2,705.2,561.2z"/>
	<path fill="#FFFFFF" d="M709.7,553.4h1v7.4c0,0.3,0.1,0.4,0.3,0.4c0.1,0,0.1,0,0.2,0l0.1,0.7c-0.1,0.1-0.3,0.1-0.6,0.1
		c-0.7,0-1-0.5-1-1.3V553.4z"/>
	<path fill="#FFFFFF" d="M712.6,560.6c0.5,0.4,1,0.7,1.7,0.7c0.8,0,1.2-0.4,1.2-0.9c0-0.6-0.7-0.9-1.3-1.1c-0.8-0.3-1.7-0.7-1.7-1.7
		c0-0.9,0.7-1.7,2-1.7c0.7,0,1.4,0.3,1.8,0.7l-0.5,0.6c-0.4-0.3-0.8-0.5-1.3-0.5c-0.7,0-1.1,0.4-1.1,0.8c0,0.5,0.6,0.8,1.3,1
		c0.8,0.3,1.8,0.7,1.8,1.8c0,0.9-0.8,1.7-2.1,1.7c-0.8,0-1.6-0.3-2.2-0.8L712.6,560.6z"/>
	<path fill="#FFFFFF" d="M717.3,563.4c0.7-0.3,1.1-0.8,1.1-1.5c0,0-0.1,0-0.1,0c-0.4,0-0.7-0.2-0.7-0.7c0-0.4,0.3-0.7,0.7-0.7
		c0.5,0,0.8,0.4,0.8,1.2c0,1-0.6,1.8-1.6,2.2L717.3,563.4z"/>
	<path fill="#FFFFFF" d="M726.5,558.2c0-0.7-0.3-1.5-1.2-1.5c-0.7,0-1.3,0.3-1.7,0.6l-0.4-0.7c0.5-0.3,1.4-0.8,2.3-0.8
		c1.4,0,2,0.9,2,2.4v3.6h-0.8l-0.1-0.7h0c-0.6,0.5-1.2,0.8-1.9,0.8c-1,0-1.7-0.6-1.7-1.7C722.9,559.1,724,558.5,726.5,558.2z
		 M724.9,561.2c0.6,0,1-0.3,1.6-0.8v-1.6c-2,0.2-2.6,0.7-2.6,1.5C723.9,561,724.3,561.2,724.9,561.2z"/>
	<path fill="#FFFFFF" d="M729.3,556.1h0.8l0.1,0.8h0c0.6-0.6,1.2-1,2-1c1.2,0,1.8,0.8,1.8,2.3v3.7h-1v-3.6c0-1.1-0.3-1.6-1.1-1.6
		c-0.6,0-1,0.3-1.6,0.9v4.2h-1V556.1z"/>
	<path fill="#FFFFFF" d="M738,555.9c0.7,0,1.1,0.3,1.6,0.7l0-1v-2.2h1v8.5h-0.8l-0.1-0.7h0c-0.5,0.4-1.1,0.8-1.8,0.8
		c-1.5,0-2.4-1.1-2.4-3C735.5,557.1,736.7,555.9,738,555.9z M738.1,561.2c0.5,0,1-0.3,1.5-0.8v-3c-0.5-0.4-0.9-0.6-1.4-0.6
		c-0.9,0-1.7,0.9-1.7,2.2C736.5,560.4,737.1,561.2,738.1,561.2z"/>
	<path fill="#FFFFFF" d="M744.9,556.1h1v3.6c0,1.1,0.3,1.6,1.1,1.6c0.6,0,1-0.3,1.6-1v-4.1h1v5.8h-0.8l-0.1-0.9h0
		c-0.5,0.6-1.1,1.1-1.9,1.1c-1.2,0-1.8-0.8-1.8-2.3V556.1z"/>
	<path fill="#FFFFFF" d="M752.5,562.4v2h-1v-8.3h0.8l0.1,0.7h0c0.5-0.4,1.2-0.8,1.9-0.8c1.5,0,2.3,1.2,2.3,3c0,2-1.2,3.1-2.5,3.1
		c-0.5,0-1.1-0.3-1.6-0.7L752.5,562.4z M753.9,561.2c1,0,1.7-0.9,1.7-2.3c0-1.3-0.4-2.1-1.5-2.1c-0.5,0-1,0.3-1.6,0.8v3.1
		C753,561,753.5,561.2,753.9,561.2z"/>
	<path fill="#FFFFFF" d="M760.3,555.9c0.7,0,1.1,0.3,1.6,0.7l0-1v-2.2h1v8.5H762l-0.1-0.7h0c-0.5,0.4-1.1,0.8-1.8,0.8
		c-1.5,0-2.4-1.1-2.4-3C757.7,557.1,758.9,555.9,760.3,555.9z M760.4,561.2c0.5,0,1-0.3,1.5-0.8v-3c-0.5-0.4-0.9-0.6-1.4-0.6
		c-0.9,0-1.7,0.9-1.7,2.2C758.8,560.4,759.3,561.2,760.4,561.2z"/>
	<path fill="#FFFFFF" d="M768.1,558.2c0-0.7-0.3-1.5-1.2-1.5c-0.7,0-1.3,0.3-1.7,0.6l-0.4-0.7c0.5-0.3,1.4-0.8,2.3-0.8
		c1.4,0,2,0.9,2,2.4v3.6h-0.8l-0.1-0.7h0c-0.6,0.5-1.2,0.8-1.9,0.8c-1,0-1.7-0.6-1.7-1.7C764.5,559.1,765.6,558.5,768.1,558.2z
		 M766.5,561.2c0.6,0,1-0.3,1.6-0.8v-1.6c-2,0.2-2.6,0.7-2.6,1.5C765.5,561,765.9,561.2,766.5,561.2z"/>
	<path fill="#FFFFFF" d="M771.1,556.9h-0.9v-0.7l0.9-0.1l0.1-1.6h0.8v1.6h1.6v0.8h-1.6v3.2c0,0.7,0.2,1.1,0.9,1.1
		c0.2,0,0.5-0.1,0.7-0.2l0.2,0.7c-0.3,0.1-0.7,0.2-1.1,0.2c-1.2,0-1.7-0.8-1.7-1.9V556.9z"/>
	<path fill="#FFFFFF" d="M777.1,555.9c1.5,0,2.3,1.1,2.3,2.7c0,0.2,0,0.4,0,0.5h-3.9c0.1,1.3,0.8,2.1,1.9,2.1c0.6,0,1-0.2,1.5-0.5
		l0.3,0.6c-0.5,0.3-1.1,0.6-1.9,0.6c-1.6,0-2.8-1.1-2.8-3S775.8,555.9,777.1,555.9z M778.5,558.5c0-1.2-0.5-1.8-1.4-1.8
		c-0.8,0-1.6,0.7-1.7,1.8H778.5z"/>
	<path fill="#FFFFFF" d="M780.7,560.6c0.5,0.4,1,0.7,1.7,0.7c0.8,0,1.2-0.4,1.2-0.9c0-0.6-0.7-0.9-1.3-1.1c-0.8-0.3-1.7-0.7-1.7-1.7
		c0-0.9,0.7-1.7,2-1.7c0.7,0,1.4,0.3,1.8,0.7l-0.5,0.6c-0.4-0.3-0.8-0.5-1.3-0.5c-0.7,0-1.1,0.4-1.1,0.8c0,0.5,0.6,0.8,1.3,1
		c0.8,0.3,1.8,0.7,1.8,1.8c0,0.9-0.8,1.7-2.1,1.7c-0.8,0-1.6-0.3-2.2-0.8L780.7,560.6z"/>
	<path fill="#FFFFFF" d="M786.6,560.5c0.4,0,0.7,0.3,0.7,0.8c0,0.4-0.3,0.7-0.7,0.7c-0.4,0-0.7-0.3-0.7-0.7
		C785.9,560.8,786.2,560.5,786.6,560.5z M786.2,555l0-1.1h1l0,1.1l-0.1,4.5h-0.7L786.2,555z"/>
</g>
<g>
	<path fill="#FFFFFF" d="M374.1,215v63h-63v-63H374.1z M351.4,264h8.6l-12.4-14h12.4v-21h-35v35h7v-14h7L351.4,264z M353.1,236v7
		h-21v-7H353.1z"/>
	<path fill="#FFFFFF" d="M444.1,215v63h-63v-63H444.1z M395.1,264h35v-7h-28v-21h28v-7h-35V264z M405.6,250h24.5v-7h-24.5V250z"/>
	<path fill="#FFFFFF" d="M514.1,215v63h-63v-63H514.1z M465.1,264h7v-14h28v-7h-28v-7h28v-7h-35V264z"/>
	<path fill="#FFFFFF" d="M584.1,215v63h-63v-63H584.1z M535.1,264h35v-7h-28v-28h-7V264z"/>
	<path fill="#FFFFFF" d="M654.1,215v63h-63v-63H654.1z M605.1,264h35v-7h-28v-21h28v-7h-35V264z M615.6,250h24.5v-7h-24.5V250z"/>
	<path fill="#FFFFFF" d="M724.1,215v63h-63v-63H724.1z M675.1,264h8.8l8.8-11.7l8.8,11.7h8.8L697,246.5l13.1-17.5h-8.8l-8.8,11.7
		l-8.8-11.7h-8.8l13.1,17.5L675.1,264z"/>
	<path fill="#FFFFFF" d="M794.1,215v63h-63v-63H794.1z M771.5,264h8.6l-12.4-14h12.4v-21h-35v35h7v-14h7L771.5,264z M773.1,236v7
		h-21v-7H773.1z"/>
	<path fill="#FFFFFF" d="M864.1,215v63h-63v-63H864.1z M815.1,229v35h35v-35h-7v28h-21v-28H815.1z"/>
	<path fill="#FFFFFF" d="M934.1,215v63h-63v-63H934.1z M892.1,264v-24.1l21,24.1h7v-35h-7v24.8l-21-24.8h-7v35H892.1z"/>
</g>
<g>
	<g>
		<path fill="#FFFFFF" d="M645.3,390l1.8-2.4c1-1.3,0.7-3-0.5-4l-4.7-3.5c-1.3-1-3-0.7-4,0.5l-1.8,2.4c3,1.5,5.6,3.4,8,5.7
			C644.5,389.1,644.9,389.5,645.3,390z"/>
		<path fill="#FFFFFF" d="M622.6,379.8c1.3,0,2.5,0.1,3.7,0.2v-3.3h2.2c1.6,0,2.8-1.3,2.8-2.8v-1.4c0-1.6-1.3-2.8-2.8-2.8h-12
			c-1.6,0-2.8,1.3-2.8,2.8v1.4c0,1.6,1.3,2.8,2.8,2.8h2.2v3.3C620.1,379.9,621.3,379.8,622.6,379.8z"/>
		<path fill="#005A96" d="M622.6,438.7c15.7,0,28.4-12.7,28.4-28.4c0-7.1-2.6-13.7-7-18.6c-2.5-2.9-5.7-5.3-9.2-7
			c-2.6-1.3-5.5-2.1-8.6-2.5c-1.2-0.2-2.5-0.2-3.7-0.2c-1.3,0-2.5,0.1-3.7,0.2c-13.9,1.8-24.7,13.8-24.7,28.2
			C594.2,425.9,606.9,438.7,622.6,438.7z M630.4,390.5c3.7,1.5,6.8,3.9,9.2,7c2.1,2.8,3.5,6.1,4,9.7c0.1,1,0.2,2.1,0.2,3.1h-14h-7.3
			h-0.1v-0.1v-9.2V389c0,0,0.1,0,0.1,0c1,0,2,0.1,3,0.2C627.3,389.4,628.9,389.8,630.4,390.5z"/>
	</g>
</g>
<g>
	<path fill="#005A96" d="M599.7,587.2h-5.1l0.2-1.1h1.7l1.1-7.9h-2.2l-1.6,11.2h-3.4l1.7-12.4h9L599.7,587.2z"/>
	<path fill="#005A96" d="M609.9,587.2h-3.4l1.3-9h-2.2l-1.3,9h-3.4l1.7-12.3h3.4l-0.3,2.2h5.6L609.9,587.2z"/>
	<path fill="#FFFFFF" d="M619.8,589.4h-9l0.2-1.1h5.6l1.4-10.1h-2.2l-1.1,7.9h1.7l-0.2,1.1h-5.1l1.4-10.1h9L619.8,589.4z"/>
	<path fill="#FFFFFF" d="M630.3,587.2h-5.1l0.2-1.1h1.7l1.1-7.9H626l-1.6,11.2H621l1.7-12.4h9L630.3,587.2z"/>
	<path fill="#005A96" d="M633.9,587.2h-2.8l0.4-2.8h2.8L633.9,587.2z"/>
	<path fill="#FFFFFF" d="M643.5,587.2h-9l1.7-12.3h3.4l-0.3,2.2h5.6l-0.2,1.1h-5.6l-1.1,7.9h2.2l0.4-2.8h3.4L643.5,587.2z"/>
	<path fill="#FFFFFF" d="M654.6,578.2l-3.4,9h-4.7l-0.9-9l0.2-1.1h3.4l-0.1,0.7l0.5,4.7l1.8-4.7l0.1-0.7h3.4L654.6,578.2z"/>
</g>
</svg>
