<?xml version="1.0" encoding="utf-8"?>
<!-- Generator: Adobe Illustrator 18.1.1, SVG Export Plug-In . SVG Version: 6.00 Build 0)  -->
<svg version="1.1" id="Layer_1" xmlns="http://www.w3.org/2000/svg" xmlns:xlink="http://www.w3.org/1999/xlink" x="0px" y="0px"
	 viewBox="0 0 500 500" enable-background="new 0 0 500 500" xml:space="preserve">
<circle fill="#3D3D3B" cx="249.3" cy="250.5" r="248.8"/>
<circle fill="#010202" cx="249.3" cy="250.5" r="223.1"/>
<g>
	<g id="_x33_6_24_">
		<g>
			<path fill="#015B97" d="M193.7,170.6h89.5c2.4,0,4.3-1.9,4.3-4.3s-1.9-4.3-4.3-4.3h-89.5c-2.4,0-4.3,1.9-4.3,4.3
				S191.4,170.6,193.7,170.6z"/>
			<path fill="#015B97" d="M113.6,212.2h89.5c2.4,0,4.3-1.9,4.3-4.3c0-2.4-1.9-4.3-4.3-4.3h-89.5c-2.4,0-4.3,1.9-4.3,4.3
				C109.4,210.3,111.3,212.2,113.6,212.2z"/>
			<path fill="#015B97" d="M137.7,256.1c0,2.4,1.9,4.3,4.3,4.3h89.5c2.4,0,4.3-1.9,4.3-4.3s-1.9-4.3-4.3-4.3h-89.5
				C139.6,251.8,137.7,253.7,137.7,256.1z"/>
			<path fill="#015B97" d="M188.9,305.6h-80.5c-2.4,0-4.3,1.9-4.3,4.3s1.9,4.3,4.3,4.3h80.5c2.4,0,4.3-1.9,4.3-4.3
				S191.3,305.6,188.9,305.6z"/>
			<path fill="#FFFFFF" d="M333.7,197.3c12.9,0,23.3-10.4,23.3-23.3s-10.4-23.3-23.3-23.3c-12.9,0-23.3,10.4-23.3,23.3
				C310.4,186.9,320.9,197.3,333.7,197.3z"/>
			<path fill="#FFFFFF" d="M372,190.6c-13.4,18.7-31.3,20.9-50.5,9.5c-1.3-0.8-7.1-4-8.4-4.7c-31-18.4-61.9-11.2-82.7,17.9
				c-8.8,12.4,11.6,24.1,20.3,11.9c10.7-15,24.4-19.4,39.3-14.6c-7.6,13.2-14.3,26.4-23.7,45.1c-9.4,18.7-30.2,33.7-50.2,22
				c-14.4-8.4-27.4,12.3-13,20.7c27.3,15.9,59.3,6.2,75.6-14.6c0.6,0.3,1.2,0.6,1.8,0.8c13.3,4.6,30.8,17,36.2,21.4
				c5.3,4.4,14.5,26.7,19.9,38c6.6,13.6,27.9,3.7,21.3-10c-6.2-12.7-16.5-38.2-24.6-44.6c-6.5-5.2-19-14.8-29.7-20.2
				c7.2-14,14.7-27.8,22.6-41.3c25.2,7.7,49.1-1.4,66.2-25.3C401.1,190.1,380.7,178.4,372,190.6z"/>
		</g>
	</g>
</g>
</svg>
