<?xml version="1.0" encoding="utf-8"?>
<!-- Generator: Adobe Illustrator 18.1.1, SVG Export Plug-In . SVG Version: 6.00 Build 0)  -->
<svg version="1.1" id="Layer_1" xmlns="http://www.w3.org/2000/svg" xmlns:xlink="http://www.w3.org/1999/xlink" x="0px" y="0px"
	 viewBox="0 0 1280 720" enable-background="new 0 0 1280 720" xml:space="preserve">
<rect x="117.5" y="111.1" opacity="0.9" stroke="#000000" stroke-miterlimit="10" width="1045" height="498"/>
<g>
	<path fill="#FFFFFF" d="M551.9,160.3v7.5h1.9v-7.5h1.9v7.5h1.9v-7.5h1.9v9.4H550v-9.4H551.9z"/>
	<path fill="#FFFFFF" d="M568.7,160.3h9.4v1.9h-7.5v5.6h7.5v1.9h-9.4V160.3z M571.5,164.1h6.6v1.9h-6.6V164.1z"/>
	<path fill="#FFFFFF" d="M587.5,160.3h1.9v7.5h7.5v1.9h-9.4V160.3z"/>
	<path fill="#FFFFFF" d="M606.2,160.3h9.4v1.9h-7.5v5.6h7.5v1.9h-9.4V160.3z"/>
	<path fill="#FFFFFF" d="M625,169.7v-9.4h9.4v9.4H625z M632.5,167.8v-5.6h-5.6v5.6H632.5z"/>
	<path fill="#FFFFFF" d="M643.7,169.7v-9.4h9.4v9.4h-1.9v-7.5h-1.9v7.5h-1.9v-7.5h-1.9v7.5H643.7z"/>
	<path fill="#FFFFFF" d="M662.5,160.3h9.4v1.9h-7.5v5.6h7.5v1.9h-9.4V160.3z M665.3,164.1h6.6v1.9h-6.6V164.1z"/>
	<path fill="#FFFFFF" d="M700,160.3h9.4v1.9h-3.8v7.5h-1.9v-7.5H700V160.3z"/>
	<path fill="#FFFFFF" d="M718.7,169.7v-9.4h9.4v9.4H718.7z M726.2,167.8v-5.6h-5.6v5.6H726.2z"/>
</g>
<g>
	<path fill="#FFFFFF" d="M607.6,276.1h1.9l0.9,3.6c0.2,0.9,0.4,1.6,0.6,2.5h0c0.2-0.9,0.4-1.7,0.6-2.5l0.9-3.6h1.8l-2.4,7.8H610
		L607.6,276.1z"/>
	<path fill="#FFFFFF" d="M617.4,277.9c1.7,0,2.5,1.2,2.5,2.9c0,0.3,0,0.6-0.1,0.7h-3.6c0.2,0.9,0.8,1.3,1.5,1.3
		c0.4,0,0.9-0.1,1.3-0.4l0.6,1.1c-0.6,0.4-1.4,0.7-2.1,0.7c-1.7,0-3-1.2-3-3.1C614.6,279.1,615.9,277.9,617.4,277.9z M618.4,280.4
		c0-0.7-0.3-1.2-1-1.2c-0.6,0-1,0.4-1.2,1.2H618.4z"/>
	<path fill="#FFFFFF" d="M621.1,278h1.4l0.1,1h0c0.4-0.8,1.1-1.2,1.7-1.2c0.3,0,0.5,0,0.7,0.1l-0.3,1.5c-0.2-0.1-0.4-0.1-0.6-0.1
		c-0.4,0-1,0.3-1.3,1.1v3.5h-1.8V278z"/>
	<path fill="#FFFFFF" d="M626,282.2c0.5,0.4,1,0.6,1.5,0.6c0.5,0,0.8-0.2,0.8-0.5c0-0.4-0.6-0.6-1.2-0.8c-0.7-0.3-1.6-0.8-1.6-1.8
		c0-1.1,0.9-1.9,2.3-1.9c0.9,0,1.6,0.4,2.1,0.8l-0.8,1.1c-0.4-0.3-0.8-0.5-1.3-0.5c-0.5,0-0.7,0.2-0.7,0.5c0,0.4,0.6,0.5,1.2,0.8
		c0.8,0.3,1.6,0.7,1.6,1.8c0,1.1-0.9,1.9-2.4,1.9c-0.8,0-1.7-0.3-2.3-0.8L626,282.2z"/>
	<path fill="#FFFFFF" d="M631,276.2c0-0.5,0.4-0.9,1-0.9c0.6,0,1,0.4,1,0.9c0,0.5-0.4,0.9-1,0.9C631.4,277.1,631,276.8,631,276.2z
		 M631.1,278h1.8v5.9h-1.8V278z"/>
	<path fill="#FFFFFF" d="M637,277.9c1.5,0,2.9,1.1,2.9,3.1c0,2-1.4,3.1-2.9,3.1c-1.5,0-2.9-1.1-2.9-3.1
		C634.1,279,635.5,277.9,637,277.9z M637,282.7c0.7,0,1.1-0.7,1.1-1.7s-0.4-1.7-1.1-1.7c-0.7,0-1.1,0.7-1.1,1.7
		S636.2,282.7,637,282.7z"/>
	<path fill="#FFFFFF" d="M641.1,278h1.4l0.1,0.8h0c0.5-0.5,1.1-0.9,1.9-0.9c1.3,0,1.8,0.9,1.8,2.4v3.7h-1.8v-3.5
		c0-0.9-0.2-1.1-0.7-1.1c-0.4,0-0.7,0.2-1.1,0.6v4h-1.8V278z"/>
	<path fill="#FFFFFF" d="M650.1,280.1c0-2.6,1.1-3.9,2.7-3.9c1.6,0,2.7,1.3,2.7,3.9s-1.1,4-2.7,4
		C651.2,284.1,650.1,282.7,650.1,280.1z M653.9,280.1c0-2.1-0.5-2.6-1.1-2.6c-0.6,0-1.1,0.5-1.1,2.6c0,2.1,0.5,2.6,1.1,2.6
		C653.4,282.7,653.9,282.2,653.9,280.1z"/>
	<path fill="#FFFFFF" d="M657.8,281.9c0.6,0,1.1,0.5,1.1,1.1c0,0.6-0.5,1.1-1.1,1.1c-0.6,0-1.1-0.5-1.1-1.1
		C656.7,282.4,657.2,281.9,657.8,281.9z"/>
	<path fill="#FFFFFF" d="M661.4,280.2L661.4,280.2c-0.6-0.5-1-1-1-1.8c0-1.3,1-2.1,2.4-2.1c1.4,0,2.3,0.8,2.3,2.1
		c0,0.7-0.5,1.3-1,1.7v0c0.7,0.4,1.3,1,1.3,2c0,1.2-1.1,2.1-2.7,2.1c-1.5,0-2.7-0.9-2.7-2.1C660.1,281.1,660.7,280.5,661.4,280.2z
		 M662.8,282.9c0.6,0,1-0.3,1-0.9c0-0.7-0.6-0.9-1.6-1.3c-0.3,0.3-0.6,0.7-0.6,1.2C661.6,282.5,662.1,282.9,662.8,282.9z
		 M663.7,278.4c0-0.6-0.3-1-0.9-1c-0.5,0-0.9,0.3-0.9,0.9c0,0.6,0.5,0.9,1.3,1.2C663.5,279.2,663.7,278.8,663.7,278.4z"/>
	<path fill="#FFFFFF" d="M666.4,283c1.9-1.8,3.3-3.1,3.3-4.2c0-0.7-0.4-1.2-1.1-1.2c-0.6,0-1,0.4-1.4,0.8l-1-0.9
		c0.8-0.8,1.5-1.2,2.6-1.2c1.5,0,2.5,1,2.5,2.4c0,1.3-1.2,2.7-2.4,3.9c0.4,0,0.9-0.1,1.3-0.1h1.5v1.5h-5.4V283z"/>
	<path fill="#FFFFFF" d="M578.3,292.4c0.8,0,1.3,0.3,1.7,0.7l-0.5,0.6c-0.3-0.3-0.7-0.5-1.2-0.5c-1.1,0-1.8,0.9-1.8,2.3
		c0,1.3,0.7,2.2,1.8,2.2c0.6,0,1-0.3,1.4-0.6l0.4,0.6c-0.5,0.5-1.2,0.8-1.9,0.8c-1.5,0-2.7-1.1-2.7-3
		C575.5,293.5,576.8,292.4,578.3,292.4z"/>
	<path fill="#FFFFFF" d="M581.4,292.5h0.8l0.1,1.1h0c0.4-0.7,1-1.2,1.7-1.2c0.3,0,0.4,0,0.6,0.1l-0.2,0.9c-0.2-0.1-0.3-0.1-0.6-0.1
		c-0.5,0-1.1,0.4-1.5,1.3v3.7h-1V292.5z"/>
	<path fill="#FFFFFF" d="M587.6,292.4c1.5,0,2.3,1.1,2.3,2.7c0,0.2,0,0.4,0,0.5H586c0.1,1.3,0.8,2.1,1.9,2.1c0.6,0,1-0.2,1.5-0.5
		l0.3,0.6c-0.5,0.3-1.1,0.6-1.9,0.6c-1.6,0-2.8-1.1-2.8-3S586.3,292.4,587.6,292.4z M589.1,295c0-1.2-0.5-1.8-1.4-1.8
		c-0.8,0-1.6,0.7-1.7,1.8H589.1z"/>
	<path fill="#FFFFFF" d="M594.5,294.7c0-0.7-0.3-1.5-1.2-1.5c-0.7,0-1.3,0.3-1.7,0.6l-0.4-0.7c0.5-0.3,1.4-0.8,2.3-0.8
		c1.4,0,2,0.9,2,2.4v3.6h-0.8l-0.1-0.7h0c-0.6,0.5-1.2,0.8-1.9,0.8c-1,0-1.7-0.6-1.7-1.7C590.9,295.6,592,294.9,594.5,294.7z
		 M592.9,297.7c0.6,0,1-0.3,1.6-0.8v-1.6c-2,0.2-2.6,0.7-2.6,1.5C591.9,297.4,592.3,297.7,592.9,297.7z"/>
	<path fill="#FFFFFF" d="M597.5,293.3h-0.9v-0.7l0.9-0.1l0.1-1.6h0.8v1.6h1.6v0.8h-1.6v3.2c0,0.7,0.2,1.1,0.9,1.1
		c0.2,0,0.5-0.1,0.7-0.2l0.2,0.7c-0.3,0.1-0.7,0.2-1.1,0.2c-1.2,0-1.7-0.8-1.7-1.9V293.3z"/>
	<path fill="#FFFFFF" d="M603.5,292.4c1.5,0,2.3,1.1,2.3,2.7c0,0.2,0,0.4,0,0.5h-3.9c0.1,1.3,0.8,2.1,1.9,2.1c0.6,0,1-0.2,1.5-0.5
		l0.3,0.6c-0.5,0.3-1.1,0.6-1.9,0.6c-1.6,0-2.8-1.1-2.8-3S602.1,292.4,603.5,292.4z M604.9,295c0-1.2-0.5-1.8-1.4-1.8
		c-0.8,0-1.6,0.7-1.7,1.8H604.9z"/>
	<path fill="#FFFFFF" d="M609.3,292.4c0.7,0,1.1,0.3,1.6,0.7l0-1v-2.2h1v8.5h-0.8l-0.1-0.7h0c-0.5,0.4-1.1,0.8-1.8,0.8
		c-1.5,0-2.4-1.1-2.4-3C606.8,293.6,608,292.4,609.3,292.4z M609.4,297.7c0.5,0,1-0.3,1.5-0.8v-3c-0.5-0.4-0.9-0.6-1.4-0.6
		c-0.9,0-1.7,0.9-1.7,2.2C607.8,296.8,608.4,297.7,609.4,297.7z"/>
	<path fill="#FFFFFF" d="M616.3,289.8h1v2.3l0,1.1c0.5-0.5,1.2-0.8,1.8-0.8c1.5,0,2.3,1.2,2.3,3c0,2-1.2,3.2-2.5,3.2
		c-0.5,0-1.2-0.3-1.7-0.7h0l-0.1,0.6h-0.8V289.8z M618.7,297.7c1,0,1.7-0.9,1.7-2.3c0-1.3-0.4-2.1-1.5-2.1c-0.5,0-1,0.3-1.6,0.8v3.1
		C617.8,297.5,618.3,297.7,618.7,297.7z"/>
	<path fill="#FFFFFF" d="M623,300.1c0.7,0,1.1-0.5,1.3-1.2l0.1-0.4l-2.3-5.8h1l1.2,3.2c0.2,0.5,0.4,1.1,0.6,1.6h0
		c0.2-0.5,0.3-1.1,0.5-1.6l1-3.2h1l-2.2,6.3c-0.4,1.2-1,2-2.2,2c-0.3,0-0.5,0-0.7-0.1l0.2-0.8C622.6,300,622.8,300.1,623,300.1z"/>
	<path fill="#FFFFFF" d="M637.4,300.2c-0.2,0.1-0.7,0.2-1.1,0.2c-1.5,0-2.4-0.8-2.9-1.9c-1.7-0.2-2.9-1.8-2.9-4.1c0-2.5,1.4-4,3.4-4
		c2,0,3.4,1.5,3.4,4c0,2.3-1.1,3.8-2.8,4.1c0.4,0.7,1.1,1,1.9,1c0.3,0,0.6-0.1,0.8-0.1L637.4,300.2z M633.9,297.6
		c1.4,0,2.3-1.3,2.3-3.2c0-2-0.9-3.2-2.3-3.2c-1.4,0-2.3,1.2-2.3,3.2C631.6,296.4,632.5,297.6,633.9,297.6z"/>
	<path fill="#FFFFFF" d="M638.8,292.5h1v3.6c0,1.1,0.3,1.6,1.1,1.6c0.6,0,1-0.3,1.6-1v-4.1h1v5.8h-0.8l-0.1-0.9h0
		c-0.5,0.6-1.1,1.1-1.9,1.1c-1.2,0-1.8-0.8-1.8-2.3V292.5z"/>
	<path fill="#FFFFFF" d="M648.7,294.7c0-0.7-0.3-1.5-1.2-1.5c-0.7,0-1.3,0.3-1.7,0.6l-0.4-0.7c0.5-0.3,1.4-0.8,2.3-0.8
		c1.4,0,2,0.9,2,2.4v3.6h-0.8l-0.1-0.7h0c-0.6,0.5-1.2,0.8-1.9,0.8c-1,0-1.7-0.6-1.7-1.7C645.1,295.6,646.2,294.9,648.7,294.7z
		 M647.1,297.7c0.6,0,1-0.3,1.6-0.8v-1.6c-2,0.2-2.6,0.7-2.6,1.5C646.1,297.4,646.5,297.7,647.1,297.7z"/>
	<path fill="#FFFFFF" d="M651.5,292.5h0.8l0.1,1.1h0c0.4-0.7,1-1.2,1.7-1.2c0.3,0,0.4,0,0.6,0.1l-0.2,0.9c-0.2-0.1-0.3-0.1-0.6-0.1
		c-0.5,0-1.1,0.4-1.5,1.3v3.7h-1V292.5z"/>
	<path fill="#FFFFFF" d="M655.9,293.3H655v-0.7l0.9-0.1l0.1-1.6h0.8v1.6h1.6v0.8h-1.6v3.2c0,0.7,0.2,1.1,0.9,1.1
		c0.2,0,0.5-0.1,0.7-0.2l0.2,0.7c-0.3,0.1-0.7,0.2-1.1,0.2c-1.2,0-1.7-0.8-1.7-1.9V293.3z"/>
	<path fill="#FFFFFF" d="M659.1,297.8l3.1-4.5h-2.7v-0.8h4v0.5l-3.1,4.5h3.2v0.8h-4.4V297.8z"/>
	<path fill="#FFFFFF" d="M670.6,294.7c0-0.7-0.3-1.5-1.2-1.5c-0.7,0-1.3,0.3-1.7,0.6l-0.4-0.7c0.5-0.3,1.4-0.8,2.3-0.8
		c1.4,0,2,0.9,2,2.4v3.6h-0.8l-0.1-0.7h0c-0.6,0.5-1.2,0.8-1.9,0.8c-1,0-1.7-0.6-1.7-1.7C667,295.6,668.1,294.9,670.6,294.7z
		 M669,297.7c0.6,0,1-0.3,1.6-0.8v-1.6c-2,0.2-2.6,0.7-2.6,1.5C668,297.4,668.4,297.7,669,297.7z"/>
	<path fill="#FFFFFF" d="M673.4,292.5h0.8l0.1,0.8h0c0.6-0.6,1.2-1,2-1c1.2,0,1.8,0.8,1.8,2.3v3.7h-1v-3.6c0-1.1-0.3-1.6-1.1-1.6
		c-0.6,0-1,0.3-1.6,0.9v4.2h-1V292.5z"/>
	<path fill="#FFFFFF" d="M682.1,292.4c0.7,0,1.1,0.3,1.6,0.7l0-1v-2.2h1v8.5h-0.8l-0.1-0.7h0c-0.5,0.4-1.1,0.8-1.8,0.8
		c-1.5,0-2.4-1.1-2.4-3C679.6,293.6,680.8,292.4,682.1,292.4z M682.2,297.7c0.5,0,1-0.3,1.5-0.8v-3c-0.5-0.4-0.9-0.6-1.4-0.6
		c-0.9,0-1.7,0.9-1.7,2.2C680.6,296.8,681.2,297.7,682.2,297.7z"/>
	<path fill="#FFFFFF" d="M688.5,297.8l3.1-4.5h-2.7v-0.8h4v0.5l-3.1,4.5h3.2v0.8h-4.4V297.8z"/>
	<path fill="#FFFFFF" d="M694.2,290.5h4.5v0.8h-3.5v2.5h3v0.9h-3v2.9h3.6v0.9h-4.7V290.5z"/>
	<path fill="#FFFFFF" d="M699.6,292.5h1l1.1,3.3c0.2,0.6,0.4,1.2,0.5,1.7h0c0.2-0.6,0.4-1.1,0.5-1.7l1.1-3.3h1l-2.1,5.8h-1.2
		L699.6,292.5z"/>
</g>
<g>
	<path fill="#FFFFFF" d="M471.5,431.7h-2.2v-1.5h6.1v1.5h-2.1v6.3h-1.8V431.7z"/>
	<path fill="#FFFFFF" d="M476.3,430.3c0-0.5,0.4-0.9,1-0.9c0.6,0,1,0.4,1,0.9c0,0.5-0.4,0.9-1,0.9
		C476.8,431.3,476.3,430.9,476.3,430.3z M476.5,432.1h1.8v5.9h-1.8V432.1z"/>
	<path fill="#FFFFFF" d="M479.8,432.1h1.4l0.1,0.8h0c0.5-0.5,1-0.9,1.8-0.9c0.8,0,1.3,0.4,1.6,1c0.5-0.5,1.1-1,1.9-1
		c1.3,0,1.9,0.9,1.9,2.4v3.7h-1.8v-3.5c0-0.9-0.2-1.1-0.7-1.1c-0.3,0-0.6,0.2-1,0.6v4h-1.8v-3.5c0-0.9-0.2-1.1-0.7-1.1
		c-0.3,0-0.6,0.2-1,0.6v4h-1.8V432.1z"/>
	<path fill="#FFFFFF" d="M492.5,432c1.7,0,2.5,1.2,2.5,2.9c0,0.3,0,0.6-0.1,0.7h-3.6c0.2,0.9,0.8,1.3,1.5,1.3c0.4,0,0.9-0.1,1.3-0.4
		l0.6,1.1c-0.6,0.4-1.4,0.7-2.1,0.7c-1.7,0-3-1.2-3-3.1C489.7,433.2,491.1,432,492.5,432z M493.6,434.5c0-0.7-0.3-1.2-1-1.2
		c-0.6,0-1,0.4-1.2,1.2H493.6z"/>
	<path fill="#FFFFFF" d="M498.6,430.3c0-0.5,0.4-0.9,1-0.9c0.6,0,1,0.4,1,0.9c0,0.5-0.4,0.9-1,0.9
		C499.1,431.3,498.6,430.9,498.6,430.3z M498.8,432.1h1.8v5.9h-1.8V432.1z"/>
	<path fill="#FFFFFF" d="M502.4,436.3c0.5,0.4,1,0.6,1.5,0.6c0.5,0,0.8-0.2,0.8-0.5c0-0.4-0.6-0.6-1.2-0.8c-0.7-0.3-1.6-0.8-1.6-1.8
		c0-1.1,0.9-1.9,2.3-1.9c0.9,0,1.6,0.4,2.1,0.8l-0.8,1.1c-0.4-0.3-0.8-0.5-1.3-0.5c-0.5,0-0.7,0.2-0.7,0.5c0,0.4,0.6,0.5,1.2,0.8
		c0.8,0.3,1.6,0.7,1.6,1.8c0,1.1-0.9,1.9-2.4,1.9c-0.8,0-1.7-0.3-2.3-0.8L502.4,436.3z"/>
	<path fill="#FFFFFF" d="M509.9,432.1h1.4l0.1,1h0c0.4-0.8,1.1-1.2,1.7-1.2c0.3,0,0.5,0,0.7,0.1l-0.3,1.5c-0.2-0.1-0.4-0.1-0.6-0.1
		c-0.4,0-1,0.3-1.3,1.1v3.5h-1.8V432.1z"/>
	<path fill="#FFFFFF" d="M517,432c1.7,0,2.5,1.2,2.5,2.9c0,0.3,0,0.6-0.1,0.7h-3.6c0.2,0.9,0.8,1.3,1.5,1.3c0.4,0,0.9-0.1,1.3-0.4
		l0.6,1.1c-0.6,0.4-1.4,0.7-2.1,0.7c-1.7,0-3-1.2-3-3.1C514.2,433.2,515.6,432,517,432z M518,434.5c0-0.7-0.3-1.2-1-1.2
		c-0.6,0-1,0.4-1.2,1.2H518z"/>
	<path fill="#FFFFFF" d="M523.5,432c0.7,0,1.3,0.3,1.7,0.7l-0.8,1.1c-0.3-0.2-0.6-0.3-0.8-0.3c-0.9,0-1.4,0.7-1.4,1.7
		s0.6,1.7,1.3,1.7c0.4,0,0.8-0.2,1.1-0.4l0.7,1.1c-0.6,0.5-1.3,0.7-2,0.7c-1.7,0-2.9-1.1-2.9-3.1C520.4,433.1,521.9,432,523.5,432z"
		/>
	<path fill="#FFFFFF" d="M528.6,432c1.5,0,2.9,1.1,2.9,3.1c0,2-1.4,3.1-2.9,3.1c-1.5,0-2.9-1.1-2.9-3.1
		C525.7,433.1,527.1,432,528.6,432z M528.6,436.8c0.7,0,1.1-0.7,1.1-1.7s-0.4-1.7-1.1-1.7c-0.7,0-1.1,0.7-1.1,1.7
		S527.9,436.8,528.6,436.8z"/>
	<path fill="#FFFFFF" d="M532.7,432.1h1.4l0.1,1h0c0.4-0.8,1.1-1.2,1.7-1.2c0.3,0,0.5,0,0.7,0.1l-0.3,1.5c-0.2-0.1-0.4-0.1-0.6-0.1
		c-0.4,0-1,0.3-1.3,1.1v3.5h-1.8V432.1z"/>
	<path fill="#FFFFFF" d="M539.5,432c0.7,0,1.1,0.2,1.5,0.6l-0.1-0.9v-2h1.8v8.4h-1.4l-0.1-0.6h0c-0.4,0.4-1,0.7-1.6,0.7
		c-1.5,0-2.4-1.2-2.4-3.1C537,433.2,538.3,432,539.5,432z M539.9,436.8c0.4,0,0.7-0.1,1-0.5v-2.4c-0.3-0.3-0.7-0.4-1-0.4
		c-0.6,0-1.1,0.5-1.1,1.7C538.9,436.3,539.3,436.8,539.9,436.8z"/>
	<path fill="#FFFFFF" d="M546.7,432c1.7,0,2.5,1.2,2.5,2.9c0,0.3,0,0.6-0.1,0.7h-3.6c0.2,0.9,0.8,1.3,1.5,1.3c0.4,0,0.9-0.1,1.3-0.4
		l0.6,1.1c-0.6,0.4-1.4,0.7-2.1,0.7c-1.7,0-3-1.2-3-3.1C543.9,433.2,545.3,432,546.7,432z M547.7,434.5c0-0.7-0.3-1.2-1-1.2
		c-0.6,0-1,0.4-1.2,1.2H547.7z"/>
	<path fill="#FFFFFF" d="M552.6,432c0.7,0,1.1,0.2,1.5,0.6l-0.1-0.9v-2h1.8v8.4h-1.4l-0.1-0.6h0c-0.4,0.4-1,0.7-1.6,0.7
		c-1.5,0-2.4-1.2-2.4-3.1C550.1,433.2,551.4,432,552.6,432z M553,436.8c0.4,0,0.7-0.1,1-0.5v-2.4c-0.3-0.3-0.7-0.4-1-0.4
		c-0.6,0-1.1,0.5-1.1,1.7C552,436.3,552.3,436.8,553,436.8z"/>
	<path fill="#FFFFFF" d="M559.8,429.7h1.8v2.1l0,0.9c0.5-0.4,1-0.7,1.6-0.7c1.4,0,2.3,1.2,2.3,3c0,2.1-1.2,3.2-2.5,3.2
		c-0.5,0-1.1-0.3-1.5-0.8h0l-0.1,0.6h-1.4V429.7z M562.5,436.8c0.6,0,1.1-0.5,1.1-1.8c0-1.1-0.3-1.6-1-1.6c-0.4,0-0.7,0.2-1,0.5v2.4
		C561.9,436.7,562.2,436.8,562.5,436.8z"/>
	<path fill="#FFFFFF" d="M569.7,434.3c0-0.5-0.3-0.9-0.9-0.9c-0.5,0-1,0.2-1.6,0.5l-0.6-1.2c0.8-0.5,1.6-0.8,2.5-0.8
		c1.5,0,2.4,0.9,2.4,2.7v3.4H570l-0.1-0.6h0c-0.5,0.4-1.1,0.8-1.7,0.8c-1.1,0-1.8-0.8-1.8-1.8C566.4,435.2,567.3,434.5,569.7,434.3z
		 M568.7,436.9c0.4,0,0.7-0.2,1-0.5v-1c-1.3,0.2-1.7,0.5-1.7,1C568,436.7,568.3,436.9,568.7,436.9z"/>
	<path fill="#FFFFFF" d="M573.2,436.3c0.5,0.4,1,0.6,1.5,0.6c0.5,0,0.8-0.2,0.8-0.5c0-0.4-0.6-0.6-1.2-0.8c-0.7-0.3-1.6-0.8-1.6-1.8
		c0-1.1,0.9-1.9,2.3-1.9c0.9,0,1.6,0.4,2.1,0.8l-0.8,1.1c-0.4-0.3-0.8-0.5-1.3-0.5c-0.5,0-0.7,0.2-0.7,0.5c0,0.4,0.6,0.5,1.2,0.8
		c0.8,0.3,1.6,0.7,1.6,1.8c0,1.1-0.9,1.9-2.4,1.9c-0.8,0-1.7-0.3-2.3-0.8L573.2,436.3z"/>
	<path fill="#FFFFFF" d="M580.8,432c1.7,0,2.5,1.2,2.5,2.9c0,0.3,0,0.6-0.1,0.7h-3.6c0.2,0.9,0.8,1.3,1.5,1.3c0.4,0,0.9-0.1,1.3-0.4
		l0.6,1.1c-0.6,0.4-1.4,0.7-2.1,0.7c-1.7,0-3-1.2-3-3.1C577.9,433.2,579.3,432,580.8,432z M581.8,434.5c0-0.7-0.3-1.2-1-1.2
		c-0.6,0-1,0.4-1.2,1.2H581.8z"/>
	<path fill="#FFFFFF" d="M586.7,432c0.7,0,1.1,0.2,1.5,0.6l-0.1-0.9v-2h1.8v8.4h-1.4l-0.1-0.6h0c-0.4,0.4-1,0.7-1.6,0.7
		c-1.5,0-2.4-1.2-2.4-3.1C584.2,433.2,585.4,432,586.7,432z M587.1,436.8c0.4,0,0.7-0.1,1-0.5v-2.4c-0.3-0.3-0.7-0.4-1-0.4
		c-0.6,0-1.1,0.5-1.1,1.7C586,436.3,586.4,436.8,587.1,436.8z"/>
	<path fill="#FFFFFF" d="M596.4,432c1.5,0,2.9,1.1,2.9,3.1c0,2-1.4,3.1-2.9,3.1c-1.5,0-2.9-1.1-2.9-3.1
		C593.5,433.1,594.9,432,596.4,432z M596.4,436.8c0.7,0,1.1-0.7,1.1-1.7s-0.4-1.7-1.1-1.7c-0.7,0-1.1,0.7-1.1,1.7
		S595.7,436.8,596.4,436.8z"/>
	<path fill="#FFFFFF" d="M600.5,432.1h1.4l0.1,0.8h0c0.5-0.5,1.1-0.9,1.9-0.9c1.3,0,1.8,0.9,1.8,2.4v3.7h-1.8v-3.5
		c0-0.9-0.2-1.1-0.7-1.1c-0.4,0-0.7,0.2-1.1,0.6v4h-1.8V432.1z"/>
	<path fill="#FFFFFF" d="M610.4,439c0.6,0,0.9-0.3,1-0.8l0.1-0.3l-2.3-5.8h1.8l0.9,2.6c0.2,0.5,0.3,1.1,0.5,1.7h0
		c0.1-0.6,0.3-1.1,0.4-1.7l0.7-2.6h1.7l-2.1,6c-0.6,1.5-1.2,2.3-2.6,2.3c-0.4,0-0.6,0-0.8-0.1l0.3-1.3
		C610.1,439,610.3,439,610.4,439z"/>
	<path fill="#FFFFFF" d="M618.6,432c1.5,0,2.9,1.1,2.9,3.1c0,2-1.4,3.1-2.9,3.1c-1.5,0-2.9-1.1-2.9-3.1
		C615.7,433.1,617.1,432,618.6,432z M618.6,436.8c0.7,0,1.1-0.7,1.1-1.7s-0.4-1.7-1.1-1.7c-0.7,0-1.1,0.7-1.1,1.7
		S617.9,436.8,618.6,436.8z"/>
	<path fill="#FFFFFF" d="M622.7,432.1h1.8v3.5c0,0.9,0.2,1.1,0.7,1.1c0.4,0,0.7-0.2,1.1-0.7v-3.9h1.8v5.9h-1.4l-0.1-0.8h0
		c-0.5,0.6-1.1,1-1.9,1c-1.3,0-1.8-0.9-1.8-2.4V432.1z"/>
	<path fill="#FFFFFF" d="M629.5,432.1h1.4l0.1,1h0c0.4-0.8,1.1-1.2,1.7-1.2c0.3,0,0.5,0,0.7,0.1l-0.3,1.5c-0.2-0.1-0.4-0.1-0.6-0.1
		c-0.4,0-1,0.3-1.3,1.1v3.5h-1.8V432.1z"/>
	<path fill="#FFFFFF" d="M638.6,438.5v1.7h-1.8v-8.2h1.4l0.1,0.6h0c0.5-0.4,1.1-0.7,1.7-0.7c1.4,0,2.3,1.2,2.3,3
		c0,2-1.2,3.2-2.5,3.2c-0.5,0-1-0.2-1.4-0.6L638.6,438.5z M639.5,436.8c0.6,0,1.1-0.5,1.1-1.8c0-1.1-0.3-1.6-1-1.6
		c-0.4,0-0.7,0.2-1,0.5v2.4C638.9,436.7,639.2,436.8,639.5,436.8z"/>
	<path fill="#FFFFFF" d="M646.2,432c1.5,0,2.9,1.1,2.9,3.1c0,2-1.4,3.1-2.9,3.1c-1.5,0-2.9-1.1-2.9-3.1
		C643.3,433.1,644.7,432,646.2,432z M646.2,436.8c0.7,0,1.1-0.7,1.1-1.7s-0.4-1.7-1.1-1.7c-0.7,0-1.1,0.7-1.1,1.7
		S645.5,436.8,646.2,436.8z"/>
	<path fill="#FFFFFF" d="M650.5,436.3c0.5,0.4,1,0.6,1.5,0.6c0.5,0,0.8-0.2,0.8-0.5c0-0.4-0.6-0.6-1.2-0.8c-0.7-0.3-1.6-0.8-1.6-1.8
		c0-1.1,0.9-1.9,2.3-1.9c0.9,0,1.6,0.4,2.1,0.8l-0.8,1.1c-0.4-0.3-0.8-0.5-1.3-0.5c-0.5,0-0.7,0.2-0.7,0.5c0,0.4,0.6,0.5,1.2,0.8
		c0.8,0.3,1.6,0.7,1.6,1.8c0,1.1-0.9,1.9-2.4,1.9c-0.8,0-1.7-0.3-2.3-0.8L650.5,436.3z"/>
	<path fill="#FFFFFF" d="M655.5,430.3c0-0.5,0.4-0.9,1-0.9c0.6,0,1,0.4,1,0.9c0,0.5-0.4,0.9-1,0.9
		C655.9,431.3,655.5,430.9,655.5,430.3z M655.6,432.1h1.8v5.9h-1.8V432.1z"/>
	<path fill="#FFFFFF" d="M659.1,433.5h-0.8v-1.3l0.9-0.1l0.2-1.6h1.5v1.6h1.4v1.4h-1.4v2.4c0,0.7,0.3,0.9,0.8,0.9
		c0.2,0,0.4-0.1,0.6-0.1l0.3,1.3c-0.3,0.1-0.7,0.2-1.3,0.2c-1.5,0-2.1-0.9-2.1-2.3V433.5z"/>
	<path fill="#FFFFFF" d="M663.4,430.3c0-0.5,0.4-0.9,1-0.9c0.6,0,1,0.4,1,0.9c0,0.5-0.4,0.9-1,0.9
		C663.8,431.3,663.4,430.9,663.4,430.3z M663.5,432.1h1.8v5.9h-1.8V432.1z"/>
	<path fill="#FFFFFF" d="M669.4,432c1.5,0,2.9,1.1,2.9,3.1c0,2-1.4,3.1-2.9,3.1c-1.5,0-2.9-1.1-2.9-3.1
		C666.5,433.1,667.9,432,669.4,432z M669.4,436.8c0.7,0,1.1-0.7,1.1-1.7s-0.4-1.7-1.1-1.7c-0.7,0-1.1,0.7-1.1,1.7
		S668.6,436.8,669.4,436.8z"/>
	<path fill="#FFFFFF" d="M673.5,432.1h1.4l0.1,0.8h0c0.5-0.5,1.1-0.9,1.9-0.9c1.3,0,1.8,0.9,1.8,2.4v3.7h-1.8v-3.5
		c0-0.9-0.2-1.1-0.7-1.1c-0.4,0-0.7,0.2-1.1,0.6v4h-1.8V432.1z"/>
	<path fill="#FFFFFF" d="M682.6,434.4h3v1.2h-3V434.4z"/>
	<path fill="#FFFFFF" d="M689.4,430.3h1.8l2,3.9l0.8,1.7h0c-0.1-0.8-0.2-1.9-0.2-2.9v-2.8h1.7v7.8h-1.8l-2-3.9l-0.8-1.7h0
		c0.1,0.9,0.2,1.9,0.2,2.8v2.8h-1.7V430.3z"/>
	<path fill="#FFFFFF" d="M699.8,432c1.5,0,2.9,1.1,2.9,3.1c0,2-1.4,3.1-2.9,3.1c-1.5,0-2.9-1.1-2.9-3.1
		C696.9,433.1,698.3,432,699.8,432z M699.8,436.8c0.7,0,1.1-0.7,1.1-1.7s-0.4-1.7-1.1-1.7c-0.7,0-1.1,0.7-1.1,1.7
		S699.1,436.8,699.8,436.8z"/>
	<path fill="#FFFFFF" d="M706.4,432.1h1.4l0.1,0.8h0c0.5-0.5,1-0.9,1.8-0.9c0.8,0,1.3,0.4,1.6,1c0.5-0.5,1.1-1,1.9-1
		c1.3,0,1.9,0.9,1.9,2.4v3.7h-1.8v-3.5c0-0.9-0.2-1.1-0.7-1.1c-0.3,0-0.6,0.2-1,0.6v4h-1.8v-3.5c0-0.9-0.2-1.1-0.7-1.1
		c-0.3,0-0.6,0.2-1,0.6v4h-1.8V432.1z"/>
	<path fill="#FFFFFF" d="M719.3,432c1.5,0,2.9,1.1,2.9,3.1c0,2-1.4,3.1-2.9,3.1c-1.5,0-2.9-1.1-2.9-3.1
		C716.4,433.1,717.8,432,719.3,432z M719.3,436.8c0.7,0,1.1-0.7,1.1-1.7s-0.4-1.7-1.1-1.7c-0.7,0-1.1,0.7-1.1,1.7
		S718.5,436.8,719.3,436.8z"/>
	<path fill="#FFFFFF" d="M723.4,432.1h1.4l0.1,1h0c0.4-0.8,1.1-1.2,1.7-1.2c0.3,0,0.5,0,0.7,0.1l-0.3,1.5c-0.2-0.1-0.4-0.1-0.6-0.1
		c-0.4,0-1,0.3-1.3,1.1v3.5h-1.8V432.1z"/>
	<path fill="#FFFFFF" d="M730.5,432c1.7,0,2.5,1.2,2.5,2.9c0,0.3,0,0.6-0.1,0.7h-3.6c0.2,0.9,0.8,1.3,1.5,1.3c0.4,0,0.9-0.1,1.3-0.4
		l0.6,1.1c-0.6,0.4-1.4,0.7-2.1,0.7c-1.7,0-3-1.2-3-3.1C727.7,433.2,729.1,432,730.5,432z M731.5,434.5c0-0.7-0.3-1.2-1-1.2
		c-0.6,0-1,0.4-1.2,1.2H731.5z"/>
	<path fill="#FFFFFF" d="M736.6,430.3c0-0.5,0.4-0.9,1-0.9c0.6,0,1,0.4,1,0.9c0,0.5-0.4,0.9-1,0.9
		C737,431.3,736.6,430.9,736.6,430.3z M736.8,432.1h1.8v5.9h-1.8V432.1z"/>
	<path fill="#FFFFFF" d="M740.3,433.5h-0.8v-1.3l0.9-0.1l0.2-1.6h1.5v1.6h1.4v1.4h-1.4v2.4c0,0.7,0.3,0.9,0.8,0.9
		c0.2,0,0.4-0.1,0.6-0.1l0.3,1.3c-0.3,0.1-0.7,0.2-1.3,0.2c-1.5,0-2.1-0.9-2.1-2.3V433.5z"/>
	<path fill="#FFFFFF" d="M747,432c1.7,0,2.5,1.2,2.5,2.9c0,0.3,0,0.6-0.1,0.7h-3.6c0.2,0.9,0.8,1.3,1.5,1.3c0.4,0,0.9-0.1,1.3-0.4
		l0.6,1.1c-0.6,0.4-1.4,0.7-2.1,0.7c-1.7,0-3-1.2-3-3.1C744.2,433.2,745.6,432,747,432z M748,434.5c0-0.7-0.3-1.2-1-1.2
		c-0.6,0-1,0.4-1.2,1.2H748z"/>
	<path fill="#FFFFFF" d="M750.8,432.1h1.4l0.1,0.8h0c0.5-0.5,1-0.9,1.8-0.9c0.8,0,1.3,0.4,1.6,1c0.5-0.5,1.1-1,1.9-1
		c1.3,0,1.9,0.9,1.9,2.4v3.7h-1.8v-3.5c0-0.9-0.2-1.1-0.7-1.1c-0.3,0-0.6,0.2-1,0.6v4h-1.8v-3.5c0-0.9-0.2-1.1-0.7-1.1
		c-0.3,0-0.6,0.2-1,0.6v4h-1.8V432.1z"/>
	<path fill="#FFFFFF" d="M761.3,436.3c0.5,0.4,1,0.6,1.5,0.6c0.5,0,0.8-0.2,0.8-0.5c0-0.4-0.6-0.6-1.2-0.8c-0.7-0.3-1.6-0.8-1.6-1.8
		c0-1.1,0.9-1.9,2.3-1.9c0.9,0,1.6,0.4,2.1,0.8l-0.8,1.1c-0.4-0.3-0.8-0.5-1.3-0.5c-0.5,0-0.7,0.2-0.7,0.5c0,0.4,0.6,0.5,1.2,0.8
		c0.8,0.3,1.6,0.7,1.6,1.8c0,1.1-0.9,1.9-2.4,1.9c-0.8,0-1.7-0.3-2.3-0.8L761.3,436.3z"/>
	<path fill="#FFFFFF" d="M768.8,432.1h1.4l0.1,0.8h0c0.5-0.5,1.1-0.9,1.9-0.9c1.3,0,1.8,0.9,1.8,2.4v3.7h-1.8v-3.5
		c0-0.9-0.2-1.1-0.7-1.1c-0.4,0-0.7,0.2-1.1,0.6v4h-1.8V432.1z"/>
	<path fill="#FFFFFF" d="M778.2,432c1.7,0,2.5,1.2,2.5,2.9c0,0.3,0,0.6-0.1,0.7h-3.6c0.2,0.9,0.8,1.3,1.5,1.3c0.4,0,0.9-0.1,1.3-0.4
		l0.6,1.1c-0.6,0.4-1.4,0.7-2.1,0.7c-1.7,0-3-1.2-3-3.1C775.4,433.2,776.7,432,778.2,432z M779.2,434.5c0-0.7-0.3-1.2-1-1.2
		c-0.6,0-1,0.4-1.2,1.2H779.2z"/>
	<path fill="#FFFFFF" d="M784.4,432c1.7,0,2.5,1.2,2.5,2.9c0,0.3,0,0.6-0.1,0.7h-3.6c0.2,0.9,0.8,1.3,1.5,1.3c0.4,0,0.9-0.1,1.3-0.4
		l0.6,1.1c-0.6,0.4-1.4,0.7-2.1,0.7c-1.7,0-3-1.2-3-3.1C781.6,433.2,783,432,784.4,432z M785.4,434.5c0-0.7-0.3-1.2-1-1.2
		c-0.6,0-1,0.4-1.2,1.2H785.4z"/>
	<path fill="#FFFFFF" d="M790.3,432c0.7,0,1.1,0.2,1.5,0.6l-0.1-0.9v-2h1.8v8.4H792l-0.1-0.6h0c-0.4,0.4-1,0.7-1.6,0.7
		c-1.5,0-2.4-1.2-2.4-3.1C787.8,433.2,789,432,790.3,432z M790.7,436.8c0.4,0,0.7-0.1,1-0.5v-2.4c-0.3-0.3-0.7-0.4-1-0.4
		c-0.6,0-1.1,0.5-1.1,1.7C789.6,436.3,790,436.8,790.7,436.8z"/>
	<path fill="#FFFFFF" d="M797.5,432c1.7,0,2.5,1.2,2.5,2.9c0,0.3,0,0.6-0.1,0.7h-3.6c0.2,0.9,0.8,1.3,1.5,1.3c0.4,0,0.9-0.1,1.3-0.4
		l0.6,1.1c-0.6,0.4-1.4,0.7-2.1,0.7c-1.7,0-3-1.2-3-3.1C794.7,433.2,796.1,432,797.5,432z M798.5,434.5c0-0.7-0.3-1.2-1-1.2
		c-0.6,0-1,0.4-1.2,1.2H798.5z"/>
	<path fill="#FFFFFF" d="M803.4,432c0.7,0,1.1,0.2,1.5,0.6l-0.1-0.9v-2h1.8v8.4h-1.4l-0.1-0.6h0c-0.4,0.4-1,0.7-1.6,0.7
		c-1.5,0-2.4-1.2-2.4-3.1C800.9,433.2,802.1,432,803.4,432z M803.8,436.8c0.4,0,0.7-0.1,1-0.5v-2.4c-0.3-0.3-0.7-0.4-1-0.4
		c-0.6,0-1.1,0.5-1.1,1.7C802.7,436.3,803.1,436.8,803.8,436.8z"/>
	<path fill="#FFFFFF" d="M809.1,436c0.6,0,1.1,0.5,1.1,1.1c0,0.6-0.5,1.1-1.1,1.1c-0.6,0-1.1-0.5-1.1-1.1
		C808.1,436.5,808.5,436,809.1,436z"/>
</g>
<g>
	<path fill="#FFFFFF" d="M367.7,539.7h1.2l1.5,4.2l0.6,1.6h0l0.6-1.6l1.5-4.2h1.2v7.9h-0.9v-4.3c0-0.7,0.1-1.6,0.1-2.3h0l-0.6,1.8
		l-1.5,4.1h-0.6l-1.5-4.1l-0.6-1.8h0c0,0.7,0.1,1.6,0.1,2.3v4.3h-0.9V539.7z"/>
	<path fill="#FFFFFF" d="M379.6,543.8c0-0.7-0.3-1.5-1.2-1.5c-0.7,0-1.3,0.3-1.7,0.6l-0.4-0.7c0.5-0.3,1.4-0.8,2.3-0.8
		c1.4,0,2,0.9,2,2.4v3.6h-0.8l-0.1-0.7h0c-0.6,0.5-1.2,0.8-1.9,0.8c-1,0-1.7-0.6-1.7-1.7C376,544.8,377.1,544.1,379.6,543.8z
		 M378,546.9c0.6,0,1-0.3,1.6-0.8v-1.6c-2,0.2-2.6,0.7-2.6,1.5C377,546.6,377.4,546.9,378,546.9z"/>
	<path fill="#FFFFFF" d="M383.4,548v2h-1v-8.3h0.8l0.1,0.7h0c0.5-0.4,1.2-0.8,1.9-0.8c1.5,0,2.3,1.2,2.3,3c0,2-1.2,3.1-2.5,3.1
		c-0.5,0-1.1-0.3-1.6-0.7L383.4,548z M384.8,546.9c1,0,1.7-0.9,1.7-2.3c0-1.3-0.4-2.1-1.5-2.1c-0.5,0-1,0.3-1.6,0.8v3.1
		C383.9,546.7,384.4,546.9,384.8,546.9z"/>
	<path fill="#FFFFFF" d="M388.9,546.2c0.5,0.4,1,0.7,1.7,0.7c0.8,0,1.2-0.4,1.2-0.9c0-0.6-0.7-0.9-1.3-1.1c-0.8-0.3-1.7-0.7-1.7-1.7
		c0-0.9,0.7-1.7,2-1.7c0.7,0,1.4,0.3,1.8,0.7l-0.5,0.6c-0.4-0.3-0.8-0.5-1.3-0.5c-0.7,0-1.1,0.4-1.1,0.8c0,0.5,0.6,0.8,1.3,1
		c0.8,0.3,1.8,0.7,1.8,1.8c0,0.9-0.8,1.7-2.1,1.7c-0.8,0-1.6-0.3-2.2-0.8L388.9,546.2z"/>
	<path fill="#FFFFFF" d="M396.5,541.7h0.8l0.1,0.8h0c0.5-0.6,1.1-1,1.8-1c0.9,0,1.4,0.4,1.6,1.1c0.6-0.7,1.2-1.1,1.9-1.1
		c1.2,0,1.8,0.8,1.8,2.3v3.7h-1V544c0-1.1-0.3-1.6-1.1-1.6c-0.5,0-0.9,0.3-1.5,0.9v4.2h-1V544c0-1.1-0.3-1.6-1.1-1.6
		c-0.4,0-0.9,0.3-1.5,0.9v4.2h-1V541.7z"/>
	<path fill="#FFFFFF" d="M409.8,543.8c0-0.7-0.3-1.5-1.2-1.5c-0.7,0-1.3,0.3-1.7,0.6l-0.4-0.7c0.5-0.3,1.4-0.8,2.3-0.8
		c1.4,0,2,0.9,2,2.4v3.6h-0.8l-0.1-0.7h0c-0.6,0.5-1.2,0.8-1.9,0.8c-1,0-1.7-0.6-1.7-1.7C406.2,544.8,407.3,544.1,409.8,543.8z
		 M408.2,546.9c0.6,0,1-0.3,1.6-0.8v-1.6c-2,0.2-2.6,0.7-2.6,1.5C407.2,546.6,407.6,546.9,408.2,546.9z"/>
	<path fill="#FFFFFF" d="M414.7,541.6c0.7,0,1.1,0.3,1.6,0.7l0-1V539h1v8.5h-0.8l-0.1-0.7h0c-0.5,0.4-1.1,0.8-1.8,0.8
		c-1.5,0-2.4-1.1-2.4-3C412.2,542.7,413.4,541.6,414.7,541.6z M414.8,546.9c0.5,0,1-0.3,1.5-0.8v-3c-0.5-0.4-0.9-0.6-1.4-0.6
		c-0.9,0-1.7,0.9-1.7,2.2C413.2,546,413.8,546.9,414.8,546.9z"/>
	<path fill="#FFFFFF" d="M421.5,541.6c1.5,0,2.3,1.1,2.3,2.7c0,0.2,0,0.4,0,0.5h-3.9c0.1,1.3,0.8,2.1,1.9,2.1c0.6,0,1-0.2,1.5-0.5
		l0.3,0.6c-0.5,0.3-1.1,0.6-1.9,0.6c-1.6,0-2.8-1.1-2.8-3S420.1,541.6,421.5,541.6z M422.9,544.2c0-1.2-0.5-1.8-1.4-1.8
		c-0.8,0-1.6,0.7-1.7,1.8H422.9z"/>
	<path fill="#FFFFFF" d="M430.3,539.8c-0.2-0.1-0.4-0.1-0.7-0.1c-0.6,0-0.8,0.4-0.8,1.1v0.9h1.2v0.8h-1.2v5h-1v-5H427v-0.7l0.8-0.1
		v-0.9c0-1.2,0.5-1.9,1.7-1.9c0.4,0,0.7,0.1,1,0.2L430.3,539.8z"/>
	<path fill="#FFFFFF" d="M433.3,541.6c1.4,0,2.7,1.1,2.7,3.1c0,1.9-1.3,3-2.7,3s-2.7-1.1-2.7-3C430.6,542.7,431.9,541.6,433.3,541.6
		z M433.3,546.9c1,0,1.7-0.9,1.7-2.2c0-1.3-0.7-2.3-1.7-2.3c-1,0-1.7,0.9-1.7,2.3C431.6,546,432.3,546.9,433.3,546.9z"/>
	<path fill="#FFFFFF" d="M437.5,541.7h0.8l0.1,1.1h0c0.4-0.7,1-1.2,1.7-1.2c0.3,0,0.4,0,0.6,0.1l-0.2,0.9c-0.2-0.1-0.3-0.1-0.6-0.1
		c-0.5,0-1.1,0.4-1.5,1.3v3.7h-1V541.7z"/>
	<path fill="#FFFFFF" d="M448.5,547.5l-1.9-3.3h-1.4v3.3h-1v-7.9h2.5c1.6,0,2.7,0.6,2.7,2.2c0,1.2-0.7,2-1.8,2.2l2,3.4H448.5z
		 M445.2,543.4h1.3c1.2,0,1.9-0.5,1.9-1.5c0-1-0.7-1.4-1.9-1.4h-1.3V543.4z"/>
	<path fill="#FFFFFF" d="M453.1,541.6c1.5,0,2.3,1.1,2.3,2.7c0,0.2,0,0.4,0,0.5h-3.9c0.1,1.3,0.8,2.1,1.9,2.1c0.6,0,1-0.2,1.5-0.5
		l0.3,0.6c-0.5,0.3-1.1,0.6-1.9,0.6c-1.6,0-2.8-1.1-2.8-3S451.8,541.6,453.1,541.6z M454.6,544.2c0-1.2-0.5-1.8-1.4-1.8
		c-0.8,0-1.6,0.7-1.7,1.8H454.6z"/>
	<path fill="#FFFFFF" d="M459.5,539.8c-0.2-0.1-0.4-0.1-0.7-0.1c-0.6,0-0.8,0.4-0.8,1.1v0.9h1.2v0.8H458v5h-1v-5h-0.8v-0.7l0.8-0.1
		v-0.9c0-1.2,0.5-1.9,1.7-1.9c0.4,0,0.7,0.1,1,0.2L459.5,539.8z"/>
	<path fill="#FFFFFF" d="M460.4,539h1v7.4c0,0.3,0.1,0.4,0.3,0.4c0.1,0,0.1,0,0.2,0l0.1,0.7c-0.1,0.1-0.3,0.1-0.6,0.1
		c-0.7,0-1-0.5-1-1.3V539z"/>
	<path fill="#FFFFFF" d="M465.6,541.6c1.5,0,2.3,1.1,2.3,2.7c0,0.2,0,0.4,0,0.5H464c0.1,1.3,0.8,2.1,1.9,2.1c0.6,0,1-0.2,1.5-0.5
		l0.3,0.6c-0.5,0.3-1.1,0.6-1.9,0.6c-1.6,0-2.8-1.1-2.8-3S464.3,541.6,465.6,541.6z M467.1,544.2c0-1.2-0.5-1.8-1.4-1.8
		c-0.8,0-1.6,0.7-1.7,1.8H467.1z"/>
	<path fill="#FFFFFF" d="M470.4,544.5l-1.8-2.8h1.1l0.8,1.3c0.2,0.3,0.4,0.6,0.6,1h0c0.2-0.3,0.3-0.7,0.5-1l0.7-1.3h1l-1.8,2.9
		l1.9,2.9h-1.1l-0.9-1.4c-0.2-0.3-0.4-0.7-0.6-1h0c-0.2,0.3-0.4,0.7-0.6,1l-0.8,1.4h-1L470.4,544.5z"/>
	<path fill="#FFFFFF" d="M474.7,541.7h0.8l0.1,1.1h0c0.4-0.7,1-1.2,1.7-1.2c0.3,0,0.4,0,0.6,0.1l-0.2,0.9c-0.2-0.1-0.3-0.1-0.6-0.1
		c-0.5,0-1.1,0.4-1.5,1.3v3.7h-1V541.7z"/>
	<path fill="#FFFFFF" d="M478.7,541.7h1v3.6c0,1.1,0.3,1.6,1.1,1.6c0.6,0,1-0.3,1.6-1v-4.1h1v5.8h-0.8l-0.1-0.9h0
		c-0.5,0.6-1.1,1.1-1.9,1.1c-1.2,0-1.8-0.8-1.8-2.3V541.7z"/>
	<path fill="#FFFFFF" d="M485.3,541.7h0.8l0.1,0.8h0c0.6-0.6,1.2-1,2-1c1.2,0,1.8,0.8,1.8,2.3v3.7h-1V544c0-1.1-0.3-1.6-1.1-1.6
		c-0.6,0-1,0.3-1.6,0.9v4.2h-1V541.7z"/>
	<path fill="#FFFFFF" d="M497.6,543.8c0-0.7-0.3-1.5-1.2-1.5c-0.7,0-1.3,0.3-1.7,0.6l-0.4-0.7c0.5-0.3,1.4-0.8,2.3-0.8
		c1.4,0,2,0.9,2,2.4v3.6h-0.8l-0.1-0.7h0c-0.6,0.5-1.2,0.8-1.9,0.8c-1,0-1.7-0.6-1.7-1.7C494,544.8,495.1,544.1,497.6,543.8z
		 M496,546.9c0.6,0,1-0.3,1.6-0.8v-1.6c-2,0.2-2.6,0.7-2.6,1.5C495,546.6,495.5,546.9,496,546.9z"/>
	<path fill="#FFFFFF" d="M500.5,541.7h0.8l0.1,1.1h0c0.4-0.7,1-1.2,1.7-1.2c0.3,0,0.4,0,0.6,0.1l-0.2,0.9c-0.2-0.1-0.3-0.1-0.6-0.1
		c-0.5,0-1.1,0.4-1.5,1.3v3.7h-1V541.7z"/>
	<path fill="#FFFFFF" d="M506.7,541.6c1.5,0,2.3,1.1,2.3,2.7c0,0.2,0,0.4,0,0.5h-3.9c0.1,1.3,0.8,2.1,1.9,2.1c0.6,0,1-0.2,1.5-0.5
		l0.3,0.6c-0.5,0.3-1.1,0.6-1.9,0.6c-1.6,0-2.8-1.1-2.8-3S505.4,541.6,506.7,541.6z M508.2,544.2c0-1.2-0.5-1.8-1.4-1.8
		c-0.8,0-1.6,0.7-1.7,1.8H508.2z"/>
	<path fill="#FFFFFF" d="M512.9,539h1v7.4c0,0.3,0.1,0.4,0.3,0.4c0.1,0,0.1,0,0.2,0l0.1,0.7c-0.1,0.1-0.3,0.1-0.6,0.1
		c-0.7,0-1-0.5-1-1.3V539z"/>
	<path fill="#FFFFFF" d="M519.3,543.8c0-0.7-0.3-1.5-1.2-1.5c-0.7,0-1.3,0.3-1.7,0.6l-0.4-0.7c0.5-0.3,1.4-0.8,2.3-0.8
		c1.4,0,2,0.9,2,2.4v3.6h-0.8l-0.1-0.7h0c-0.6,0.5-1.2,0.8-1.9,0.8c-1,0-1.7-0.6-1.7-1.7C515.7,544.8,516.8,544.1,519.3,543.8z
		 M517.7,546.9c0.6,0,1-0.3,1.6-0.8v-1.6c-2,0.2-2.6,0.7-2.6,1.5C516.6,546.6,517.1,546.9,517.7,546.9z"/>
	<path fill="#FFFFFF" d="M522.1,539h1v2.3l0,1.1c0.5-0.5,1.2-0.8,1.8-0.8c1.5,0,2.3,1.2,2.3,3c0,2-1.2,3.2-2.5,3.2
		c-0.5,0-1.2-0.3-1.7-0.7h0l-0.1,0.6h-0.8V539z M524.5,546.9c1,0,1.7-0.9,1.7-2.3c0-1.3-0.4-2.1-1.5-2.1c-0.5,0-1,0.3-1.6,0.8v3.1
		C523.6,546.7,524.1,546.9,524.5,546.9z"/>
	<path fill="#FFFFFF" d="M530.9,541.6c1.5,0,2.3,1.1,2.3,2.7c0,0.2,0,0.4,0,0.5h-3.9c0.1,1.3,0.8,2.1,1.9,2.1c0.6,0,1-0.2,1.5-0.5
		l0.3,0.6c-0.5,0.3-1.1,0.6-1.9,0.6c-1.6,0-2.8-1.1-2.8-3S529.6,541.6,530.9,541.6z M532.4,544.2c0-1.2-0.5-1.8-1.4-1.8
		c-0.8,0-1.6,0.7-1.7,1.8H532.4z"/>
	<path fill="#FFFFFF" d="M534.7,539h1v7.4c0,0.3,0.1,0.4,0.3,0.4c0.1,0,0.1,0,0.2,0l0.1,0.7c-0.1,0.1-0.3,0.1-0.6,0.1
		c-0.7,0-1-0.5-1-1.3V539z"/>
	<path fill="#FFFFFF" d="M540,541.6c1.5,0,2.3,1.1,2.3,2.7c0,0.2,0,0.4,0,0.5h-3.9c0.1,1.3,0.8,2.1,1.9,2.1c0.6,0,1-0.2,1.5-0.5
		l0.3,0.6c-0.5,0.3-1.1,0.6-1.9,0.6c-1.6,0-2.8-1.1-2.8-3S538.6,541.6,540,541.6z M541.4,544.2c0-1.2-0.5-1.8-1.4-1.8
		c-0.8,0-1.6,0.7-1.7,1.8H541.4z"/>
	<path fill="#FFFFFF" d="M545.8,541.6c0.7,0,1.1,0.3,1.6,0.7l0-1V539h1v8.5h-0.8l-0.1-0.7h0c-0.5,0.4-1.1,0.8-1.8,0.8
		c-1.5,0-2.4-1.1-2.4-3C543.3,542.7,544.5,541.6,545.8,541.6z M545.9,546.9c0.5,0,1-0.3,1.5-0.8v-3c-0.5-0.4-0.9-0.6-1.4-0.6
		c-0.9,0-1.7,0.9-1.7,2.2C544.3,546,544.9,546.9,545.9,546.9z"/>
	<path fill="#FFFFFF" d="M552.1,541.7h1l0.9,3.4c0.1,0.6,0.2,1.1,0.3,1.6h0c0.1-0.5,0.3-1.1,0.4-1.6l0.9-3.4h1l0.9,3.4
		c0.1,0.6,0.3,1.1,0.4,1.6h0c0.1-0.5,0.2-1.1,0.4-1.6l0.9-3.4h0.9l-1.6,5.8h-1.2l-0.8-3.1c-0.1-0.6-0.3-1.1-0.4-1.7h0
		c-0.1,0.6-0.3,1.1-0.4,1.7l-0.8,3.1h-1.2L552.1,541.7z"/>
	<path fill="#FFFFFF" d="M561.2,539.9c0-0.4,0.3-0.6,0.7-0.6s0.7,0.3,0.7,0.6c0,0.4-0.3,0.6-0.7,0.6S561.2,540.3,561.2,539.9z
		 M561.4,541.7h1v5.8h-1V541.7z"/>
	<path fill="#FFFFFF" d="M564.5,542.5h-0.9v-0.7l0.9-0.1l0.1-1.6h0.8v1.6h1.6v0.8h-1.6v3.2c0,0.7,0.2,1.1,0.9,1.1
		c0.2,0,0.5-0.1,0.7-0.2l0.2,0.7c-0.3,0.1-0.7,0.2-1.1,0.2c-1.2,0-1.7-0.8-1.7-1.9V542.5z"/>
	<path fill="#FFFFFF" d="M568.4,539h1v2.3l0,1.2c0.6-0.5,1.1-1,1.9-1c1.2,0,1.8,0.8,1.8,2.3v3.7h-1V544c0-1.1-0.3-1.6-1.1-1.6
		c-0.6,0-1,0.3-1.6,0.9v4.2h-1V539z"/>
	<path fill="#FFFFFF" d="M578.6,539.7c-0.6,0.4-0.9,0.8-0.9,1.5c0,0,0.1,0,0.1,0c0.3,0,0.6,0.2,0.6,0.6c0,0.4-0.3,0.7-0.6,0.7
		c-0.5,0-0.8-0.4-0.8-1.1c0-1,0.4-1.7,1.3-2.1L578.6,539.7z M580.8,539.7c-0.6,0.4-0.9,0.8-0.9,1.5c0,0,0.1,0,0.1,0
		c0.3,0,0.6,0.2,0.6,0.6c0,0.4-0.3,0.7-0.6,0.7c-0.5,0-0.8-0.4-0.8-1.1c0-1,0.4-1.7,1.3-2.1L580.8,539.7z"/>
	<path fill="#FFFFFF" d="M586.9,547.5l-1.9-3.3h-1.4v3.3h-1v-7.9h2.5c1.6,0,2.7,0.6,2.7,2.2c0,1.2-0.7,2-1.8,2.2l2,3.4H586.9z
		 M583.6,543.4h1.3c1.2,0,1.9-0.5,1.9-1.5c0-1-0.7-1.4-1.9-1.4h-1.3V543.4z"/>
	<path fill="#FFFFFF" d="M593.8,547.5l-1.9-3.3h-1.4v3.3h-1v-7.9h2.5c1.6,0,2.7,0.6,2.7,2.2c0,1.2-0.7,2-1.8,2.2l2,3.4H593.8z
		 M590.5,543.4h1.3c1.2,0,1.9-0.5,1.9-1.5c0-1-0.7-1.4-1.9-1.4h-1.3V543.4z"/>
	<path fill="#FFFFFF" d="M596.1,541.9c0.6-0.4,0.9-0.8,0.9-1.5c0,0-0.1,0-0.1,0c-0.3,0-0.6-0.2-0.6-0.6c0-0.4,0.3-0.7,0.6-0.7
		c0.5,0,0.8,0.4,0.8,1.1c0,1-0.5,1.6-1.3,2.1L596.1,541.9z M598.2,541.9c0.6-0.4,0.9-0.8,0.9-1.5c0,0-0.1,0-0.1,0
		c-0.3,0-0.6-0.2-0.6-0.6c0-0.4,0.3-0.7,0.6-0.7c0.5,0,0.8,0.4,0.8,1.1c0,1-0.4,1.6-1.3,2.1L598.2,541.9z"/>
	<path fill="#FFFFFF" d="M603.4,544.2h2.8v0.8h-2.8V544.2z"/>
	<path fill="#FFFFFF" d="M613.7,545.1h-2.9l-0.8,2.4h-1l2.7-7.9h1.1l2.7,7.9h-1.1L613.7,545.1z M613.4,544.3l-0.4-1.2
		c-0.3-0.9-0.5-1.7-0.8-2.7h0c-0.3,0.9-0.5,1.8-0.8,2.7l-0.4,1.2H613.4z"/>
	<path fill="#FFFFFF" d="M616.5,539h1v7.4c0,0.3,0.1,0.4,0.3,0.4c0.1,0,0.1,0,0.2,0l0.1,0.7c-0.1,0.1-0.3,0.1-0.6,0.1
		c-0.7,0-1-0.5-1-1.3V539z"/>
	<path fill="#FFFFFF" d="M619.5,539h1v7.4c0,0.3,0.1,0.4,0.3,0.4c0.1,0,0.1,0,0.2,0l0.1,0.7c-0.1,0.1-0.3,0.1-0.6,0.1
		c-0.7,0-1-0.5-1-1.3V539z"/>
	<path fill="#FFFFFF" d="M629.4,547.5l-1.9-3.3h-1.4v3.3h-1v-7.9h2.5c1.6,0,2.7,0.6,2.7,2.2c0,1.2-0.7,2-1.8,2.2l2,3.4H629.4z
		 M626.1,543.4h1.3c1.2,0,1.9-0.5,1.9-1.5c0-1-0.7-1.4-1.9-1.4h-1.3V543.4z"/>
	<path fill="#FFFFFF" d="M636.3,547.5l-1.9-3.3H633v3.3h-1v-7.9h2.5c1.6,0,2.7,0.6,2.7,2.2c0,1.2-0.7,2-1.8,2.2l2,3.4H636.3z
		 M633,543.4h1.3c1.2,0,1.9-0.5,1.9-1.5c0-1-0.7-1.4-1.9-1.4H633V543.4z"/>
	<path fill="#FFFFFF" d="M641.3,541.7h0.8l0.1,0.8h0c0.5-0.6,1.1-1,1.8-1c0.9,0,1.4,0.4,1.6,1.1c0.6-0.7,1.2-1.1,1.9-1.1
		c1.2,0,1.8,0.8,1.8,2.3v3.7h-1V544c0-1.1-0.3-1.6-1.1-1.6c-0.5,0-0.9,0.3-1.5,0.9v4.2h-1V544c0-1.1-0.3-1.6-1.1-1.6
		c-0.4,0-0.9,0.3-1.5,0.9v4.2h-1V541.7z"/>
	<path fill="#FFFFFF" d="M654.5,543.8c0-0.7-0.3-1.5-1.2-1.5c-0.7,0-1.3,0.3-1.7,0.6l-0.4-0.7c0.5-0.3,1.4-0.8,2.3-0.8
		c1.4,0,2,0.9,2,2.4v3.6h-0.8l-0.1-0.7h0c-0.6,0.5-1.2,0.8-1.9,0.8c-1,0-1.7-0.6-1.7-1.7C650.9,544.8,652,544.1,654.5,543.8z
		 M652.9,546.9c0.6,0,1-0.3,1.6-0.8v-1.6c-2,0.2-2.6,0.7-2.6,1.5C651.9,546.6,652.3,546.9,652.9,546.9z"/>
	<path fill="#FFFFFF" d="M658.3,548v2h-1v-8.3h0.8l0.1,0.7h0c0.5-0.4,1.2-0.8,1.9-0.8c1.5,0,2.3,1.2,2.3,3c0,2-1.2,3.1-2.5,3.1
		c-0.5,0-1.1-0.3-1.6-0.7L658.3,548z M659.8,546.9c1,0,1.7-0.9,1.7-2.3c0-1.3-0.4-2.1-1.5-2.1c-0.5,0-1,0.3-1.6,0.8v3.1
		C658.9,546.7,659.4,546.9,659.8,546.9z"/>
	<path fill="#FFFFFF" d="M663.9,546.2c0.5,0.4,1,0.7,1.7,0.7c0.8,0,1.2-0.4,1.2-0.9c0-0.6-0.7-0.9-1.3-1.1c-0.8-0.3-1.7-0.7-1.7-1.7
		c0-0.9,0.7-1.7,2-1.7c0.7,0,1.4,0.3,1.8,0.7l-0.5,0.6c-0.4-0.3-0.8-0.5-1.3-0.5c-0.7,0-1.1,0.4-1.1,0.8c0,0.5,0.6,0.8,1.3,1
		c0.8,0.3,1.8,0.7,1.8,1.8c0,0.9-0.8,1.7-2.1,1.7c-0.8,0-1.6-0.3-2.2-0.8L663.9,546.2z"/>
	<path fill="#FFFFFF" d="M674.8,543.8c0-0.7-0.3-1.5-1.2-1.5c-0.7,0-1.3,0.3-1.7,0.6l-0.4-0.7c0.5-0.3,1.4-0.8,2.3-0.8
		c1.4,0,2,0.9,2,2.4v3.6h-0.8l-0.1-0.7h0c-0.6,0.5-1.2,0.8-1.9,0.8c-1,0-1.7-0.6-1.7-1.7C671.2,544.8,672.3,544.1,674.8,543.8z
		 M673.2,546.9c0.6,0,1-0.3,1.6-0.8v-1.6c-2,0.2-2.6,0.7-2.6,1.5C672.1,546.6,672.6,546.9,673.2,546.9z"/>
	<path fill="#FFFFFF" d="M677.6,541.7h0.8l0.1,1.1h0c0.4-0.7,1-1.2,1.7-1.2c0.3,0,0.4,0,0.6,0.1l-0.2,0.9c-0.2-0.1-0.3-0.1-0.6-0.1
		c-0.5,0-1.1,0.4-1.5,1.3v3.7h-1V541.7z"/>
	<path fill="#FFFFFF" d="M683.8,541.6c1.5,0,2.3,1.1,2.3,2.7c0,0.2,0,0.4,0,0.5h-3.9c0.1,1.3,0.8,2.1,1.9,2.1c0.6,0,1-0.2,1.5-0.5
		l0.3,0.6c-0.5,0.3-1.1,0.6-1.9,0.6c-1.6,0-2.8-1.1-2.8-3S682.5,541.6,683.8,541.6z M685.3,544.2c0-1.2-0.5-1.8-1.4-1.8
		c-0.8,0-1.6,0.7-1.7,1.8H685.3z"/>
	<path fill="#FFFFFF" d="M692.3,541.6c1.4,0,2.7,1.1,2.7,3.1c0,1.9-1.3,3-2.7,3c-1.4,0-2.7-1.1-2.7-3
		C689.6,542.7,690.9,541.6,692.3,541.6z M692.3,546.9c1,0,1.7-0.9,1.7-2.2c0-1.3-0.7-2.3-1.7-2.3c-1,0-1.7,0.9-1.7,2.3
		C690.6,546,691.3,546.9,692.3,546.9z"/>
	<path fill="#FFFFFF" d="M696.5,541.7h0.8l0.1,0.8h0c0.6-0.6,1.2-1,2-1c1.2,0,1.8,0.8,1.8,2.3v3.7h-1V544c0-1.1-0.3-1.6-1.1-1.6
		c-0.6,0-1,0.3-1.6,0.9v4.2h-1V541.7z"/>
	<path fill="#FFFFFF" d="M705.7,542.5h-0.9v-0.7l0.9-0.1l0.1-1.6h0.8v1.6h1.6v0.8h-1.6v3.2c0,0.7,0.2,1.1,0.9,1.1
		c0.2,0,0.5-0.1,0.7-0.2l0.2,0.7c-0.3,0.1-0.7,0.2-1.1,0.2c-1.2,0-1.7-0.8-1.7-1.9V542.5z"/>
	<path fill="#FFFFFF" d="M709.6,539h1v2.3l0,1.2c0.6-0.5,1.1-1,1.9-1c1.2,0,1.8,0.8,1.8,2.3v3.7h-1V544c0-1.1-0.3-1.6-1.1-1.6
		c-0.6,0-1,0.3-1.6,0.9v4.2h-1V539z"/>
	<path fill="#FFFFFF" d="M718.3,541.6c1.5,0,2.3,1.1,2.3,2.7c0,0.2,0,0.4,0,0.5h-3.9c0.1,1.3,0.8,2.1,1.9,2.1c0.6,0,1-0.2,1.5-0.5
		l0.3,0.6c-0.5,0.3-1.1,0.6-1.9,0.6c-1.6,0-2.8-1.1-2.8-3S717,541.6,718.3,541.6z M719.7,544.2c0-1.2-0.5-1.8-1.4-1.8
		c-0.8,0-1.6,0.7-1.7,1.8H719.7z"/>
	<path fill="#FFFFFF" d="M724.5,539.7h2.4c1.7,0,2.9,0.6,2.9,2.3c0,1.7-1.2,2.4-2.9,2.4h-1.4v3.1h-1V539.7z M726.8,543.6
		c1.4,0,2-0.5,2-1.6c0-1.1-0.7-1.5-2-1.5h-1.3v3.1H726.8z"/>
	<path fill="#FFFFFF" d="M731.4,539.7h1v3.3h3.7v-3.3h1v7.9h-1v-3.7h-3.7v3.7h-1V539.7z"/>
	<path fill="#FFFFFF" d="M742.3,539.5c1.1,0,1.8,0.5,2.3,1l-0.6,0.6c-0.4-0.4-0.9-0.7-1.7-0.7c-1.6,0-2.6,1.2-2.6,3.2
		c0,2,0.9,3.2,2.6,3.2c0.6,0,1.1-0.2,1.4-0.5v-2.1h-1.7v-0.8h2.6v3.3c-0.5,0.5-1.4,0.9-2.4,0.9c-2.1,0-3.5-1.5-3.5-4.1
		C738.7,541.1,740.2,539.5,742.3,539.5z"/>
	<path fill="#FFFFFF" d="M746.5,539.7h2.4c1.7,0,2.9,0.6,2.9,2.3c0,1.7-1.2,2.4-2.9,2.4h-1.4v3.1h-1V539.7z M748.8,543.6
		c1.4,0,2-0.5,2-1.6c0-1.1-0.7-1.5-2-1.5h-1.3v3.1H748.8z"/>
	<path fill="#FFFFFF" d="M752.5,546.2c0.4,0,0.7,0.3,0.7,0.8c0,0.4-0.3,0.7-0.7,0.7c-0.4,0-0.7-0.3-0.7-0.7
		C751.7,546.5,752.1,546.2,752.5,546.2z"/>
	<path fill="#FFFFFF" d="M755.4,540.5H753v-0.8h5.8v0.8h-2.4v7h-1V540.5z"/>
	<path fill="#FFFFFF" d="M759,539.7h1.1l1.3,4.2c0.3,0.9,0.5,1.7,0.8,2.6h0c0.3-0.9,0.5-1.7,0.8-2.6l1.3-4.2h1l-2.5,7.9h-1.2
		L759,539.7z"/>
	<path fill="#FFFFFF" d="M773,547.5l-1.9-3.3h-1.4v3.3h-1v-7.9h2.5c1.6,0,2.7,0.6,2.7,2.2c0,1.2-0.7,2-1.8,2.2l2,3.4H773z
		 M769.6,543.4h1.3c1.2,0,1.9-0.5,1.9-1.5c0-1-0.7-1.4-1.9-1.4h-1.3V543.4z"/>
	<path fill="#FFFFFF" d="M777.6,541.6c1.5,0,2.3,1.1,2.3,2.7c0,0.2,0,0.4,0,0.5h-3.9c0.1,1.3,0.8,2.1,1.9,2.1c0.6,0,1-0.2,1.5-0.5
		l0.3,0.6c-0.5,0.3-1.1,0.6-1.9,0.6c-1.6,0-2.8-1.1-2.8-3S776.2,541.6,777.6,541.6z M779,544.2c0-1.2-0.5-1.8-1.4-1.8
		c-0.8,0-1.6,0.7-1.7,1.8H779z"/>
	<path fill="#FFFFFF" d="M783.9,539.8c-0.2-0.1-0.4-0.1-0.7-0.1c-0.6,0-0.8,0.4-0.8,1.1v0.9h1.2v0.8h-1.2v5h-1v-5h-0.8v-0.7l0.8-0.1
		v-0.9c0-1.2,0.5-1.9,1.7-1.9c0.4,0,0.7,0.1,1,0.2L783.9,539.8z"/>
	<path fill="#FFFFFF" d="M784.8,539h1v7.4c0,0.3,0.1,0.4,0.3,0.4c0.1,0,0.1,0,0.2,0l0.1,0.7c-0.1,0.1-0.3,0.1-0.6,0.1
		c-0.7,0-1-0.5-1-1.3V539z"/>
	<path fill="#FFFFFF" d="M790.1,541.6c1.5,0,2.3,1.1,2.3,2.7c0,0.2,0,0.4,0,0.5h-3.9c0.1,1.3,0.8,2.1,1.9,2.1c0.6,0,1-0.2,1.5-0.5
		l0.3,0.6c-0.5,0.3-1.1,0.6-1.9,0.6c-1.6,0-2.8-1.1-2.8-3S788.7,541.6,790.1,541.6z M791.5,544.2c0-1.2-0.5-1.8-1.4-1.8
		c-0.8,0-1.6,0.7-1.7,1.8H791.5z"/>
	<path fill="#FFFFFF" d="M794.8,544.5l-1.8-2.8h1.1l0.8,1.3c0.2,0.3,0.4,0.6,0.6,1h0c0.2-0.3,0.3-0.7,0.5-1l0.7-1.3h1l-1.8,2.9
		l1.9,2.9h-1.1l-0.9-1.4c-0.2-0.3-0.4-0.7-0.6-1h0c-0.2,0.3-0.4,0.7-0.6,1l-0.8,1.4h-1L794.8,544.5z"/>
	<path fill="#FFFFFF" d="M799.1,541.7h0.8l0.1,1.1h0c0.4-0.7,1-1.2,1.7-1.2c0.3,0,0.4,0,0.6,0.1l-0.2,0.9c-0.2-0.1-0.3-0.1-0.6-0.1
		c-0.5,0-1.1,0.4-1.5,1.3v3.7h-1V541.7z"/>
	<path fill="#FFFFFF" d="M803.2,541.7h1v3.6c0,1.1,0.3,1.6,1.1,1.6c0.6,0,1-0.3,1.6-1v-4.1h1v5.8H807l-0.1-0.9h0
		c-0.5,0.6-1.1,1.1-1.9,1.1c-1.2,0-1.8-0.8-1.8-2.3V541.7z"/>
	<path fill="#FFFFFF" d="M809.8,541.7h0.8l0.1,0.8h0c0.6-0.6,1.2-1,2-1c1.2,0,1.8,0.8,1.8,2.3v3.7h-1V544c0-1.1-0.3-1.6-1.1-1.6
		c-0.6,0-1,0.3-1.6,0.9v4.2h-1V541.7z"/>
	<path fill="#FFFFFF" d="M821.1,539h0.7l-3.2,10.4h-0.7L821.1,539z"/>
	<path fill="#FFFFFF" d="M825.5,539.7h1.2l1.5,4.2l0.6,1.6h0l0.6-1.6l1.5-4.2h1.2v7.9h-0.9v-4.3c0-0.7,0.1-1.6,0.1-2.3h0l-0.6,1.8
		l-1.5,4.1h-0.6l-1.5-4.1l-0.6-1.8h0c0,0.7,0.1,1.6,0.1,2.3v4.3h-0.9V539.7z"/>
	<path fill="#FFFFFF" d="M836.3,541.6c1.4,0,2.7,1.1,2.7,3.1c0,1.9-1.3,3-2.7,3c-1.4,0-2.7-1.1-2.7-3
		C833.6,542.7,834.9,541.6,836.3,541.6z M836.3,546.9c1,0,1.7-0.9,1.7-2.2c0-1.3-0.7-2.3-1.7-2.3c-1,0-1.7,0.9-1.7,2.3
		C834.7,546,835.3,546.9,836.3,546.9z"/>
	<path fill="#FFFFFF" d="M839.7,541.7h1l1.1,3.3c0.2,0.6,0.4,1.2,0.5,1.7h0c0.2-0.6,0.4-1.1,0.5-1.7l1.1-3.3h1l-2.1,5.8h-1.2
		L839.7,541.7z"/>
	<path fill="#FFFFFF" d="M848.3,541.6c1.5,0,2.3,1.1,2.3,2.7c0,0.2,0,0.4,0,0.5h-3.9c0.1,1.3,0.8,2.1,1.9,2.1c0.6,0,1-0.2,1.5-0.5
		l0.3,0.6c-0.5,0.3-1.1,0.6-1.9,0.6c-1.6,0-2.8-1.1-2.8-3S846.9,541.6,848.3,541.6z M849.7,544.2c0-1.2-0.5-1.8-1.4-1.8
		c-0.8,0-1.6,0.7-1.7,1.8H849.7z"/>
	<path fill="#FFFFFF" d="M852,541.7h0.8l0.1,0.8h0c0.5-0.6,1.1-1,1.8-1c0.9,0,1.4,0.4,1.6,1.1c0.6-0.7,1.2-1.1,1.9-1.1
		c1.2,0,1.8,0.8,1.8,2.3v3.7h-1V544c0-1.1-0.3-1.6-1.1-1.6c-0.5,0-0.9,0.3-1.5,0.9v4.2h-1V544c0-1.1-0.3-1.6-1.1-1.6
		c-0.4,0-0.9,0.3-1.5,0.9v4.2h-1V541.7z"/>
	<path fill="#FFFFFF" d="M864.2,541.6c1.5,0,2.3,1.1,2.3,2.7c0,0.2,0,0.4,0,0.5h-3.9c0.1,1.3,0.8,2.1,1.9,2.1c0.6,0,1-0.2,1.5-0.5
		l0.3,0.6c-0.5,0.3-1.1,0.6-1.9,0.6c-1.6,0-2.8-1.1-2.8-3S862.8,541.6,864.2,541.6z M865.6,544.2c0-1.2-0.5-1.8-1.4-1.8
		c-0.8,0-1.6,0.7-1.7,1.8H865.6z"/>
	<path fill="#FFFFFF" d="M867.9,541.7h0.8l0.1,0.8h0c0.6-0.6,1.2-1,2-1c1.2,0,1.8,0.8,1.8,2.3v3.7h-1V544c0-1.1-0.3-1.6-1.1-1.6
		c-0.6,0-1,0.3-1.6,0.9v4.2h-1V541.7z"/>
	<path fill="#FFFFFF" d="M874.7,542.5h-0.9v-0.7l0.9-0.1l0.1-1.6h0.8v1.6h1.6v0.8h-1.6v3.2c0,0.7,0.2,1.1,0.9,1.1
		c0.2,0,0.5-0.1,0.7-0.2l0.2,0.7c-0.3,0.1-0.7,0.2-1.1,0.2c-1.2,0-1.7-0.8-1.7-1.9V542.5z"/>
	<path fill="#FFFFFF" d="M880.8,546.2c0.5,0.4,1,0.7,1.7,0.7c0.8,0,1.2-0.4,1.2-0.9c0-0.6-0.7-0.9-1.3-1.1c-0.8-0.3-1.7-0.7-1.7-1.7
		c0-0.9,0.7-1.7,2-1.7c0.7,0,1.4,0.3,1.8,0.7l-0.5,0.6c-0.4-0.3-0.8-0.5-1.3-0.5c-0.7,0-1.1,0.4-1.1,0.8c0,0.5,0.6,0.8,1.3,1
		c0.8,0.3,1.8,0.7,1.8,1.8c0,0.9-0.8,1.7-2.1,1.7c-0.8,0-1.6-0.3-2.2-0.8L880.8,546.2z"/>
	<path fill="#FFFFFF" d="M888.2,541.6c1.5,0,2.3,1.1,2.3,2.7c0,0.2,0,0.4,0,0.5h-3.9c0.1,1.3,0.8,2.1,1.9,2.1c0.6,0,1-0.2,1.5-0.5
		l0.3,0.6c-0.5,0.3-1.1,0.6-1.9,0.6c-1.6,0-2.8-1.1-2.8-3S886.9,541.6,888.2,541.6z M889.7,544.2c0-1.2-0.5-1.8-1.4-1.8
		c-0.8,0-1.6,0.7-1.7,1.8H889.7z"/>
	<path fill="#FFFFFF" d="M892,541.7h0.8l0.1,1.1h0c0.4-0.7,1-1.2,1.7-1.2c0.3,0,0.4,0,0.6,0.1l-0.2,0.9c-0.2-0.1-0.3-0.1-0.6-0.1
		c-0.5,0-1.1,0.4-1.5,1.3v3.7h-1V541.7z"/>
	<path fill="#FFFFFF" d="M895.5,541.7h1l1.1,3.3c0.2,0.6,0.4,1.2,0.5,1.7h0c0.2-0.6,0.4-1.1,0.5-1.7l1.1-3.3h1l-2.1,5.8h-1.2
		L895.5,541.7z"/>
	<path fill="#FFFFFF" d="M904.1,541.6c1.5,0,2.3,1.1,2.3,2.7c0,0.2,0,0.4,0,0.5h-3.9c0.1,1.3,0.8,2.1,1.9,2.1c0.6,0,1-0.2,1.5-0.5
		l0.3,0.6c-0.5,0.3-1.1,0.6-1.9,0.6c-1.6,0-2.8-1.1-2.8-3S902.8,541.6,904.1,541.6z M905.6,544.2c0-1.2-0.5-1.8-1.4-1.8
		c-0.8,0-1.6,0.7-1.7,1.8H905.6z"/>
	<path fill="#FFFFFF" d="M907.9,541.7h0.8l0.1,1.1h0c0.4-0.7,1-1.2,1.7-1.2c0.3,0,0.4,0,0.6,0.1l-0.2,0.9c-0.2-0.1-0.3-0.1-0.6-0.1
		c-0.5,0-1.1,0.4-1.5,1.3v3.7h-1V541.7z"/>
	<path fill="#FFFFFF" d="M911.9,546.2c0.4,0,0.7,0.3,0.7,0.8c0,0.4-0.3,0.7-0.7,0.7c-0.4,0-0.7-0.3-0.7-0.7
		C911.1,546.5,911.5,546.2,911.9,546.2z"/>
	<path fill="#FFFFFF" d="M478.3,553.9c0.9,0,1.7,0.5,2.1,1l-0.6,0.6c-0.4-0.4-0.9-0.7-1.6-0.7c-1.5,0-2.5,1.2-2.5,3.2
		c0,2,0.9,3.2,2.4,3.2c0.7,0,1.3-0.3,1.8-0.9l0.6,0.6c-0.6,0.7-1.4,1.1-2.4,1.1c-2,0-3.5-1.5-3.5-4.1
		C474.8,555.5,476.3,553.9,478.3,553.9z"/>
	<path fill="#FFFFFF" d="M482,553.4h1v2.3l0,1.2c0.6-0.5,1.1-1,1.9-1c1.2,0,1.8,0.8,1.8,2.3v3.7h-1v-3.6c0-1.1-0.3-1.6-1.1-1.6
		c-0.6,0-1,0.3-1.6,0.9v4.2h-1V553.4z"/>
	<path fill="#FFFFFF" d="M490.7,556c1.5,0,2.3,1.1,2.3,2.7c0,0.2,0,0.4,0,0.5h-3.9c0.1,1.3,0.8,2.1,1.9,2.1c0.6,0,1-0.2,1.5-0.5
		l0.3,0.6c-0.5,0.3-1.1,0.6-1.9,0.6c-1.6,0-2.8-1.1-2.8-3S489.4,556,490.7,556z M492.2,558.6c0-1.2-0.5-1.8-1.4-1.8
		c-0.8,0-1.6,0.7-1.7,1.8H492.2z"/>
	<path fill="#FFFFFF" d="M496.8,556c0.8,0,1.3,0.3,1.7,0.7l-0.5,0.6c-0.3-0.3-0.7-0.5-1.2-0.5c-1.1,0-1.8,0.9-1.8,2.3
		c0,1.3,0.7,2.2,1.8,2.2c0.6,0,1-0.3,1.4-0.6l0.4,0.6c-0.5,0.5-1.2,0.8-1.9,0.8c-1.5,0-2.7-1.1-2.7-3C494,557.1,495.3,556,496.8,556
		z"/>
	<path fill="#FFFFFF" d="M499.9,553.4h1v5.8h0l2.5-3.1h1.1l-2,2.3l2.2,3.5h-1.1l-1.7-2.8l-1.1,1.3v1.5h-1V553.4z"/>
	<path fill="#FFFFFF" d="M507.6,556h1.8l0.6,2.8c0.1,0.6,0.2,1.2,0.3,1.8h0c0.1-0.6,0.2-1.2,0.3-1.8l0.7-2.8h1.5l0.7,2.8
		c0.1,0.6,0.3,1.2,0.4,1.8h0c0.1-0.6,0.2-1.2,0.3-1.8l0.6-2.8h1.6l-1.4,5.9h-2.1l-0.5-2.4c-0.1-0.6-0.2-1.1-0.3-1.7h0
		c-0.1,0.6-0.2,1.2-0.3,1.7l-0.5,2.4h-2L507.6,556z"/>
	<path fill="#FFFFFF" d="M516.9,556h1.8l0.6,2.8c0.1,0.6,0.2,1.2,0.3,1.8h0c0.1-0.6,0.2-1.2,0.3-1.8l0.7-2.8h1.5l0.7,2.8
		c0.1,0.6,0.3,1.2,0.4,1.8h0c0.1-0.6,0.2-1.2,0.3-1.8l0.6-2.8h1.6l-1.4,5.9h-2.1l-0.5-2.4c-0.1-0.6-0.2-1.1-0.3-1.7h0
		c-0.1,0.6-0.2,1.2-0.3,1.7l-0.5,2.4h-2L516.9,556z"/>
	<path fill="#FFFFFF" d="M526.2,556h1.8l0.6,2.8c0.1,0.6,0.2,1.2,0.3,1.8h0c0.1-0.6,0.2-1.2,0.3-1.8l0.7-2.8h1.5l0.7,2.8
		c0.1,0.6,0.3,1.2,0.4,1.8h0c0.1-0.6,0.2-1.2,0.3-1.8l0.6-2.8h1.6l-1.4,5.9h-2.1l-0.5-2.4c-0.1-0.6-0.2-1.1-0.3-1.7h0
		c-0.1,0.6-0.2,1.2-0.3,1.7l-0.5,2.4h-2L526.2,556z"/>
	<path fill="#FFFFFF" d="M536.1,559.9c0.6,0,1.1,0.5,1.1,1.1c0,0.6-0.5,1.1-1.1,1.1c-0.6,0-1.1-0.5-1.1-1.1
		C535,560.3,535.4,559.9,536.1,559.9z"/>
	<path fill="#FFFFFF" d="M540.4,562.4v1.7h-1.8V556h1.4l0.1,0.6h0c0.5-0.4,1.1-0.7,1.7-0.7c1.4,0,2.3,1.2,2.3,3c0,2-1.2,3.2-2.5,3.2
		c-0.5,0-1-0.2-1.4-0.6L540.4,562.4z M541.3,560.6c0.6,0,1.1-0.5,1.1-1.8c0-1.1-0.3-1.6-1-1.6c-0.4,0-0.7,0.2-1,0.5v2.4
		C540.7,560.6,541,560.6,541.3,560.6z"/>
	<path fill="#FFFFFF" d="M545.5,553.5h1.8v2.1l-0.1,1.1c0.4-0.4,1-0.8,1.8-0.8c1.3,0,1.8,0.9,1.8,2.4v3.7h-1.8v-3.5
		c0-0.9-0.2-1.1-0.7-1.1c-0.4,0-0.7,0.2-1.1,0.6v4h-1.8V553.5z"/>
	<path fill="#FFFFFF" d="M552.8,561.8L552.8,561.8c-0.3-0.3-0.6-0.6-0.6-1.1c0-0.4,0.3-0.9,0.7-1.1v0c-0.4-0.3-0.8-0.9-0.8-1.5
		c0-1.4,1.2-2.1,2.5-2.1c0.3,0,0.7,0,0.9,0.1h2.2v1.3h-0.9c0.1,0.2,0.2,0.5,0.2,0.8c0,1.4-1,2-2.3,2c-0.2,0-0.5,0-0.7-0.1
		c-0.2,0.1-0.2,0.2-0.2,0.4c0,0.3,0.2,0.4,0.9,0.4h1c1.5,0,2.3,0.4,2.3,1.5c0,1.2-1.3,2.1-3.3,2.1c-1.4,0-2.5-0.5-2.5-1.5
		C552,562.5,552.3,562.1,552.8,561.8z M554.8,563.4c0.8,0,1.4-0.3,1.4-0.7c0-0.4-0.3-0.5-0.9-0.5h-0.6c-0.4,0-0.6,0-0.8-0.1
		c-0.2,0.2-0.3,0.4-0.3,0.6C553.4,563.1,554,563.4,554.8,563.4z M555.4,558c0-0.6-0.3-1-0.8-1s-0.8,0.3-0.8,1c0,0.7,0.3,1,0.8,1
		S555.4,558.7,555.4,558z"/>
	<path fill="#FFFFFF" d="M560.5,562.4v1.7h-1.8V556h1.4l0.1,0.6h0c0.5-0.4,1.1-0.7,1.7-0.7c1.4,0,2.3,1.2,2.3,3c0,2-1.2,3.2-2.5,3.2
		c-0.5,0-1-0.2-1.4-0.6L560.5,562.4z M561.5,560.6c0.6,0,1.1-0.5,1.1-1.8c0-1.1-0.3-1.6-1-1.6c-0.4,0-0.7,0.2-1,0.5v2.4
		C560.8,560.6,561.2,560.6,561.5,560.6z"/>
	<path fill="#FFFFFF" d="M566.5,559.9c0.6,0,1.1,0.5,1.1,1.1c0,0.6-0.5,1.1-1.1,1.1c-0.6,0-1.1-0.5-1.1-1.1
		C565.5,560.3,565.9,559.9,566.5,559.9z"/>
	<path fill="#FFFFFF" d="M569.1,557.4h-0.8v-1.3l0.9-0.1l0.2-1.6h1.5v1.6h1.4v1.4h-1.4v2.4c0,0.7,0.3,0.9,0.8,0.9
		c0.2,0,0.4-0.1,0.6-0.1l0.3,1.3c-0.3,0.1-0.7,0.2-1.3,0.2c-1.5,0-2.1-0.9-2.1-2.3V557.4z"/>
	<path fill="#FFFFFF" d="M572.8,556h1.8l0.8,2.8c0.2,0.6,0.3,1.2,0.5,1.8h0c0.1-0.6,0.3-1.2,0.5-1.8l0.8-2.8h1.7l-1.9,5.9h-2
		L572.8,556z"/>
	<path fill="#FFFFFF" d="M585,554.2c-0.2-0.1-0.4-0.1-0.7-0.1c-0.6,0-0.8,0.4-0.8,1.1v0.9h1.2v0.8h-1.2v5h-1v-5h-0.8v-0.7l0.8-0.1
		v-0.9c0-1.2,0.5-1.9,1.7-1.9c0.4,0,0.7,0.1,1,0.2L585,554.2z"/>
	<path fill="#FFFFFF" d="M588,556c1.4,0,2.7,1.1,2.7,3.1c0,1.9-1.3,3-2.7,3s-2.7-1.1-2.7-3C585.3,557.1,586.6,556,588,556z
		 M588,561.3c1,0,1.7-0.9,1.7-2.2c0-1.3-0.7-2.3-1.7-2.3c-1,0-1.7,0.9-1.7,2.3C586.3,560.4,587,561.3,588,561.3z"/>
	<path fill="#FFFFFF" d="M592.3,556.1h0.8l0.1,1.1h0c0.4-0.7,1-1.2,1.7-1.2c0.3,0,0.4,0,0.6,0.1l-0.2,0.9c-0.2-0.1-0.3-0.1-0.6-0.1
		c-0.5,0-1.1,0.4-1.5,1.3v3.7h-1V556.1z"/>
	<path fill="#FFFFFF" d="M598.8,556.1h0.8l0.1,0.8h0c0.5-0.6,1.1-1,1.8-1c0.9,0,1.4,0.4,1.6,1.1c0.6-0.7,1.2-1.1,1.9-1.1
		c1.2,0,1.8,0.8,1.8,2.3v3.7h-1v-3.6c0-1.1-0.3-1.6-1.1-1.6c-0.5,0-0.9,0.3-1.5,0.9v4.2h-1v-3.6c0-1.1-0.3-1.6-1.1-1.6
		c-0.4,0-0.9,0.3-1.5,0.9v4.2h-1V556.1z"/>
	<path fill="#FFFFFF" d="M611.1,556c1.4,0,2.7,1.1,2.7,3.1c0,1.9-1.3,3-2.7,3s-2.7-1.1-2.7-3C608.4,557.1,609.6,556,611.1,556z
		 M611.1,561.3c1,0,1.7-0.9,1.7-2.2c0-1.3-0.7-2.3-1.7-2.3c-1,0-1.7,0.9-1.7,2.3C609.4,560.4,610.1,561.3,611.1,561.3z"/>
	<path fill="#FFFFFF" d="M615.3,556.1h0.8l0.1,1.1h0c0.4-0.7,1-1.2,1.7-1.2c0.3,0,0.4,0,0.6,0.1l-0.2,0.9c-0.2-0.1-0.3-0.1-0.6-0.1
		c-0.5,0-1.1,0.4-1.5,1.3v3.7h-1V556.1z"/>
	<path fill="#FFFFFF" d="M621.5,556c1.5,0,2.3,1.1,2.3,2.7c0,0.2,0,0.4,0,0.5h-3.9c0.1,1.3,0.8,2.1,1.9,2.1c0.6,0,1-0.2,1.5-0.5
		l0.3,0.6c-0.5,0.3-1.1,0.6-1.9,0.6c-1.6,0-2.8-1.1-2.8-3S620.2,556,621.5,556z M623,558.6c0-1.2-0.5-1.8-1.4-1.8
		c-0.8,0-1.6,0.7-1.7,1.8H623z"/>
	<path fill="#FFFFFF" d="M627.5,554.3c0-0.4,0.3-0.6,0.7-0.6s0.7,0.3,0.7,0.6c0,0.4-0.3,0.6-0.7,0.6S627.5,554.7,627.5,554.3z
		 M627.7,556.1h1v5.8h-1V556.1z"/>
	<path fill="#FFFFFF" d="M630.7,556.1h0.8l0.1,0.8h0c0.6-0.6,1.2-1,2-1c1.2,0,1.8,0.8,1.8,2.3v3.7h-1v-3.6c0-1.1-0.3-1.6-1.1-1.6
		c-0.6,0-1,0.3-1.6,0.9v4.2h-1V556.1z"/>
	<path fill="#FFFFFF" d="M639.9,554.2c-0.2-0.1-0.4-0.1-0.7-0.1c-0.6,0-0.8,0.4-0.8,1.1v0.9h1.2v0.8h-1.2v5h-1v-5h-0.8v-0.7l0.8-0.1
		v-0.9c0-1.2,0.5-1.9,1.7-1.9c0.4,0,0.7,0.1,1,0.2L639.9,554.2z"/>
	<path fill="#FFFFFF" d="M642.9,556c1.4,0,2.7,1.1,2.7,3.1c0,1.9-1.3,3-2.7,3c-1.4,0-2.7-1.1-2.7-3C640.2,557.1,641.4,556,642.9,556
		z M642.9,561.3c1,0,1.7-0.9,1.7-2.2c0-1.3-0.7-2.3-1.7-2.3c-1,0-1.7,0.9-1.7,2.3C641.2,560.4,641.9,561.3,642.9,561.3z"/>
	<path fill="#FFFFFF" d="M647.1,556.1h0.8l0.1,1.1h0c0.4-0.7,1-1.2,1.7-1.2c0.3,0,0.4,0,0.6,0.1l-0.2,0.9c-0.2-0.1-0.3-0.1-0.6-0.1
		c-0.5,0-1.1,0.4-1.5,1.3v3.7h-1V556.1z"/>
	<path fill="#FFFFFF" d="M651.3,556.1h0.8l0.1,0.8h0c0.5-0.6,1.1-1,1.8-1c0.9,0,1.4,0.4,1.6,1.1c0.6-0.7,1.2-1.1,1.9-1.1
		c1.2,0,1.8,0.8,1.8,2.3v3.7h-1v-3.6c0-1.1-0.3-1.6-1.1-1.6c-0.5,0-0.9,0.3-1.5,0.9v4.2h-1v-3.6c0-1.1-0.3-1.6-1.1-1.6
		c-0.4,0-0.9,0.3-1.5,0.9v4.2h-1V556.1z"/>
	<path fill="#FFFFFF" d="M664.5,558.3c0-0.7-0.3-1.5-1.2-1.5c-0.7,0-1.3,0.3-1.7,0.6l-0.4-0.7c0.5-0.3,1.4-0.8,2.3-0.8
		c1.4,0,2,0.9,2,2.4v3.6h-0.8l-0.1-0.7h0c-0.6,0.5-1.2,0.8-1.9,0.8c-1,0-1.7-0.6-1.7-1.7C660.9,559.2,662,558.5,664.5,558.3z
		 M662.9,561.3c0.6,0,1-0.3,1.6-0.8v-1.6c-2,0.2-2.6,0.7-2.6,1.5C661.9,561,662.4,561.3,662.9,561.3z"/>
	<path fill="#FFFFFF" d="M667.5,556.9h-0.9v-0.7l0.9-0.1l0.1-1.6h0.8v1.6h1.6v0.8h-1.6v3.2c0,0.7,0.2,1.1,0.9,1.1
		c0.2,0,0.5-0.1,0.7-0.2l0.2,0.7c-0.3,0.1-0.7,0.2-1.1,0.2c-1.2,0-1.7-0.8-1.7-1.9V556.9z"/>
	<path fill="#FFFFFF" d="M671.2,554.3c0-0.4,0.3-0.6,0.7-0.6s0.7,0.3,0.7,0.6c0,0.4-0.3,0.6-0.7,0.6S671.2,554.7,671.2,554.3z
		 M671.4,556.1h1v5.8h-1V556.1z"/>
	<path fill="#FFFFFF" d="M676.6,556c1.4,0,2.7,1.1,2.7,3.1c0,1.9-1.3,3-2.7,3c-1.4,0-2.7-1.1-2.7-3C673.9,557.1,675.2,556,676.6,556
		z M676.6,561.3c1,0,1.7-0.9,1.7-2.2c0-1.3-0.7-2.3-1.7-2.3c-1,0-1.7,0.9-1.7,2.3C675,560.4,675.6,561.3,676.6,561.3z"/>
	<path fill="#FFFFFF" d="M680.9,556.1h0.8l0.1,0.8h0c0.6-0.6,1.2-1,2-1c1.2,0,1.8,0.8,1.8,2.3v3.7h-1v-3.6c0-1.1-0.3-1.6-1.1-1.6
		c-0.6,0-1,0.3-1.6,0.9v4.2h-1V556.1z"/>
	<path fill="#FFFFFF" d="M687,563.4c0.7-0.3,1.1-0.8,1.1-1.5c0,0-0.1,0-0.1,0c-0.4,0-0.7-0.2-0.7-0.7c0-0.4,0.3-0.7,0.7-0.7
		c0.5,0,0.8,0.4,0.8,1.2c0,1-0.6,1.8-1.6,2.2L687,563.4z"/>
	<path fill="#FFFFFF" d="M693,556.9h-0.9v-0.7l0.9-0.1l0.1-1.6h0.8v1.6h1.6v0.8H694v3.2c0,0.7,0.2,1.1,0.9,1.1
		c0.2,0,0.5-0.1,0.7-0.2l0.2,0.7c-0.3,0.1-0.7,0.2-1.1,0.2c-1.2,0-1.7-0.8-1.7-1.9V556.9z"/>
	<path fill="#FFFFFF" d="M696.8,556.1h1v3.6c0,1.1,0.3,1.6,1.1,1.6c0.6,0,1-0.3,1.6-1v-4.1h1v5.8h-0.8l-0.1-0.9h0
		c-0.5,0.6-1.1,1.1-1.9,1.1c-1.2,0-1.8-0.8-1.8-2.3V556.1z"/>
	<path fill="#FFFFFF" d="M703.5,556.9h-0.9v-0.7l0.9-0.1l0.1-1.6h0.8v1.6h1.6v0.8h-1.6v3.2c0,0.7,0.2,1.1,0.9,1.1
		c0.2,0,0.5-0.1,0.7-0.2l0.2,0.7c-0.3,0.1-0.7,0.2-1.1,0.2c-1.2,0-1.7-0.8-1.7-1.9V556.9z"/>
	<path fill="#FFFFFF" d="M709.6,556c1.4,0,2.7,1.1,2.7,3.1c0,1.9-1.3,3-2.7,3c-1.4,0-2.7-1.1-2.7-3C706.9,557.1,708.1,556,709.6,556
		z M709.6,561.3c1,0,1.7-0.9,1.7-2.2c0-1.3-0.7-2.3-1.7-2.3c-1,0-1.7,0.9-1.7,2.3C707.9,560.4,708.6,561.3,709.6,561.3z"/>
	<path fill="#FFFFFF" d="M713.8,556.1h0.8l0.1,1.1h0c0.4-0.7,1-1.2,1.7-1.2c0.3,0,0.4,0,0.6,0.1l-0.2,0.9c-0.2-0.1-0.3-0.1-0.6-0.1
		c-0.5,0-1.1,0.4-1.5,1.3v3.7h-1V556.1z"/>
	<path fill="#FFFFFF" d="M717.8,554.3c0-0.4,0.3-0.6,0.7-0.6s0.7,0.3,0.7,0.6c0,0.4-0.3,0.6-0.7,0.6S717.8,554.7,717.8,554.3z
		 M718,556.1h1v5.8h-1V556.1z"/>
	<path fill="#FFFFFF" d="M724.2,558.3c0-0.7-0.3-1.5-1.2-1.5c-0.7,0-1.3,0.3-1.7,0.6l-0.4-0.7c0.5-0.3,1.4-0.8,2.3-0.8
		c1.4,0,2,0.9,2,2.4v3.6h-0.8l-0.1-0.7h0c-0.6,0.5-1.2,0.8-1.9,0.8c-1,0-1.7-0.6-1.7-1.7C720.6,559.2,721.7,558.5,724.2,558.3z
		 M722.6,561.3c0.6,0,1-0.3,1.6-0.8v-1.6c-2,0.2-2.6,0.7-2.6,1.5C721.6,561,722,561.3,722.6,561.3z"/>
	<path fill="#FFFFFF" d="M727.1,553.4h1v7.4c0,0.3,0.1,0.4,0.3,0.4c0.1,0,0.1,0,0.2,0l0.1,0.7c-0.1,0.1-0.3,0.1-0.6,0.1
		c-0.7,0-1-0.5-1-1.3V553.4z"/>
	<path fill="#FFFFFF" d="M730,560.6c0.5,0.4,1,0.7,1.7,0.7c0.8,0,1.2-0.4,1.2-0.9c0-0.6-0.7-0.9-1.3-1.1c-0.8-0.3-1.7-0.7-1.7-1.7
		c0-0.9,0.7-1.7,2-1.7c0.7,0,1.4,0.3,1.8,0.7l-0.5,0.6c-0.4-0.3-0.8-0.5-1.3-0.5c-0.7,0-1.1,0.4-1.1,0.8c0,0.5,0.6,0.8,1.3,1
		c0.8,0.3,1.8,0.7,1.8,1.8c0,0.9-0.8,1.7-2.1,1.7c-0.8,0-1.6-0.3-2.2-0.8L730,560.6z"/>
	<path fill="#FFFFFF" d="M734.7,563.4c0.7-0.3,1.1-0.8,1.1-1.5c0,0-0.1,0-0.1,0c-0.4,0-0.7-0.2-0.7-0.7c0-0.4,0.3-0.7,0.7-0.7
		c0.5,0,0.8,0.4,0.8,1.2c0,1-0.6,1.8-1.6,2.2L734.7,563.4z"/>
	<path fill="#FFFFFF" d="M743.9,558.3c0-0.7-0.3-1.5-1.2-1.5c-0.7,0-1.3,0.3-1.7,0.6l-0.4-0.7c0.5-0.3,1.4-0.8,2.3-0.8
		c1.4,0,2,0.9,2,2.4v3.6H744l-0.1-0.7h0c-0.6,0.5-1.2,0.8-1.9,0.8c-1,0-1.7-0.6-1.7-1.7C740.3,559.2,741.4,558.5,743.9,558.3z
		 M742.3,561.3c0.6,0,1-0.3,1.6-0.8v-1.6c-2,0.2-2.6,0.7-2.6,1.5C741.3,561,741.7,561.3,742.3,561.3z"/>
	<path fill="#FFFFFF" d="M746.7,556.1h0.8l0.1,0.8h0c0.6-0.6,1.2-1,2-1c1.2,0,1.8,0.8,1.8,2.3v3.7h-1v-3.6c0-1.1-0.3-1.6-1.1-1.6
		c-0.6,0-1,0.3-1.6,0.9v4.2h-1V556.1z"/>
	<path fill="#FFFFFF" d="M755.4,556c0.7,0,1.1,0.3,1.6,0.7l0-1v-2.2h1v8.5h-0.8l-0.1-0.7h0c-0.5,0.4-1.1,0.8-1.8,0.8
		c-1.5,0-2.4-1.1-2.4-3C752.9,557.1,754.1,556,755.4,556z M755.5,561.3c0.5,0,1-0.3,1.5-0.8v-3c-0.5-0.4-0.9-0.6-1.4-0.6
		c-0.9,0-1.7,0.9-1.7,2.2C753.9,560.4,754.5,561.3,755.5,561.3z"/>
	<path fill="#FFFFFF" d="M762.3,556.1h1v3.6c0,1.1,0.3,1.6,1.1,1.6c0.6,0,1-0.3,1.6-1v-4.1h1v5.8h-0.8L766,561h0
		c-0.5,0.6-1.1,1.1-1.9,1.1c-1.2,0-1.8-0.8-1.8-2.3V556.1z"/>
	<path fill="#FFFFFF" d="M769.9,562.4v2h-1v-8.3h0.8l0.1,0.7h0c0.5-0.4,1.2-0.8,1.9-0.8c1.5,0,2.3,1.2,2.3,3c0,2-1.2,3.1-2.5,3.1
		c-0.5,0-1.1-0.3-1.6-0.7L769.9,562.4z M771.3,561.3c1,0,1.7-0.9,1.7-2.3c0-1.3-0.4-2.1-1.5-2.1c-0.5,0-1,0.3-1.6,0.8v3.1
		C770.4,561.1,770.9,561.3,771.3,561.3z"/>
	<path fill="#FFFFFF" d="M777.7,556c0.7,0,1.1,0.3,1.6,0.7l0-1v-2.2h1v8.5h-0.8l-0.1-0.7h0c-0.5,0.4-1.1,0.8-1.8,0.8
		c-1.5,0-2.4-1.1-2.4-3C775.1,557.1,776.3,556,777.7,556z M777.8,561.3c0.5,0,1-0.3,1.5-0.8v-3c-0.5-0.4-0.9-0.6-1.4-0.6
		c-0.9,0-1.7,0.9-1.7,2.2C776.1,560.4,776.7,561.3,777.8,561.3z"/>
	<path fill="#FFFFFF" d="M785.5,558.3c0-0.7-0.3-1.5-1.2-1.5c-0.7,0-1.3,0.3-1.7,0.6l-0.4-0.7c0.5-0.3,1.4-0.8,2.3-0.8
		c1.4,0,2,0.9,2,2.4v3.6h-0.8l-0.1-0.7h0c-0.6,0.5-1.2,0.8-1.9,0.8c-1,0-1.7-0.6-1.7-1.7C781.9,559.2,783,558.5,785.5,558.3z
		 M783.9,561.3c0.6,0,1-0.3,1.6-0.8v-1.6c-2,0.2-2.6,0.7-2.6,1.5C782.9,561,783.3,561.3,783.9,561.3z"/>
	<path fill="#FFFFFF" d="M788.5,556.9h-0.9v-0.7l0.9-0.1l0.1-1.6h0.8v1.6h1.6v0.8h-1.6v3.2c0,0.7,0.2,1.1,0.9,1.1
		c0.2,0,0.5-0.1,0.7-0.2l0.2,0.7c-0.3,0.1-0.7,0.2-1.1,0.2c-1.2,0-1.7-0.8-1.7-1.9V556.9z"/>
	<path fill="#FFFFFF" d="M794.5,556c1.5,0,2.3,1.1,2.3,2.7c0,0.2,0,0.4,0,0.5h-3.9c0.1,1.3,0.8,2.1,1.9,2.1c0.6,0,1-0.2,1.5-0.5
		l0.3,0.6c-0.5,0.3-1.1,0.6-1.9,0.6c-1.6,0-2.8-1.1-2.8-3S793.1,556,794.5,556z M795.9,558.6c0-1.2-0.5-1.8-1.4-1.8
		c-0.8,0-1.6,0.7-1.7,1.8H795.9z"/>
	<path fill="#FFFFFF" d="M798.1,560.6c0.5,0.4,1,0.7,1.7,0.7c0.8,0,1.2-0.4,1.2-0.9c0-0.6-0.7-0.9-1.3-1.1c-0.8-0.3-1.7-0.7-1.7-1.7
		c0-0.9,0.7-1.7,2-1.7c0.7,0,1.4,0.3,1.8,0.7l-0.5,0.6c-0.4-0.3-0.8-0.5-1.3-0.5c-0.7,0-1.1,0.4-1.1,0.8c0,0.5,0.6,0.8,1.3,1
		c0.8,0.3,1.8,0.7,1.8,1.8c0,0.9-0.8,1.7-2.1,1.7c-0.8,0-1.6-0.3-2.2-0.8L798.1,560.6z"/>
	<path fill="#FFFFFF" d="M804,560.6c0.4,0,0.7,0.3,0.7,0.8c0,0.4-0.3,0.7-0.7,0.7c-0.4,0-0.7-0.3-0.7-0.7
		C803.3,560.9,803.6,560.6,804,560.6z M803.5,555l0-1.1h1l0,1.1l-0.1,4.5h-0.7L803.5,555z"/>
</g>
<g>
	<path fill="#FFFFFF" d="M391.4,195v63h-63v-63H391.4z M368.8,244.1h8.6l-12.4-14h12.4v-21h-35v35h7v-14h7L368.8,244.1z M370.4,216
		v7h-21v-7H370.4z"/>
	<path fill="#FFFFFF" d="M461.5,195v63h-63v-63H461.5z M412.5,244.1h35v-7h-28v-21h28v-7h-35V244.1z M423,230.1h24.5v-7H423V230.1z"
		/>
	<path fill="#FFFFFF" d="M531.5,195v63h-63v-63H531.5z M482.5,244.1h7v-14h28v-7h-28v-7h28v-7h-35V244.1z"/>
	<path fill="#FFFFFF" d="M601.5,195v63h-63v-63H601.5z M552.5,244.1h35v-7h-28v-28h-7V244.1z"/>
	<path fill="#FFFFFF" d="M671.5,195v63h-63v-63H671.5z M622.5,244.1h35v-7h-28v-21h28v-7h-35V244.1z M633,230.1h24.5v-7H633V230.1z"
		/>
	<path fill="#FFFFFF" d="M741.5,195v63h-63v-63H741.5z M692.5,244.1h8.8l8.8-11.7l8.8,11.7h8.8l-13.1-17.5l13.1-17.5h-8.8l-8.8,11.7
		l-8.8-11.7h-8.8l13.1,17.5L692.5,244.1z"/>
	<path fill="#FFFFFF" d="M811.5,195v63h-63v-63H811.5z M788.9,244.1h8.6l-12.4-14h12.4v-21h-35v35h7v-14h7L788.9,244.1z M790.5,216
		v7h-21v-7H790.5z"/>
	<path fill="#FFFFFF" d="M881.5,195v63h-63v-63H881.5z M832.5,209v35h35v-35h-7v28h-21v-28H832.5z"/>
	<path fill="#FFFFFF" d="M951.5,195v63h-63v-63H951.5z M909.5,244.1V220l21,24.1h7v-35h-7v24.8l-21-24.8h-7v35H909.5z"/>
</g>
<g>
	<g>
		<path fill="#FFFFFF" d="M657.9,376.1l1.4-1.9c0.8-1,0.6-2.4-0.4-3.2l-3.7-2.8c-1-0.8-2.4-0.6-3.2,0.4l-1.4,1.9
			c2.3,1.2,4.5,2.7,6.3,4.5C657.3,375.4,657.6,375.8,657.9,376.1z"/>
		<path fill="#FFFFFF" d="M640,368.1c1,0,2,0.1,2.9,0.2v-2.6h1.8c1.2,0,2.2-1,2.2-2.2v-1.1c0-1.2-1-2.2-2.2-2.2h-9.4
			c-1.2,0-2.2,1-2.2,2.2v1.1c0,1.2,1,2.2,2.2,2.2h1.8v2.6C638,368.1,639,368.1,640,368.1z"/>
		<path fill="#005A98" d="M640,414.6c12.4,0,22.4-10,22.4-22.4c0-5.6-2.1-10.8-5.5-14.7c-2-2.3-4.5-4.2-7.2-5.5
			c-2.1-1-4.4-1.7-6.8-2c-1-0.1-1.9-0.2-2.9-0.2s-2,0.1-2.9,0.2c-11,1.4-19.5,10.9-19.5,22.2C617.5,404.5,627.6,414.6,640,414.6z
			 M646.2,376.5c2.9,1.1,5.4,3.1,7.2,5.5c1.7,2.2,2.8,4.8,3.2,7.6c0.1,0.8,0.2,1.6,0.2,2.5h-11.1H640h-0.1v-0.1v-7.3v-9.4
			c0,0,0.1,0,0.1,0c0.8,0,1.6,0.1,2.4,0.2C643.7,375.7,645,376,646.2,376.5z"/>
	</g>
</g>
<g>
	<path fill="#005A98" d="M617.1,587.3H612l0.2-1.1h1.7l1.1-7.9h-2.2l-1.6,11.2h-3.4l1.7-12.4h9L617.1,587.3z"/>
	<path fill="#005A98" d="M627.2,587.3h-3.4l1.3-9h-2.2l-1.3,9h-3.4l1.7-12.3h3.4l-0.3,2.2h5.6L627.2,587.3z"/>
	<path fill="#FFFFFF" d="M637.2,589.5h-9l0.2-1.1h5.6l1.4-10.1h-2.2l-1.1,7.9h1.7l-0.2,1.1h-5.1l1.4-10.1h9L637.2,589.5z"/>
	<path fill="#FFFFFF" d="M647.7,587.3h-5.1l0.2-1.1h1.7l1.1-7.9h-2.2l-1.6,11.2h-3.4l1.7-12.4h9L647.7,587.3z"/>
	<path fill="#005A98" d="M651.2,587.3h-2.8l0.4-2.8h2.8L651.2,587.3z"/>
	<path fill="#FFFFFF" d="M660.9,587.3h-9l1.7-12.3h3.4l-0.3,2.2h5.6l-0.2,1.1h-5.6l-1.1,7.9h2.2l0.4-2.8h3.4L660.9,587.3z"/>
	<path fill="#FFFFFF" d="M672,578.3l-3.4,9h-4.7l-0.9-9l0.2-1.1h3.4l-0.1,0.7l0.5,4.7l1.8-4.7l0.1-0.7h3.4L672,578.3z"/>
</g>
</svg>
