<?xml version="1.0" encoding="utf-8"?>
<!-- Generator: Adobe Illustrator 18.1.1, SVG Export Plug-In . SVG Version: 6.00 Build 0)  -->
<svg version="1.1" id="Capa_1" xmlns="http://www.w3.org/2000/svg" xmlns:xlink="http://www.w3.org/1999/xlink" x="0px" y="0px"
	 viewBox="-24 26 450 450" enable-background="new -24 26 450 450" xml:space="preserve">
<g>
	<g>
		<path fill="#FFFFFF" d="M63.9,101.9c-1.9-7.4-9.4-11.9-16.8-10c-7.4,1.9-11.9,9.4-10,16.8l90.4,356.8c1.6,6.3,7.2,10.4,13.4,10.4
			c1.1,0,2.3-0.1,3.4-0.4c7.4-1.9,11.9-9.4,10-16.8L63.9,101.9z"/>
		<path fill="#FFFFFF" d="M365,202.4C350.2,148,335.5,93.6,320.7,39.2c-1.6-5.9-4.4-12.2-14.9-12.8c-82.9-6-137.3,76.5-220.2,70.5
			c-6.5-0.8-10.7,2.6-9.1,8.5c14.7,54.4,29.4,108.9,44.2,163.3c2.4,8.7,8.4,12,14.9,12.8c82.9,6,137.3-76.5,220.2-70.5
			C362.4,211.7,366.6,208.3,365,202.4z M299.9,46.9c4.1,15,8.1,30,12.2,45c-17.4,0.6-32.8,4.1-49.1,10.2c-4.1-15-8.1-30-12.2-45
			C267.1,51,282.5,47.4,299.9,46.9z M129.1,215.2c-4.6-17.1-9.2-34.1-13.9-51.2c18.3-0.5,34.6-4.5,51.6-11.2c-4.1-15-8.1-30-12.2-45
			c16.6-7.4,32.3-16.3,48-25.5c4.1,15,8.1,30,12.2,45c-15.7,9.2-31.4,18.1-48,25.5c4.6,17.1,9.2,34.1,13.9,51.2
			C163.7,210.7,147.5,214.7,129.1,215.2z M193.1,249.7c-4.1-15.2-8.3-30.5-12.4-45.7c16.5-7.4,32.1-16.2,47.7-25.3
			c4.1,15.2,8.3,30.5,12.4,45.7C225.2,233.5,209.6,242.3,193.1,249.7z M228.8,178.4c-4.6-17.1-9.2-34.1-13.9-51.2
			c15.7-9.2,31.4-17.9,48.1-25.2c4.6,17.1,9.2,34.1,13.9,51.2C260.2,160.5,244.5,169.3,228.8,178.4z M289.5,198.9
			c-4.1-15.2-8.3-30.5-12.4-45.7c16.2-6,31.5-9.5,48.8-10.1c4.1,15.2,8.3,30.5,12.4,45.7C321.1,189.4,305.8,192.8,289.5,198.9z"/>
	</g>
</g>
</svg>
