<?xml version="1.0" encoding="utf-8"?>
<!-- Generator: Adobe Illustrator 18.1.1, SVG Export Plug-In . SVG Version: 6.00 Build 0)  -->
<svg version="1.1" id="Layer_1" xmlns="http://www.w3.org/2000/svg" xmlns:xlink="http://www.w3.org/1999/xlink" x="0px" y="0px"
	 viewBox="0 0 1280 720" enable-background="new 0 0 1280 720" xml:space="preserve">
<rect x="117.5" y="110.1" opacity="0.9" stroke="#000000" stroke-miterlimit="10" width="1045" height="498"/>
<g>
	<path fill="#FFFFFF" d="M551.9,213.3v7.5h1.9v-7.5h1.9v7.5h1.9v-7.5h1.9v9.4H550v-9.4H551.9z"/>
	<path fill="#FFFFFF" d="M568.7,213.3h9.4v1.9h-7.5v5.6h7.5v1.9h-9.4V213.3z M571.5,217.1h6.6v1.9h-6.6V217.1z"/>
	<path fill="#FFFFFF" d="M587.5,213.3h1.9v7.5h7.5v1.9h-9.4V213.3z"/>
	<path fill="#FFFFFF" d="M606.2,213.3h9.4v1.9h-7.5v5.6h7.5v1.9h-9.4V213.3z"/>
	<path fill="#FFFFFF" d="M625,222.7v-9.4h9.4v9.4H625z M632.5,220.8v-5.6h-5.6v5.6H632.5z"/>
	<path fill="#FFFFFF" d="M643.7,222.7v-9.4h9.4v9.4h-1.9v-7.5h-1.9v7.5h-1.9v-7.5h-1.9v7.5H643.7z"/>
	<path fill="#FFFFFF" d="M662.5,213.3h9.4v1.9h-7.5v5.6h7.5v1.9h-9.4V213.3z M665.3,217.1h6.6v1.9h-6.6V217.1z"/>
	<path fill="#FFFFFF" d="M700,213.3h9.4v1.9h-3.8v7.5h-1.9v-7.5H700V213.3z"/>
	<path fill="#FFFFFF" d="M718.7,222.7v-9.4h9.4v9.4H718.7z M726.2,220.8v-5.6h-5.6v5.6H726.2z"/>
</g>
<g>
	<path fill="#FFFFFF" d="M613.2,331.3h1l1.1,3.3c0.2,0.6,0.4,1.2,0.5,1.7h0c0.2-0.6,0.4-1.1,0.5-1.7l1.1-3.3h1l-2.1,5.8h-1.2
		L613.2,331.3z"/>
	<path fill="#FFFFFF" d="M621.7,331.1c1.5,0,2.3,1.1,2.3,2.7c0,0.2,0,0.4,0,0.5h-3.9c0.1,1.3,0.8,2.1,1.9,2.1c0.6,0,1-0.2,1.5-0.5
		l0.3,0.6c-0.5,0.3-1.1,0.6-1.9,0.6c-1.6,0-2.8-1.1-2.8-3S620.4,331.1,621.7,331.1z M623.2,333.8c0-1.2-0.5-1.8-1.4-1.8
		c-0.8,0-1.6,0.7-1.7,1.8H623.2z"/>
	<path fill="#FFFFFF" d="M625.5,331.3h0.8l0.1,1.1h0c0.4-0.7,1-1.2,1.7-1.2c0.3,0,0.4,0,0.6,0.1l-0.2,0.9c-0.2-0.1-0.3-0.1-0.6-0.1
		c-0.5,0-1.1,0.4-1.5,1.3v3.7h-1V331.3z"/>
	<path fill="#FFFFFF" d="M629.4,335.8c0.5,0.4,1,0.7,1.7,0.7c0.8,0,1.2-0.4,1.2-0.9c0-0.6-0.7-0.9-1.3-1.1c-0.8-0.3-1.7-0.7-1.7-1.7
		c0-0.9,0.7-1.7,2-1.7c0.7,0,1.4,0.3,1.8,0.7l-0.5,0.6c-0.4-0.3-0.8-0.5-1.3-0.5c-0.7,0-1.1,0.4-1.1,0.8c0,0.5,0.6,0.8,1.3,1
		c0.8,0.3,1.8,0.7,1.8,1.8c0,0.9-0.8,1.7-2.1,1.7c-0.8,0-1.6-0.3-2.2-0.8L629.4,335.8z"/>
	<path fill="#FFFFFF" d="M634.4,329.4c0-0.4,0.3-0.6,0.7-0.6s0.7,0.3,0.7,0.6c0,0.4-0.3,0.6-0.7,0.6S634.4,329.8,634.4,329.4z
		 M634.6,331.3h1v5.8h-1V331.3z"/>
	<path fill="#FFFFFF" d="M639.8,331.1c1.4,0,2.7,1.1,2.7,3.1c0,1.9-1.3,3-2.7,3c-1.4,0-2.7-1.1-2.7-3
		C637.1,332.2,638.4,331.1,639.8,331.1z M639.8,336.4c1,0,1.7-0.9,1.7-2.2c0-1.3-0.7-2.3-1.7-2.3c-1,0-1.7,0.9-1.7,2.3
		C638.1,335.5,638.8,336.4,639.8,336.4z"/>
	<path fill="#FFFFFF" d="M644,331.3h0.8l0.1,0.8h0c0.6-0.6,1.2-1,2-1c1.2,0,1.8,0.8,1.8,2.3v3.7h-1v-3.6c0-1.1-0.3-1.6-1.1-1.6
		c-0.6,0-1,0.3-1.6,0.9v4.2h-1V331.3z"/>
	<path fill="#FFFFFF" d="M652.6,333.2c0-2.6,0.9-3.9,2.5-3.9c1.5,0,2.4,1.4,2.4,3.9s-0.9,4-2.4,4
		C653.5,337.2,652.6,335.8,652.6,333.2z M656.5,333.2c0-2.2-0.6-3.2-1.5-3.2c-0.9,0-1.5,0.9-1.5,3.2c0,2.2,0.6,3.2,1.5,3.2
		C655.9,336.5,656.5,335.5,656.5,333.2z"/>
	<path fill="#FFFFFF" d="M659.5,335.7c0.4,0,0.7,0.3,0.7,0.8c0,0.4-0.3,0.7-0.7,0.7c-0.4,0-0.7-0.3-0.7-0.7
		C658.8,336,659.1,335.7,659.5,335.7z"/>
	<path fill="#FFFFFF" d="M662.9,333.1L662.9,333.1c-0.6-0.4-1.1-1-1.1-1.8c0-1.2,0.9-2,2.2-2c1.3,0,2.2,0.9,2.2,2
		c0,0.8-0.6,1.5-1.1,1.8v0c0.7,0.4,1.3,0.9,1.3,2c0,1.1-1,2-2.5,2c-1.4,0-2.5-0.9-2.5-2.1C661.5,334.1,662.2,333.5,662.9,333.1z
		 M664,336.5c0.9,0,1.5-0.6,1.5-1.3c0-1-1-1.3-2.1-1.8c-0.6,0.4-1.1,1-1.1,1.7C662.4,335.9,663.1,336.5,664,336.5z M665.3,331.4
		c0-0.8-0.5-1.4-1.3-1.4c-0.7,0-1.2,0.5-1.2,1.2c0,0.9,0.8,1.3,1.8,1.7C665,332.5,665.3,332,665.3,331.4z"/>
</g>
<g>
	<path fill="#FFFFFF" d="M487.7,558.7h1.2l1.5,4.2l0.6,1.6h0l0.6-1.6l1.5-4.2h1.2v7.9h-0.9v-4.3c0-0.7,0.1-1.6,0.1-2.3h0l-0.6,1.8
		l-1.5,4.1h-0.6l-1.5-4.1l-0.6-1.8h0c0,0.7,0.1,1.6,0.1,2.3v4.3h-0.9V558.7z"/>
	<path fill="#FFFFFF" d="M499.6,562.9c0-0.7-0.3-1.5-1.2-1.5c-0.7,0-1.3,0.3-1.7,0.6l-0.4-0.7c0.5-0.3,1.4-0.8,2.3-0.8
		c1.4,0,2,0.9,2,2.4v3.6h-0.8l-0.1-0.7h0c-0.6,0.5-1.2,0.8-1.9,0.8c-1,0-1.7-0.6-1.7-1.7C496,563.8,497.1,563.2,499.6,562.9z
		 M498,566c0.6,0,1-0.3,1.6-0.8v-1.6c-2,0.2-2.6,0.7-2.6,1.5C497,565.7,497.5,566,498,566z"/>
	<path fill="#FFFFFF" d="M503.5,567.1v2h-1v-8.3h0.8l0.1,0.7h0c0.5-0.4,1.2-0.8,1.9-0.8c1.5,0,2.3,1.2,2.3,3c0,2-1.2,3.1-2.5,3.1
		c-0.5,0-1.1-0.3-1.6-0.7L503.5,567.1z M504.9,565.9c1,0,1.7-0.9,1.7-2.3c0-1.3-0.4-2.1-1.5-2.1c-0.5,0-1,0.3-1.6,0.8v3.1
		C504,565.7,504.5,565.9,504.9,565.9z"/>
	<path fill="#FFFFFF" d="M509,565.3c0.5,0.4,1,0.7,1.7,0.7c0.8,0,1.2-0.4,1.2-0.9c0-0.6-0.7-0.9-1.3-1.1c-0.8-0.3-1.7-0.7-1.7-1.7
		c0-0.9,0.7-1.7,2-1.7c0.7,0,1.4,0.3,1.8,0.7l-0.5,0.6c-0.4-0.3-0.8-0.5-1.3-0.5c-0.7,0-1.1,0.4-1.1,0.8c0,0.5,0.6,0.8,1.3,1
		c0.8,0.3,1.8,0.7,1.8,1.8c0,0.9-0.8,1.7-2.1,1.7c-0.8,0-1.6-0.3-2.2-0.8L509,565.3z"/>
	<path fill="#FFFFFF" d="M516.6,560.8h0.8l0.1,0.8h0c0.5-0.6,1.1-1,1.8-1c0.9,0,1.4,0.4,1.6,1.1c0.6-0.7,1.2-1.1,1.9-1.1
		c1.2,0,1.8,0.8,1.8,2.3v3.7h-1V563c0-1.1-0.3-1.6-1.1-1.6c-0.5,0-0.9,0.3-1.5,0.9v4.2h-1V563c0-1.1-0.3-1.6-1.1-1.6
		c-0.4,0-0.9,0.3-1.5,0.9v4.2h-1V560.8z"/>
	<path fill="#FFFFFF" d="M529.8,562.9c0-0.7-0.3-1.5-1.2-1.5c-0.7,0-1.3,0.3-1.7,0.6l-0.4-0.7c0.5-0.3,1.4-0.8,2.3-0.8
		c1.4,0,2,0.9,2,2.4v3.6H530l-0.1-0.7h0c-0.6,0.5-1.2,0.8-1.9,0.8c-1,0-1.7-0.6-1.7-1.7C526.2,563.8,527.3,563.2,529.8,562.9z
		 M528.2,566c0.6,0,1-0.3,1.6-0.8v-1.6c-2,0.2-2.6,0.7-2.6,1.5C527.2,565.7,527.7,566,528.2,566z"/>
	<path fill="#FFFFFF" d="M534.8,560.6c0.7,0,1.1,0.3,1.6,0.7l0-1v-2.2h1v8.5h-0.8l-0.1-0.7h0c-0.5,0.4-1.1,0.8-1.8,0.8
		c-1.5,0-2.4-1.1-2.4-3C532.3,561.8,533.5,560.6,534.8,560.6z M534.9,565.9c0.5,0,1-0.3,1.5-0.8v-3c-0.5-0.4-0.9-0.6-1.4-0.6
		c-0.9,0-1.7,0.9-1.7,2.2C533.3,565.1,533.9,565.9,534.9,565.9z"/>
	<path fill="#FFFFFF" d="M541.5,560.6c1.5,0,2.3,1.1,2.3,2.7c0,0.2,0,0.4,0,0.5h-3.9c0.1,1.3,0.8,2.1,1.9,2.1c0.6,0,1-0.2,1.5-0.5
		l0.3,0.6c-0.5,0.3-1.1,0.6-1.9,0.6c-1.6,0-2.8-1.1-2.8-3S540.2,560.6,541.5,560.6z M543,563.3c0-1.2-0.5-1.8-1.4-1.8
		c-0.8,0-1.6,0.7-1.7,1.8H543z"/>
	<path fill="#FFFFFF" d="M550.3,558.9c-0.2-0.1-0.4-0.1-0.7-0.1c-0.6,0-0.8,0.4-0.8,1.1v0.9h1.2v0.8h-1.2v5h-1v-5h-0.8v-0.7l0.8-0.1
		v-0.9c0-1.2,0.5-1.9,1.7-1.9c0.4,0,0.7,0.1,1,0.2L550.3,558.9z"/>
	<path fill="#FFFFFF" d="M553.4,560.6c1.4,0,2.7,1.1,2.7,3.1c0,1.9-1.3,3-2.7,3s-2.7-1.1-2.7-3C550.7,561.7,551.9,560.6,553.4,560.6
		z M553.4,565.9c1,0,1.7-0.9,1.7-2.2c0-1.3-0.7-2.3-1.7-2.3c-1,0-1.7,0.9-1.7,2.3C551.7,565,552.4,565.9,553.4,565.9z"/>
	<path fill="#FFFFFF" d="M557.6,560.8h0.8l0.1,1.1h0c0.4-0.7,1-1.2,1.7-1.2c0.3,0,0.4,0,0.6,0.1l-0.2,0.9c-0.2-0.1-0.3-0.1-0.6-0.1
		c-0.5,0-1.1,0.4-1.5,1.3v3.7h-1V560.8z"/>
	<path fill="#FFFFFF" d="M568.6,566.6l-1.9-3.3h-1.4v3.3h-1v-7.9h2.5c1.6,0,2.7,0.6,2.7,2.2c0,1.2-0.7,2-1.8,2.2l2,3.4H568.6z
		 M565.3,562.5h1.3c1.2,0,1.9-0.5,1.9-1.5c0-1-0.7-1.4-1.9-1.4h-1.3V562.5z"/>
	<path fill="#FFFFFF" d="M573.2,560.6c1.5,0,2.3,1.1,2.3,2.7c0,0.2,0,0.4,0,0.5h-3.9c0.1,1.3,0.8,2.1,1.9,2.1c0.6,0,1-0.2,1.5-0.5
		l0.3,0.6c-0.5,0.3-1.1,0.6-1.9,0.6c-1.6,0-2.8-1.1-2.8-3S571.8,560.6,573.2,560.6z M574.6,563.3c0-1.2-0.5-1.8-1.4-1.8
		c-0.8,0-1.6,0.7-1.7,1.8H574.6z"/>
	<path fill="#FFFFFF" d="M579.6,558.9c-0.2-0.1-0.4-0.1-0.7-0.1c-0.6,0-0.8,0.4-0.8,1.1v0.9h1.2v0.8h-1.2v5h-1v-5h-0.8v-0.7l0.8-0.1
		v-0.9c0-1.2,0.5-1.9,1.7-1.9c0.4,0,0.7,0.1,1,0.2L579.6,558.9z"/>
	<path fill="#FFFFFF" d="M580.4,558.1h1v7.4c0,0.3,0.1,0.4,0.3,0.4c0.1,0,0.1,0,0.2,0l0.1,0.7c-0.1,0.1-0.3,0.1-0.6,0.1
		c-0.7,0-1-0.5-1-1.3V558.1z"/>
	<path fill="#FFFFFF" d="M585.7,560.6c1.5,0,2.3,1.1,2.3,2.7c0,0.2,0,0.4,0,0.5H584c0.1,1.3,0.8,2.1,1.9,2.1c0.6,0,1-0.2,1.5-0.5
		l0.3,0.6c-0.5,0.3-1.1,0.6-1.9,0.6c-1.6,0-2.8-1.1-2.8-3S584.3,560.6,585.7,560.6z M587.1,563.3c0-1.2-0.5-1.8-1.4-1.8
		c-0.8,0-1.6,0.7-1.7,1.8H587.1z"/>
	<path fill="#FFFFFF" d="M590.4,563.6l-1.8-2.8h1.1l0.8,1.3c0.2,0.3,0.4,0.6,0.6,1h0c0.2-0.3,0.3-0.7,0.5-1l0.7-1.3h1l-1.8,2.9
		l1.9,2.9h-1.1l-0.9-1.4c-0.2-0.3-0.4-0.7-0.6-1h0c-0.2,0.3-0.4,0.7-0.6,1l-0.8,1.4h-1L590.4,563.6z"/>
	<path fill="#FFFFFF" d="M594.7,560.8h0.8l0.1,1.1h0c0.4-0.7,1-1.2,1.7-1.2c0.3,0,0.4,0,0.6,0.1l-0.2,0.9c-0.2-0.1-0.3-0.1-0.6-0.1
		c-0.5,0-1.1,0.4-1.5,1.3v3.7h-1V560.8z"/>
	<path fill="#FFFFFF" d="M598.8,560.8h1v3.6c0,1.1,0.3,1.6,1.1,1.6c0.6,0,1-0.3,1.6-1v-4.1h1v5.8h-0.8l-0.1-0.9h0
		c-0.5,0.6-1.1,1.1-1.9,1.1c-1.2,0-1.8-0.8-1.8-2.3V560.8z"/>
	<path fill="#FFFFFF" d="M605.4,560.8h0.8l0.1,0.8h0c0.6-0.6,1.2-1,2-1c1.2,0,1.8,0.8,1.8,2.3v3.7h-1V563c0-1.1-0.3-1.6-1.1-1.6
		c-0.6,0-1,0.3-1.6,0.9v4.2h-1V560.8z"/>
	<path fill="#FFFFFF" d="M617.7,562.9c0-0.7-0.3-1.5-1.2-1.5c-0.7,0-1.3,0.3-1.7,0.6l-0.4-0.7c0.5-0.3,1.4-0.8,2.3-0.8
		c1.4,0,2,0.9,2,2.4v3.6h-0.8l-0.1-0.7h0c-0.6,0.5-1.2,0.8-1.9,0.8c-1,0-1.7-0.6-1.7-1.7C614.1,563.8,615.2,563.2,617.7,562.9z
		 M616.1,566c0.6,0,1-0.3,1.6-0.8v-1.6c-2,0.2-2.6,0.7-2.6,1.5C615.1,565.7,615.5,566,616.1,566z"/>
	<path fill="#FFFFFF" d="M620.5,560.8h0.8l0.1,1.1h0c0.4-0.7,1-1.2,1.7-1.2c0.3,0,0.4,0,0.6,0.1l-0.2,0.9c-0.2-0.1-0.3-0.1-0.6-0.1
		c-0.5,0-1.1,0.4-1.5,1.3v3.7h-1V560.8z"/>
	<path fill="#FFFFFF" d="M626.8,560.6c1.5,0,2.3,1.1,2.3,2.7c0,0.2,0,0.4,0,0.5h-3.9c0.1,1.3,0.8,2.1,1.9,2.1c0.6,0,1-0.2,1.5-0.5
		l0.3,0.6c-0.5,0.3-1.1,0.6-1.9,0.6c-1.6,0-2.8-1.1-2.8-3S625.4,560.6,626.8,560.6z M628.2,563.3c0-1.2-0.5-1.8-1.4-1.8
		c-0.8,0-1.6,0.7-1.7,1.8H628.2z"/>
	<path fill="#FFFFFF" d="M633,558.1h1v7.4c0,0.3,0.1,0.4,0.3,0.4c0.1,0,0.1,0,0.2,0l0.1,0.7c-0.1,0.1-0.3,0.1-0.6,0.1
		c-0.7,0-1-0.5-1-1.3V558.1z"/>
	<path fill="#FFFFFF" d="M639.3,562.9c0-0.7-0.3-1.5-1.2-1.5c-0.7,0-1.3,0.3-1.7,0.6l-0.4-0.7c0.5-0.3,1.4-0.8,2.3-0.8
		c1.4,0,2,0.9,2,2.4v3.6h-0.8l-0.1-0.7h0c-0.6,0.5-1.2,0.8-1.9,0.8c-1,0-1.7-0.6-1.7-1.7C635.7,563.8,636.8,563.2,639.3,562.9z
		 M637.7,566c0.6,0,1-0.3,1.6-0.8v-1.6c-2,0.2-2.6,0.7-2.6,1.5C636.7,565.7,637.1,566,637.7,566z"/>
	<path fill="#FFFFFF" d="M642.2,558.1h1v2.3l0,1.1c0.5-0.5,1.2-0.8,1.8-0.8c1.5,0,2.3,1.2,2.3,3c0,2-1.2,3.2-2.5,3.2
		c-0.5,0-1.2-0.3-1.7-0.7h0l-0.1,0.6h-0.8V558.1z M644.6,565.9c1,0,1.7-0.9,1.7-2.3c0-1.3-0.4-2.1-1.5-2.1c-0.5,0-1,0.3-1.6,0.8v3.1
		C643.7,565.7,644.2,565.9,644.6,565.9z"/>
	<path fill="#FFFFFF" d="M651,560.6c1.5,0,2.3,1.1,2.3,2.7c0,0.2,0,0.4,0,0.5h-3.9c0.1,1.3,0.8,2.1,1.9,2.1c0.6,0,1-0.2,1.5-0.5
		l0.3,0.6c-0.5,0.3-1.1,0.6-1.9,0.6c-1.6,0-2.8-1.1-2.8-3S649.7,560.6,651,560.6z M652.5,563.3c0-1.2-0.5-1.8-1.4-1.8
		c-0.8,0-1.6,0.7-1.7,1.8H652.5z"/>
	<path fill="#FFFFFF" d="M654.8,558.1h1v7.4c0,0.3,0.1,0.4,0.3,0.4c0.1,0,0.1,0,0.2,0l0.1,0.7c-0.1,0.1-0.3,0.1-0.6,0.1
		c-0.7,0-1-0.5-1-1.3V558.1z"/>
	<path fill="#FFFFFF" d="M660,560.6c1.5,0,2.3,1.1,2.3,2.7c0,0.2,0,0.4,0,0.5h-3.9c0.1,1.3,0.8,2.1,1.9,2.1c0.6,0,1-0.2,1.5-0.5
		l0.3,0.6c-0.5,0.3-1.1,0.6-1.9,0.6c-1.6,0-2.8-1.1-2.8-3S658.7,560.6,660,560.6z M661.5,563.3c0-1.2-0.5-1.8-1.4-1.8
		c-0.8,0-1.6,0.7-1.7,1.8H661.5z"/>
	<path fill="#FFFFFF" d="M665.9,560.6c0.7,0,1.1,0.3,1.6,0.7l0-1v-2.2h1v8.5h-0.8l-0.1-0.7h0c-0.5,0.4-1.1,0.8-1.8,0.8
		c-1.5,0-2.4-1.1-2.4-3C663.4,561.8,664.6,560.6,665.9,560.6z M666,565.9c0.5,0,1-0.3,1.5-0.8v-3c-0.5-0.4-0.9-0.6-1.4-0.6
		c-0.9,0-1.7,0.9-1.7,2.2C664.4,565.1,665,565.9,666,565.9z"/>
	<path fill="#FFFFFF" d="M672.2,560.8h1l0.9,3.4c0.1,0.6,0.2,1.1,0.3,1.6h0c0.1-0.5,0.3-1.1,0.4-1.6l0.9-3.4h1l0.9,3.4
		c0.1,0.6,0.3,1.1,0.4,1.6h0c0.1-0.5,0.2-1.1,0.4-1.6l0.9-3.4h0.9l-1.6,5.8h-1.2l-0.8-3.1c-0.1-0.6-0.3-1.1-0.4-1.7h0
		c-0.1,0.6-0.3,1.1-0.4,1.7l-0.8,3.1h-1.2L672.2,560.8z"/>
	<path fill="#FFFFFF" d="M681.3,558.9c0-0.4,0.3-0.6,0.7-0.6s0.7,0.3,0.7,0.6c0,0.4-0.3,0.6-0.7,0.6S681.3,559.3,681.3,558.9z
		 M681.5,560.8h1v5.8h-1V560.8z"/>
	<path fill="#FFFFFF" d="M684.6,561.6h-0.9v-0.7l0.9-0.1l0.1-1.6h0.8v1.6h1.6v0.8h-1.6v3.2c0,0.7,0.2,1.1,0.9,1.1
		c0.2,0,0.5-0.1,0.7-0.2l0.2,0.7c-0.3,0.1-0.7,0.2-1.1,0.2c-1.2,0-1.7-0.8-1.7-1.9V561.6z"/>
	<path fill="#FFFFFF" d="M688.5,558.1h1v2.3l0,1.2c0.6-0.5,1.1-1,1.9-1c1.2,0,1.8,0.8,1.8,2.3v3.7h-1V563c0-1.1-0.3-1.6-1.1-1.6
		c-0.6,0-1,0.3-1.6,0.9v4.2h-1V558.1z"/>
	<path fill="#FFFFFF" d="M698.7,558.7c-0.6,0.4-0.9,0.8-0.9,1.5c0,0,0.1,0,0.1,0c0.3,0,0.6,0.2,0.6,0.6c0,0.4-0.3,0.7-0.6,0.7
		c-0.5,0-0.8-0.4-0.8-1.1c0-1,0.4-1.7,1.3-2.1L698.7,558.7z M700.8,558.7c-0.6,0.4-0.9,0.8-0.9,1.5c0,0,0.1,0,0.1,0
		c0.3,0,0.6,0.2,0.6,0.6c0,0.4-0.3,0.7-0.6,0.7c-0.5,0-0.8-0.4-0.8-1.1c0-1,0.4-1.7,1.3-2.1L700.8,558.7z"/>
	<path fill="#FFFFFF" d="M706.9,566.6l-1.9-3.3h-1.4v3.3h-1v-7.9h2.5c1.6,0,2.7,0.6,2.7,2.2c0,1.2-0.7,2-1.8,2.2l2,3.4H706.9z
		 M703.6,562.5h1.3c1.2,0,1.9-0.5,1.9-1.5c0-1-0.7-1.4-1.9-1.4h-1.3V562.5z"/>
	<path fill="#FFFFFF" d="M713.8,566.6l-1.9-3.3h-1.4v3.3h-1v-7.9h2.5c1.6,0,2.7,0.6,2.7,2.2c0,1.2-0.7,2-1.8,2.2l2,3.4H713.8z
		 M710.5,562.5h1.3c1.2,0,1.9-0.5,1.9-1.5c0-1-0.7-1.4-1.9-1.4h-1.3V562.5z"/>
	<path fill="#FFFFFF" d="M716.2,561c0.6-0.4,0.9-0.8,0.9-1.5c0,0-0.1,0-0.1,0c-0.3,0-0.6-0.2-0.6-0.6c0-0.4,0.3-0.7,0.6-0.7
		c0.5,0,0.8,0.4,0.8,1.1c0,1-0.5,1.6-1.3,2.1L716.2,561z M718.3,561c0.6-0.4,0.9-0.8,0.9-1.5c0,0-0.1,0-0.1,0
		c-0.3,0-0.6-0.2-0.6-0.6c0-0.4,0.3-0.7,0.6-0.7c0.5,0,0.8,0.4,0.8,1.1c0,1-0.4,1.6-1.3,2.1L718.3,561z"/>
	<path fill="#FFFFFF" d="M723.4,563.2h2.8v0.8h-2.8V563.2z"/>
	<path fill="#FFFFFF" d="M732.3,560.6c1.5,0,2.3,1.1,2.3,2.7c0,0.2,0,0.4,0,0.5h-3.9c0.1,1.3,0.8,2.1,1.9,2.1c0.6,0,1-0.2,1.5-0.5
		l0.3,0.6c-0.5,0.3-1.1,0.6-1.9,0.6c-1.6,0-2.8-1.1-2.8-3S730.9,560.6,732.3,560.6z M733.7,563.3c0-1.2-0.5-1.8-1.4-1.8
		c-0.8,0-1.6,0.7-1.7,1.8H733.7z"/>
	<path fill="#FFFFFF" d="M736.3,566.4L736.3,566.4c-0.3-0.2-0.5-0.5-0.5-1c0-0.5,0.3-0.9,0.6-1.1v0c-0.4-0.3-0.8-0.9-0.8-1.6
		c0-1.3,1-2.1,2.2-2.1c0.3,0,0.6,0.1,0.8,0.1h2v0.8h-1.2c0.3,0.3,0.5,0.7,0.5,1.2c0,1.2-0.9,2-2.1,2c-0.3,0-0.6-0.1-0.9-0.2
		c-0.2,0.2-0.4,0.4-0.4,0.7c0,0.4,0.2,0.6,1,0.6h1.1c1.4,0,2,0.4,2,1.4c0,1.1-1.1,2-3,2c-1.4,0-2.4-0.6-2.4-1.6
		C735.5,567.2,735.8,566.8,736.3,566.4z M738,568.6c1.1,0,1.8-0.6,1.8-1.2c0-0.5-0.4-0.7-1.2-0.7h-1c-0.2,0-0.5,0-0.8-0.1
		c-0.4,0.3-0.6,0.6-0.6,1C736.3,568.2,737,568.6,738,568.6z M739.1,562.7c0-0.9-0.6-1.4-1.2-1.4s-1.2,0.5-1.2,1.4s0.6,1.4,1.2,1.4
		S739.1,563.6,739.1,562.7z"/>
	<path fill="#FFFFFF" d="M745.6,558.7c-0.6,0.4-0.9,0.8-0.9,1.5c0,0,0.1,0,0.1,0c0.3,0,0.6,0.2,0.6,0.6c0,0.4-0.3,0.7-0.6,0.7
		c-0.5,0-0.8-0.4-0.8-1.1c0-1,0.4-1.7,1.3-2.1L745.6,558.7z M747.7,558.7c-0.6,0.4-0.9,0.8-0.9,1.5c0,0,0.1,0,0.1,0
		c0.3,0,0.6,0.2,0.6,0.6c0,0.4-0.3,0.7-0.6,0.7c-0.5,0-0.8-0.4-0.8-1.1c0-1,0.4-1.7,1.3-2.1L747.7,558.7z"/>
	<path fill="#FFFFFF" d="M753.9,566.6l-1.9-3.3h-1.4v3.3h-1v-7.9h2.5c1.6,0,2.7,0.6,2.7,2.2c0,1.2-0.7,2-1.8,2.2l2,3.4H753.9z
		 M750.6,562.5h1.3c1.2,0,1.9-0.5,1.9-1.5c0-1-0.7-1.4-1.9-1.4h-1.3V562.5z"/>
	<path fill="#FFFFFF" d="M760.8,566.6l-1.9-3.3h-1.4v3.3h-1v-7.9h2.5c1.6,0,2.7,0.6,2.7,2.2c0,1.2-0.7,2-1.8,2.2l2,3.4H760.8z
		 M757.5,562.5h1.3c1.2,0,1.9-0.5,1.9-1.5c0-1-0.7-1.4-1.9-1.4h-1.3V562.5z"/>
	<path fill="#FFFFFF" d="M763.3,558.1h1v2.3l0,1.1c0.5-0.5,1.2-0.8,1.8-0.8c1.5,0,2.3,1.2,2.3,3c0,2-1.2,3.2-2.5,3.2
		c-0.5,0-1.2-0.3-1.7-0.7h0l-0.1,0.6h-0.8V558.1z M765.7,565.9c1,0,1.7-0.9,1.7-2.3c0-1.3-0.4-2.1-1.5-2.1c-0.5,0-1,0.3-1.6,0.8v3.1
		C764.8,565.7,765.3,565.9,765.7,565.9z"/>
	<path fill="#FFFFFF" d="M770,558.1h1v7.4c0,0.3,0.1,0.4,0.3,0.4c0.1,0,0.1,0,0.2,0l0.1,0.7c-0.1,0.1-0.3,0.1-0.6,0.1
		c-0.7,0-1-0.5-1-1.3V558.1z"/>
	<path fill="#FFFFFF" d="M775.1,560.6c0.7,0,1.1,0.3,1.6,0.7l0-1v-2.2h1v8.5h-0.8l-0.1-0.7h0c-0.5,0.4-1.1,0.8-1.8,0.8
		c-1.5,0-2.4-1.1-2.4-3C772.6,561.8,773.8,560.6,775.1,560.6z M775.2,565.9c0.5,0,1-0.3,1.5-0.8v-3c-0.5-0.4-0.9-0.6-1.4-0.6
		c-0.9,0-1.7,0.9-1.7,2.2C773.6,565.1,774.2,565.9,775.2,565.9z"/>
	<path fill="#FFFFFF" d="M782.3,558.9c-0.2-0.1-0.4-0.1-0.7-0.1c-0.6,0-0.8,0.4-0.8,1.1v0.9h1.2v0.8h-1.2v5h-1v-5h-0.8v-0.7l0.8-0.1
		v-0.9c0-1.2,0.5-1.9,1.7-1.9c0.4,0,0.7,0.1,1,0.2L782.3,558.9z"/>
	<path fill="#FFFFFF" d="M783.2,565.8h1.8v-5.6h-1.4v-0.6c0.7-0.1,1.2-0.3,1.6-0.6h0.8v6.8h1.6v0.8h-4.3V565.8z"/>
	<path fill="#FFFFFF" d="M788.9,561c0.6-0.4,0.9-0.8,0.9-1.5c0,0-0.1,0-0.1,0c-0.3,0-0.6-0.2-0.6-0.6c0-0.4,0.3-0.7,0.6-0.7
		c0.5,0,0.8,0.4,0.8,1.1c0,1-0.5,1.6-1.3,2.1L788.9,561z M791,561c0.6-0.4,0.9-0.8,0.9-1.5c0,0-0.1,0-0.1,0c-0.3,0-0.6-0.2-0.6-0.6
		c0-0.4,0.3-0.7,0.6-0.7c0.5,0,0.8,0.4,0.8,1.1c0,1-0.4,1.6-1.3,2.1L791,561z"/>
	<path fill="#FFFFFF" d="M478.3,573c0.9,0,1.7,0.5,2.1,1l-0.6,0.6c-0.4-0.4-0.9-0.7-1.6-0.7c-1.5,0-2.5,1.2-2.5,3.2
		c0,2,0.9,3.2,2.4,3.2c0.7,0,1.3-0.3,1.8-0.9l0.6,0.6c-0.6,0.7-1.4,1.1-2.4,1.1c-2,0-3.5-1.5-3.5-4.1
		C474.8,574.5,476.3,573,478.3,573z"/>
	<path fill="#FFFFFF" d="M482,572.5h1v2.3l0,1.2c0.6-0.5,1.1-1,1.9-1c1.2,0,1.8,0.8,1.8,2.3v3.7h-1v-3.6c0-1.1-0.3-1.6-1.1-1.6
		c-0.6,0-1,0.3-1.6,0.9v4.2h-1V572.5z"/>
	<path fill="#FFFFFF" d="M490.7,575c1.5,0,2.3,1.1,2.3,2.7c0,0.2,0,0.4,0,0.5h-3.9c0.1,1.3,0.8,2.1,1.9,2.1c0.6,0,1-0.2,1.5-0.5
		l0.3,0.6c-0.5,0.3-1.1,0.6-1.9,0.6c-1.6,0-2.8-1.1-2.8-3S489.4,575,490.7,575z M492.2,577.7c0-1.2-0.5-1.8-1.4-1.8
		c-0.8,0-1.6,0.7-1.7,1.8H492.2z"/>
	<path fill="#FFFFFF" d="M496.8,575c0.8,0,1.3,0.3,1.7,0.7l-0.5,0.6c-0.3-0.3-0.7-0.5-1.2-0.5c-1.1,0-1.8,0.9-1.8,2.3
		c0,1.3,0.7,2.2,1.8,2.2c0.6,0,1-0.3,1.4-0.6l0.4,0.6c-0.5,0.5-1.2,0.8-1.9,0.8c-1.5,0-2.7-1.1-2.7-3C494,576.1,495.3,575,496.8,575
		z"/>
	<path fill="#FFFFFF" d="M499.9,572.5h1v5.8h0l2.5-3.1h1.1l-2,2.3l2.2,3.5h-1.1l-1.7-2.8l-1.1,1.3v1.5h-1V572.5z"/>
	<path fill="#FFFFFF" d="M507.6,575.1h1.8l0.6,2.8c0.1,0.6,0.2,1.2,0.3,1.8h0c0.1-0.6,0.2-1.2,0.3-1.8l0.7-2.8h1.5l0.7,2.8
		c0.1,0.6,0.3,1.2,0.4,1.8h0c0.1-0.6,0.2-1.2,0.3-1.8l0.6-2.8h1.6l-1.4,5.9h-2.1l-0.5-2.4c-0.1-0.6-0.2-1.1-0.3-1.7h0
		c-0.1,0.6-0.2,1.2-0.3,1.7l-0.5,2.4h-2L507.6,575.1z"/>
	<path fill="#FFFFFF" d="M516.9,575.1h1.8l0.6,2.8c0.1,0.6,0.2,1.2,0.3,1.8h0c0.1-0.6,0.2-1.2,0.3-1.8l0.7-2.8h1.5l0.7,2.8
		c0.1,0.6,0.3,1.2,0.4,1.8h0c0.1-0.6,0.2-1.2,0.3-1.8l0.6-2.8h1.6l-1.4,5.9h-2.1l-0.5-2.4c-0.1-0.6-0.2-1.1-0.3-1.7h0
		c-0.1,0.6-0.2,1.2-0.3,1.7l-0.5,2.4h-2L516.9,575.1z"/>
	<path fill="#FFFFFF" d="M526.2,575.1h1.8l0.6,2.8c0.1,0.6,0.2,1.2,0.3,1.8h0c0.1-0.6,0.2-1.2,0.3-1.8l0.7-2.8h1.5l0.7,2.8
		c0.1,0.6,0.3,1.2,0.4,1.8h0c0.1-0.6,0.2-1.2,0.3-1.8l0.6-2.8h1.6l-1.4,5.9h-2.1l-0.5-2.4c-0.1-0.6-0.2-1.1-0.3-1.7h0
		c-0.1,0.6-0.2,1.2-0.3,1.7l-0.5,2.4h-2L526.2,575.1z"/>
	<path fill="#FFFFFF" d="M536.1,578.9c0.6,0,1.1,0.5,1.1,1.1c0,0.6-0.5,1.1-1.1,1.1c-0.6,0-1.1-0.5-1.1-1.1
		C535,579.4,535.4,578.9,536.1,578.9z"/>
	<path fill="#FFFFFF" d="M540.4,581.5v1.7h-1.8v-8.2h1.4l0.1,0.6h0c0.5-0.4,1.1-0.7,1.7-0.7c1.4,0,2.3,1.2,2.3,3
		c0,2-1.2,3.2-2.5,3.2c-0.5,0-1-0.2-1.4-0.6L540.4,581.5z M541.3,579.7c0.6,0,1.1-0.5,1.1-1.8c0-1.1-0.3-1.6-1-1.6
		c-0.4,0-0.7,0.2-1,0.5v2.4C540.7,579.6,541,579.7,541.3,579.7z"/>
	<path fill="#FFFFFF" d="M545.5,572.6h1.8v2.1l-0.1,1.1c0.4-0.4,1-0.8,1.8-0.8c1.3,0,1.8,0.9,1.8,2.4v3.7h-1.8v-3.5
		c0-0.9-0.2-1.1-0.7-1.1c-0.4,0-0.7,0.2-1.1,0.6v4h-1.8V572.6z"/>
	<path fill="#FFFFFF" d="M552.8,580.8L552.8,580.8c-0.3-0.3-0.6-0.6-0.6-1.1c0-0.4,0.3-0.9,0.7-1.1v0c-0.4-0.3-0.8-0.9-0.8-1.5
		c0-1.4,1.2-2.1,2.5-2.1c0.3,0,0.7,0,0.9,0.1h2.2v1.3h-0.9c0.1,0.2,0.2,0.5,0.2,0.8c0,1.4-1,2-2.3,2c-0.2,0-0.5,0-0.7-0.1
		c-0.2,0.1-0.2,0.2-0.2,0.4c0,0.3,0.2,0.4,0.9,0.4h1c1.5,0,2.3,0.4,2.3,1.5c0,1.2-1.3,2.1-3.3,2.1c-1.4,0-2.5-0.5-2.5-1.5
		C552,581.5,552.3,581.1,552.8,580.8z M554.8,582.4c0.8,0,1.4-0.3,1.4-0.7c0-0.4-0.3-0.5-0.9-0.5h-0.6c-0.4,0-0.6,0-0.8-0.1
		c-0.2,0.2-0.3,0.4-0.3,0.6C553.4,582.2,554,582.4,554.8,582.4z M555.4,577.1c0-0.6-0.3-1-0.8-1s-0.8,0.3-0.8,1c0,0.7,0.3,1,0.8,1
		S555.4,577.7,555.4,577.1z"/>
	<path fill="#FFFFFF" d="M560.5,581.5v1.7h-1.8v-8.2h1.4l0.1,0.6h0c0.5-0.4,1.1-0.7,1.7-0.7c1.4,0,2.3,1.2,2.3,3
		c0,2-1.2,3.2-2.5,3.2c-0.5,0-1-0.2-1.4-0.6L560.5,581.5z M561.5,579.7c0.6,0,1.1-0.5,1.1-1.8c0-1.1-0.3-1.6-1-1.6
		c-0.4,0-0.7,0.2-1,0.5v2.4C560.8,579.6,561.2,579.7,561.5,579.7z"/>
	<path fill="#FFFFFF" d="M566.5,578.9c0.6,0,1.1,0.5,1.1,1.1c0,0.6-0.5,1.1-1.1,1.1c-0.6,0-1.1-0.5-1.1-1.1
		C565.5,579.4,565.9,578.9,566.5,578.9z"/>
	<path fill="#FFFFFF" d="M569.1,576.4h-0.8v-1.3l0.9-0.1l0.2-1.6h1.5v1.6h1.4v1.4h-1.4v2.4c0,0.7,0.3,0.9,0.8,0.9
		c0.2,0,0.4-0.1,0.6-0.1l0.3,1.3c-0.3,0.1-0.7,0.2-1.3,0.2c-1.5,0-2.1-0.9-2.1-2.3V576.4z"/>
	<path fill="#FFFFFF" d="M572.8,575.1h1.8l0.8,2.8c0.2,0.6,0.3,1.2,0.5,1.8h0c0.1-0.6,0.3-1.2,0.5-1.8l0.8-2.8h1.7l-1.9,5.9h-2
		L572.8,575.1z"/>
	<path fill="#FFFFFF" d="M585,573.3c-0.2-0.1-0.4-0.1-0.7-0.1c-0.6,0-0.8,0.4-0.8,1.1v0.9h1.2v0.8h-1.2v5h-1v-5h-0.8v-0.7l0.8-0.1
		v-0.9c0-1.2,0.5-1.9,1.7-1.9c0.4,0,0.7,0.1,1,0.2L585,573.3z"/>
	<path fill="#FFFFFF" d="M588,575c1.4,0,2.7,1.1,2.7,3.1c0,1.9-1.3,3-2.7,3s-2.7-1.1-2.7-3C585.3,576.1,586.6,575,588,575z
		 M588,580.3c1,0,1.7-0.9,1.7-2.2c0-1.3-0.7-2.3-1.7-2.3c-1,0-1.7,0.9-1.7,2.3C586.3,579.4,587,580.3,588,580.3z"/>
	<path fill="#FFFFFF" d="M592.3,575.2h0.8l0.1,1.1h0c0.4-0.7,1-1.2,1.7-1.2c0.3,0,0.4,0,0.6,0.1l-0.2,0.9c-0.2-0.1-0.3-0.1-0.6-0.1
		c-0.5,0-1.1,0.4-1.5,1.3v3.7h-1V575.2z"/>
	<path fill="#FFFFFF" d="M598.8,575.2h0.8l0.1,0.8h0c0.5-0.6,1.1-1,1.8-1c0.9,0,1.4,0.4,1.6,1.1c0.6-0.7,1.2-1.1,1.9-1.1
		c1.2,0,1.8,0.8,1.8,2.3v3.7h-1v-3.6c0-1.1-0.3-1.6-1.1-1.6c-0.5,0-0.9,0.3-1.5,0.9v4.2h-1v-3.6c0-1.1-0.3-1.6-1.1-1.6
		c-0.4,0-0.9,0.3-1.5,0.9v4.2h-1V575.2z"/>
	<path fill="#FFFFFF" d="M611.1,575c1.4,0,2.7,1.1,2.7,3.1c0,1.9-1.3,3-2.7,3s-2.7-1.1-2.7-3C608.4,576.1,609.6,575,611.1,575z
		 M611.1,580.3c1,0,1.7-0.9,1.7-2.2c0-1.3-0.7-2.3-1.7-2.3c-1,0-1.7,0.9-1.7,2.3C609.4,579.4,610.1,580.3,611.1,580.3z"/>
	<path fill="#FFFFFF" d="M615.3,575.2h0.8l0.1,1.1h0c0.4-0.7,1-1.2,1.7-1.2c0.3,0,0.4,0,0.6,0.1l-0.2,0.9c-0.2-0.1-0.3-0.1-0.6-0.1
		c-0.5,0-1.1,0.4-1.5,1.3v3.7h-1V575.2z"/>
	<path fill="#FFFFFF" d="M621.5,575c1.5,0,2.3,1.1,2.3,2.7c0,0.2,0,0.4,0,0.5h-3.9c0.1,1.3,0.8,2.1,1.9,2.1c0.6,0,1-0.2,1.5-0.5
		l0.3,0.6c-0.5,0.3-1.1,0.6-1.9,0.6c-1.6,0-2.8-1.1-2.8-3S620.2,575,621.5,575z M623,577.7c0-1.2-0.5-1.8-1.4-1.8
		c-0.8,0-1.6,0.7-1.7,1.8H623z"/>
	<path fill="#FFFFFF" d="M627.5,573.3c0-0.4,0.3-0.6,0.7-0.6s0.7,0.3,0.7,0.6c0,0.4-0.3,0.6-0.7,0.6S627.5,573.7,627.5,573.3z
		 M627.7,575.2h1v5.8h-1V575.2z"/>
	<path fill="#FFFFFF" d="M630.7,575.2h0.8l0.1,0.8h0c0.6-0.6,1.2-1,2-1c1.2,0,1.8,0.8,1.8,2.3v3.7h-1v-3.6c0-1.1-0.3-1.6-1.1-1.6
		c-0.6,0-1,0.3-1.6,0.9v4.2h-1V575.2z"/>
	<path fill="#FFFFFF" d="M639.9,573.3c-0.2-0.1-0.4-0.1-0.7-0.1c-0.6,0-0.8,0.4-0.8,1.1v0.9h1.2v0.8h-1.2v5h-1v-5h-0.8v-0.7l0.8-0.1
		v-0.9c0-1.2,0.5-1.9,1.7-1.9c0.4,0,0.7,0.1,1,0.2L639.9,573.3z"/>
	<path fill="#FFFFFF" d="M642.9,575c1.4,0,2.7,1.1,2.7,3.1c0,1.9-1.3,3-2.7,3c-1.4,0-2.7-1.1-2.7-3C640.2,576.1,641.4,575,642.9,575
		z M642.9,580.3c1,0,1.7-0.9,1.7-2.2c0-1.3-0.7-2.3-1.7-2.3c-1,0-1.7,0.9-1.7,2.3C641.2,579.4,641.9,580.3,642.9,580.3z"/>
	<path fill="#FFFFFF" d="M647.1,575.2h0.8l0.1,1.1h0c0.4-0.7,1-1.2,1.7-1.2c0.3,0,0.4,0,0.6,0.1l-0.2,0.9c-0.2-0.1-0.3-0.1-0.6-0.1
		c-0.5,0-1.1,0.4-1.5,1.3v3.7h-1V575.2z"/>
	<path fill="#FFFFFF" d="M651.3,575.2h0.8l0.1,0.8h0c0.5-0.6,1.1-1,1.8-1c0.9,0,1.4,0.4,1.6,1.1c0.6-0.7,1.2-1.1,1.9-1.1
		c1.2,0,1.8,0.8,1.8,2.3v3.7h-1v-3.6c0-1.1-0.3-1.6-1.1-1.6c-0.5,0-0.9,0.3-1.5,0.9v4.2h-1v-3.6c0-1.1-0.3-1.6-1.1-1.6
		c-0.4,0-0.9,0.3-1.5,0.9v4.2h-1V575.2z"/>
	<path fill="#FFFFFF" d="M664.5,577.3c0-0.7-0.3-1.5-1.2-1.5c-0.7,0-1.3,0.3-1.7,0.6l-0.4-0.7c0.5-0.3,1.4-0.8,2.3-0.8
		c1.4,0,2,0.9,2,2.4v3.6h-0.8l-0.1-0.7h0c-0.6,0.5-1.2,0.8-1.9,0.8c-1,0-1.7-0.6-1.7-1.7C660.9,578.2,662,577.6,664.5,577.3z
		 M662.9,580.4c0.6,0,1-0.3,1.6-0.8V578c-2,0.2-2.6,0.7-2.6,1.5C661.9,580.1,662.4,580.4,662.9,580.4z"/>
	<path fill="#FFFFFF" d="M667.5,576h-0.9v-0.7l0.9-0.1l0.1-1.6h0.8v1.6h1.6v0.8h-1.6v3.2c0,0.7,0.2,1.1,0.9,1.1
		c0.2,0,0.5-0.1,0.7-0.2l0.2,0.7c-0.3,0.1-0.7,0.2-1.1,0.2c-1.2,0-1.7-0.8-1.7-1.9V576z"/>
	<path fill="#FFFFFF" d="M671.2,573.3c0-0.4,0.3-0.6,0.7-0.6s0.7,0.3,0.7,0.6c0,0.4-0.3,0.6-0.7,0.6S671.2,573.7,671.2,573.3z
		 M671.4,575.2h1v5.8h-1V575.2z"/>
	<path fill="#FFFFFF" d="M676.6,575c1.4,0,2.7,1.1,2.7,3.1c0,1.9-1.3,3-2.7,3c-1.4,0-2.7-1.1-2.7-3C673.9,576.1,675.2,575,676.6,575
		z M676.6,580.3c1,0,1.7-0.9,1.7-2.2c0-1.3-0.7-2.3-1.7-2.3c-1,0-1.7,0.9-1.7,2.3C675,579.4,675.6,580.3,676.6,580.3z"/>
	<path fill="#FFFFFF" d="M680.9,575.2h0.8l0.1,0.8h0c0.6-0.6,1.2-1,2-1c1.2,0,1.8,0.8,1.8,2.3v3.7h-1v-3.6c0-1.1-0.3-1.6-1.1-1.6
		c-0.6,0-1,0.3-1.6,0.9v4.2h-1V575.2z"/>
	<path fill="#FFFFFF" d="M687,582.5c0.7-0.3,1.1-0.8,1.1-1.5c0,0-0.1,0-0.1,0c-0.4,0-0.7-0.2-0.7-0.7c0-0.4,0.3-0.7,0.7-0.7
		c0.5,0,0.8,0.4,0.8,1.2c0,1-0.6,1.8-1.6,2.2L687,582.5z"/>
	<path fill="#FFFFFF" d="M693,576h-0.9v-0.7l0.9-0.1l0.1-1.6h0.8v1.6h1.6v0.8H694v3.2c0,0.7,0.2,1.1,0.9,1.1c0.2,0,0.5-0.1,0.7-0.2
		l0.2,0.7c-0.3,0.1-0.7,0.2-1.1,0.2c-1.2,0-1.7-0.8-1.7-1.9V576z"/>
	<path fill="#FFFFFF" d="M696.8,575.2h1v3.6c0,1.1,0.3,1.6,1.1,1.6c0.6,0,1-0.3,1.6-1v-4.1h1v5.8h-0.8l-0.1-0.9h0
		c-0.5,0.6-1.1,1.1-1.9,1.1c-1.2,0-1.8-0.8-1.8-2.3V575.2z"/>
	<path fill="#FFFFFF" d="M703.5,576h-0.9v-0.7l0.9-0.1l0.1-1.6h0.8v1.6h1.6v0.8h-1.6v3.2c0,0.7,0.2,1.1,0.9,1.1
		c0.2,0,0.5-0.1,0.7-0.2l0.2,0.7c-0.3,0.1-0.7,0.2-1.1,0.2c-1.2,0-1.7-0.8-1.7-1.9V576z"/>
	<path fill="#FFFFFF" d="M709.6,575c1.4,0,2.7,1.1,2.7,3.1c0,1.9-1.3,3-2.7,3c-1.4,0-2.7-1.1-2.7-3C706.9,576.1,708.1,575,709.6,575
		z M709.6,580.3c1,0,1.7-0.9,1.7-2.2c0-1.3-0.7-2.3-1.7-2.3c-1,0-1.7,0.9-1.7,2.3C707.9,579.4,708.6,580.3,709.6,580.3z"/>
	<path fill="#FFFFFF" d="M713.8,575.2h0.8l0.1,1.1h0c0.4-0.7,1-1.2,1.7-1.2c0.3,0,0.4,0,0.6,0.1l-0.2,0.9c-0.2-0.1-0.3-0.1-0.6-0.1
		c-0.5,0-1.1,0.4-1.5,1.3v3.7h-1V575.2z"/>
	<path fill="#FFFFFF" d="M717.8,573.3c0-0.4,0.3-0.6,0.7-0.6s0.7,0.3,0.7,0.6c0,0.4-0.3,0.6-0.7,0.6S717.8,573.7,717.8,573.3z
		 M718,575.2h1v5.8h-1V575.2z"/>
	<path fill="#FFFFFF" d="M724.2,577.3c0-0.7-0.3-1.5-1.2-1.5c-0.7,0-1.3,0.3-1.7,0.6l-0.4-0.7c0.5-0.3,1.4-0.8,2.3-0.8
		c1.4,0,2,0.9,2,2.4v3.6h-0.8l-0.1-0.7h0c-0.6,0.5-1.2,0.8-1.9,0.8c-1,0-1.7-0.6-1.7-1.7C720.6,578.2,721.7,577.6,724.2,577.3z
		 M722.6,580.4c0.6,0,1-0.3,1.6-0.8V578c-2,0.2-2.6,0.7-2.6,1.5C721.6,580.1,722,580.4,722.6,580.4z"/>
	<path fill="#FFFFFF" d="M727.1,572.5h1v7.4c0,0.3,0.1,0.4,0.3,0.4c0.1,0,0.1,0,0.2,0l0.1,0.7c-0.1,0.1-0.3,0.1-0.6,0.1
		c-0.7,0-1-0.5-1-1.3V572.5z"/>
	<path fill="#FFFFFF" d="M730,579.7c0.5,0.4,1,0.7,1.7,0.7c0.8,0,1.2-0.4,1.2-0.9c0-0.6-0.7-0.9-1.3-1.1c-0.8-0.3-1.7-0.7-1.7-1.7
		c0-0.9,0.7-1.7,2-1.7c0.7,0,1.4,0.3,1.8,0.7l-0.5,0.6c-0.4-0.3-0.8-0.5-1.3-0.5c-0.7,0-1.1,0.4-1.1,0.8c0,0.5,0.6,0.8,1.3,1
		c0.8,0.3,1.8,0.7,1.8,1.8c0,0.9-0.8,1.7-2.1,1.7c-0.8,0-1.6-0.3-2.2-0.8L730,579.7z"/>
	<path fill="#FFFFFF" d="M734.7,582.5c0.7-0.3,1.1-0.8,1.1-1.5c0,0-0.1,0-0.1,0c-0.4,0-0.7-0.2-0.7-0.7c0-0.4,0.3-0.7,0.7-0.7
		c0.5,0,0.8,0.4,0.8,1.2c0,1-0.6,1.8-1.6,2.2L734.7,582.5z"/>
	<path fill="#FFFFFF" d="M743.9,577.3c0-0.7-0.3-1.5-1.2-1.5c-0.7,0-1.3,0.3-1.7,0.6l-0.4-0.7c0.5-0.3,1.4-0.8,2.3-0.8
		c1.4,0,2,0.9,2,2.4v3.6H744l-0.1-0.7h0c-0.6,0.5-1.2,0.8-1.9,0.8c-1,0-1.7-0.6-1.7-1.7C740.3,578.2,741.4,577.6,743.9,577.3z
		 M742.3,580.4c0.6,0,1-0.3,1.6-0.8V578c-2,0.2-2.6,0.7-2.6,1.5C741.3,580.1,741.7,580.4,742.3,580.4z"/>
	<path fill="#FFFFFF" d="M746.7,575.2h0.8l0.1,0.8h0c0.6-0.6,1.2-1,2-1c1.2,0,1.8,0.8,1.8,2.3v3.7h-1v-3.6c0-1.1-0.3-1.6-1.1-1.6
		c-0.6,0-1,0.3-1.6,0.9v4.2h-1V575.2z"/>
	<path fill="#FFFFFF" d="M755.4,575c0.7,0,1.1,0.3,1.6,0.7l0-1v-2.2h1v8.5h-0.8l-0.1-0.7h0c-0.5,0.4-1.1,0.8-1.8,0.8
		c-1.5,0-2.4-1.1-2.4-3C752.9,576.2,754.1,575,755.4,575z M755.5,580.3c0.5,0,1-0.3,1.5-0.8v-3c-0.5-0.4-0.9-0.6-1.4-0.6
		c-0.9,0-1.7,0.9-1.7,2.2C753.9,579.5,754.5,580.3,755.5,580.3z"/>
	<path fill="#FFFFFF" d="M762.3,575.2h1v3.6c0,1.1,0.3,1.6,1.1,1.6c0.6,0,1-0.3,1.6-1v-4.1h1v5.8h-0.8l-0.1-0.9h0
		c-0.5,0.6-1.1,1.1-1.9,1.1c-1.2,0-1.8-0.8-1.8-2.3V575.2z"/>
	<path fill="#FFFFFF" d="M769.9,581.5v2h-1v-8.3h0.8l0.1,0.7h0c0.5-0.4,1.2-0.8,1.9-0.8c1.5,0,2.3,1.2,2.3,3c0,2-1.2,3.1-2.5,3.1
		c-0.5,0-1.1-0.3-1.6-0.7L769.9,581.5z M771.3,580.3c1,0,1.7-0.9,1.7-2.3c0-1.3-0.4-2.1-1.5-2.1c-0.5,0-1,0.3-1.6,0.8v3.1
		C770.4,580.1,770.9,580.3,771.3,580.3z"/>
	<path fill="#FFFFFF" d="M777.7,575c0.7,0,1.1,0.3,1.6,0.7l0-1v-2.2h1v8.5h-0.8l-0.1-0.7h0c-0.5,0.4-1.1,0.8-1.8,0.8
		c-1.5,0-2.4-1.1-2.4-3C775.1,576.2,776.3,575,777.7,575z M777.8,580.3c0.5,0,1-0.3,1.5-0.8v-3c-0.5-0.4-0.9-0.6-1.4-0.6
		c-0.9,0-1.7,0.9-1.7,2.2C776.1,579.5,776.7,580.3,777.8,580.3z"/>
	<path fill="#FFFFFF" d="M785.5,577.3c0-0.7-0.3-1.5-1.2-1.5c-0.7,0-1.3,0.3-1.7,0.6l-0.4-0.7c0.5-0.3,1.4-0.8,2.3-0.8
		c1.4,0,2,0.9,2,2.4v3.6h-0.8l-0.1-0.7h0c-0.6,0.5-1.2,0.8-1.9,0.8c-1,0-1.7-0.6-1.7-1.7C781.9,578.2,783,577.6,785.5,577.3z
		 M783.9,580.4c0.6,0,1-0.3,1.6-0.8V578c-2,0.2-2.6,0.7-2.6,1.5C782.9,580.1,783.3,580.4,783.9,580.4z"/>
	<path fill="#FFFFFF" d="M788.5,576h-0.9v-0.7l0.9-0.1l0.1-1.6h0.8v1.6h1.6v0.8h-1.6v3.2c0,0.7,0.2,1.1,0.9,1.1
		c0.2,0,0.5-0.1,0.7-0.2l0.2,0.7c-0.3,0.1-0.7,0.2-1.1,0.2c-1.2,0-1.7-0.8-1.7-1.9V576z"/>
	<path fill="#FFFFFF" d="M794.5,575c1.5,0,2.3,1.1,2.3,2.7c0,0.2,0,0.4,0,0.5h-3.9c0.1,1.3,0.8,2.1,1.9,2.1c0.6,0,1-0.2,1.5-0.5
		l0.3,0.6c-0.5,0.3-1.1,0.6-1.9,0.6c-1.6,0-2.8-1.1-2.8-3S793.1,575,794.5,575z M795.9,577.7c0-1.2-0.5-1.8-1.4-1.8
		c-0.8,0-1.6,0.7-1.7,1.8H795.9z"/>
	<path fill="#FFFFFF" d="M798.1,579.7c0.5,0.4,1,0.7,1.7,0.7c0.8,0,1.2-0.4,1.2-0.9c0-0.6-0.7-0.9-1.3-1.1c-0.8-0.3-1.7-0.7-1.7-1.7
		c0-0.9,0.7-1.7,2-1.7c0.7,0,1.4,0.3,1.8,0.7l-0.5,0.6c-0.4-0.3-0.8-0.5-1.3-0.5c-0.7,0-1.1,0.4-1.1,0.8c0,0.5,0.6,0.8,1.3,1
		c0.8,0.3,1.8,0.7,1.8,1.8c0,0.9-0.8,1.7-2.1,1.7c-0.8,0-1.6-0.3-2.2-0.8L798.1,579.7z"/>
	<path fill="#FFFFFF" d="M804,579.6c0.4,0,0.7,0.3,0.7,0.8c0,0.4-0.3,0.7-0.7,0.7c-0.4,0-0.7-0.3-0.7-0.7
		C803.3,579.9,803.6,579.6,804,579.6z M803.5,574.1l0-1.1h1l0,1.1l-0.1,4.5h-0.7L803.5,574.1z"/>
</g>
<g>
	<path fill="#FFFFFF" d="M391.4,248v63h-63v-63H391.4z M368.8,297.1h8.6l-12.4-14h12.4v-21h-35v35h7v-14h7L368.8,297.1z M370.4,269
		v7h-21v-7H370.4z"/>
	<path fill="#FFFFFF" d="M461.5,248v63h-63v-63H461.5z M412.5,297.1h35v-7h-28v-21h28v-7h-35V297.1z M423,283.1h24.5v-7H423V283.1z"
		/>
	<path fill="#FFFFFF" d="M531.5,248v63h-63v-63H531.5z M482.5,297.1h7v-14h28v-7h-28v-7h28v-7h-35V297.1z"/>
	<path fill="#FFFFFF" d="M601.5,248v63h-63v-63H601.5z M552.5,297.1h35v-7h-28v-28h-7V297.1z"/>
	<path fill="#FFFFFF" d="M671.5,248v63h-63v-63H671.5z M622.5,297.1h35v-7h-28v-21h28v-7h-35V297.1z M633,283.1h24.5v-7H633V283.1z"
		/>
	<path fill="#FFFFFF" d="M741.5,248v63h-63v-63H741.5z M692.5,297.1h8.8l8.8-11.7l8.8,11.7h8.8l-13.1-17.5l13.1-17.5h-8.8l-8.8,11.7
		l-8.8-11.7h-8.8l13.1,17.5L692.5,297.1z"/>
	<path fill="#FFFFFF" d="M811.5,248v63h-63v-63H811.5z M788.9,297.1h8.6l-12.4-14h12.4v-21h-35v35h7v-14h7L788.9,297.1z M790.5,269
		v7h-21v-7H790.5z"/>
	<path fill="#FFFFFF" d="M881.5,248v63h-63v-63H881.5z M832.5,262v35h35v-35h-7v28h-21v-28H832.5z"/>
	<path fill="#FFFFFF" d="M951.5,248v63h-63v-63H951.5z M909.5,297.1V273l21,24.1h7v-35h-7v24.8l-21-24.8h-7v35H909.5z"/>
</g>
<g>
	<g>
		<path fill="#FFFFFF" d="M383.2,468.2h-4v-1.4h9.6v1.4h-4V480h-1.7V468.2z"/>
		<path fill="#FFFFFF" d="M395,473.8c0-1.2-0.4-2.4-2-2.4c-1.1,0-2.1,0.5-2.9,1l-0.7-1.1c0.9-0.6,2.3-1.3,3.8-1.3
			c2.4,0,3.4,1.6,3.4,4v6h-1.4l-0.1-1.2h0c-0.9,0.8-2,1.4-3.2,1.4c-1.6,0-2.9-1-2.9-2.8C389,475.3,390.9,474.3,395,473.8z
			 M392.3,478.9c0.9,0,1.7-0.5,2.7-1.3v-2.7c-3.3,0.4-4.4,1.2-4.4,2.4C390.6,478.4,391.4,478.9,392.3,478.9z"/>
		<path fill="#FFFFFF" d="M399.7,465.7h1.6v9.6h0.1l4.1-5.1h1.8l-3.3,3.9l3.7,5.8H406l-2.8-4.7l-1.8,2.1v2.6h-1.6V465.7z"/>
		<path fill="#FFFFFF" d="M412.9,470c2.5,0,3.9,1.8,3.9,4.6c0,0.3,0,0.7-0.1,0.9h-6.6c0.1,2.1,1.4,3.4,3.2,3.4
			c0.9,0,1.7-0.3,2.4-0.8l0.6,1.1c-0.8,0.5-1.9,1-3.2,1c-2.6,0-4.7-1.9-4.7-5.1S410.7,470,412.9,470z M415.4,474.4
			c0-2-0.9-3.1-2.4-3.1c-1.4,0-2.6,1.1-2.8,3.1H415.4z"/>
		<path fill="#FFFFFF" d="M423.3,466.8h2l2.5,7l0.9,2.7h0.1l0.9-2.7l2.5-7h2V480h-1.6v-7.2c0-1.2,0.1-2.7,0.2-3.9h-0.1l-1,2.9
			l-2.5,6.9h-1l-2.5-6.9l-1-2.9h-0.1c0.1,1.2,0.2,2.7,0.2,3.9v7.2h-1.5V466.8z"/>
		<path fill="#FFFFFF" d="M441.3,470c2.5,0,3.9,1.8,3.9,4.6c0,0.3,0,0.7-0.1,0.9h-6.6c0.1,2.1,1.4,3.4,3.2,3.4
			c0.9,0,1.7-0.3,2.4-0.8l0.6,1.1c-0.8,0.5-1.9,1-3.2,1c-2.6,0-4.7-1.9-4.7-5.1S439.1,470,441.3,470z M443.8,474.4
			c0-2-0.9-3.1-2.4-3.1c-1.4,0-2.6,1.1-2.8,3.1H443.8z"/>
		<path fill="#FFFFFF" d="M448.1,479.6L448.1,479.6c-0.5-0.4-0.9-0.9-0.9-1.7c0-0.8,0.6-1.5,1.1-1.8v-0.1c-0.6-0.5-1.3-1.5-1.3-2.6
			c0-2.1,1.7-3.5,3.7-3.5c0.5,0,1,0.1,1.4,0.2h3.4v1.3h-2c0.5,0.4,0.8,1.2,0.8,2c0,2.1-1.6,3.4-3.6,3.4c-0.5,0-1-0.1-1.5-0.3
			c-0.3,0.3-0.6,0.6-0.6,1.2c0,0.6,0.4,1.1,1.7,1.1h1.9c2.3,0,3.4,0.7,3.4,2.3c0,1.8-1.9,3.4-4.9,3.4c-2.4,0-4-0.9-4-2.6
			C446.6,481,447.2,480.2,448.1,479.6z M450.9,483.3c1.9,0,3.1-1,3.1-2c0-0.9-0.7-1.2-2-1.2h-1.7c-0.4,0-0.8,0-1.3-0.2
			c-0.7,0.5-1,1.1-1,1.6C448.1,482.6,449.1,483.3,450.9,483.3z M452.7,473.5c0-1.4-0.9-2.3-2.1-2.3c-1.1,0-2.1,0.8-2.1,2.3
			c0,1.4,0.9,2.3,2.1,2.3S452.7,474.9,452.7,473.5z"/>
		<path fill="#FFFFFF" d="M462.7,473.8c0-1.2-0.4-2.4-2-2.4c-1.1,0-2.1,0.5-2.9,1l-0.7-1.1c0.9-0.6,2.3-1.3,3.8-1.3
			c2.4,0,3.4,1.6,3.4,4v6h-1.4l-0.1-1.2h0c-0.9,0.8-2,1.4-3.2,1.4c-1.6,0-2.9-1-2.9-2.8C456.7,475.3,458.5,474.3,462.7,473.8z
			 M460,478.9c0.9,0,1.7-0.5,2.7-1.3v-2.7c-3.3,0.4-4.4,1.2-4.4,2.4C458.3,478.4,459,478.9,460,478.9z"/>
		<path fill="#FFFFFF" d="M471.7,471.6h-1.4v-1.2l1.5-0.1l0.2-2.7h1.4v2.7h2.6v1.3h-2.6v5.4c0,1.2,0.4,1.9,1.5,1.9
			c0.3,0,0.8-0.1,1.1-0.3l0.3,1.2c-0.5,0.2-1.2,0.4-1.8,0.4c-2.1,0-2.8-1.3-2.8-3.2V471.6z"/>
		<path fill="#FFFFFF" d="M481.8,470c2.4,0,4.5,1.9,4.5,5.1c0,3.2-2.1,5.1-4.5,5.1c-2.4,0-4.5-1.9-4.5-5.1
			C477.3,471.9,479.4,470,481.8,470z M481.8,478.8c1.7,0,2.8-1.5,2.8-3.7c0-2.2-1.1-3.8-2.8-3.8c-1.7,0-2.8,1.5-2.8,3.8
			C479,477.3,480.1,478.8,481.8,478.8z"/>
		<path fill="#FFFFFF" d="M400.2,504l-3.2-5.5h-2.4v5.5H393v-13.1h4.1c2.7,0,4.6,1,4.6,3.7c0,2-1.2,3.3-2.9,3.7l3.3,5.7H400.2z
			 M394.6,497.1h2.2c2,0,3.2-0.8,3.2-2.5c0-1.7-1.1-2.3-3.2-2.3h-2.2V497.1z"/>
		<path fill="#FFFFFF" d="M407.8,494c2.5,0,3.9,1.8,3.9,4.6c0,0.3,0,0.7-0.1,0.9h-6.6c0.1,2.1,1.4,3.4,3.2,3.4
			c0.9,0,1.7-0.3,2.4-0.8l0.6,1.1c-0.8,0.5-1.9,1-3.2,1c-2.6,0-4.7-1.9-4.7-5.1S405.6,494,407.8,494z M410.3,498.4
			c0-2-0.9-3.1-2.4-3.1c-1.4,0-2.6,1.1-2.8,3.1H410.3z"/>
		<path fill="#FFFFFF" d="M419.3,497.8c0-1.2-0.4-2.4-2-2.4c-1.1,0-2.1,0.5-2.9,1l-0.7-1.1c0.9-0.6,2.3-1.3,3.8-1.3
			c2.4,0,3.4,1.6,3.4,4v6h-1.4l-0.1-1.2h0c-0.9,0.8-2,1.4-3.2,1.4c-1.6,0-2.9-1-2.9-2.8C413.3,499.3,415.2,498.3,419.3,497.8z
			 M416.7,502.9c0.9,0,1.7-0.5,2.7-1.3v-2.7c-3.3,0.4-4.4,1.2-4.4,2.4C415,502.4,415.7,502.9,416.7,502.9z"/>
		<path fill="#FFFFFF" d="M427.6,494c1.1,0,1.9,0.4,2.7,1.1l-0.1-1.7v-3.7h1.7V504h-1.4l-0.1-1.1h-0.1c-0.8,0.7-1.8,1.4-2.9,1.4
			c-2.4,0-4-1.8-4-5.1C423.4,496,425.4,494,427.6,494z M427.7,502.8c0.9,0,1.7-0.4,2.5-1.3v-5.1c-0.8-0.7-1.6-1-2.4-1
			c-1.6,0-2.8,1.5-2.8,3.7C425.1,501.4,426,502.8,427.7,502.8z"/>
		<path fill="#FFFFFF" d="M435.2,506.8c1.1,0,1.8-0.9,2.2-2.1l0.2-0.7l-3.9-9.7h1.7l2,5.4c0.3,0.8,0.6,1.8,0.9,2.7h0.1
			c0.3-0.9,0.6-1.9,0.8-2.7l1.7-5.4h1.6l-3.7,10.5c-0.7,1.9-1.7,3.4-3.6,3.4c-0.4,0-0.8-0.1-1.1-0.2l0.3-1.3
			C434.7,506.7,435,506.8,435.2,506.8z"/>
		<path fill="#FFFFFF" d="M448.4,494.2h1.7v5.9c0,1.8,0.5,2.6,1.8,2.6c1,0,1.7-0.5,2.6-1.6v-6.9h1.6v9.7h-1.4l-0.1-1.5h-0.1
			c-0.9,1.1-1.9,1.8-3.2,1.8c-2.1,0-3-1.3-3-3.8V494.2z"/>
		<path fill="#FFFFFF" d="M461.1,504.8v3.3h-1.6v-13.8h1.4l0.1,1.1h0.1c0.9-0.7,2-1.4,3.1-1.4c2.5,0,3.8,1.9,3.8,5
			c0,3.3-2,5.2-4.2,5.2c-0.9,0-1.8-0.4-2.7-1.1L461.1,504.8z M463.4,502.8c1.6,0,2.8-1.5,2.8-3.9c0-2.1-0.7-3.6-2.6-3.6
			c-0.8,0-1.6,0.5-2.6,1.3v5.1C461.9,502.5,462.8,502.8,463.4,502.8z"/>
		<path fill="#FFFFFF" d="M471.8,501.7c0.6,0,1.2,0.5,1.2,1.3c0,0.7-0.5,1.2-1.2,1.2c-0.7,0-1.2-0.5-1.2-1.2
			C470.6,502.2,471.1,501.7,471.8,501.7z M471,492.4l0-1.9h1.7l0,1.9l-0.2,7.6h-1.1L471,492.4z"/>
	</g>
	<g>
		<path fill="#1D71B8" d="M432.9,389.6c-15.8,0-28.5,12.8-28.5,28.5s12.8,28.5,28.5,28.5s28.5-12.8,28.5-28.5
			S448.7,389.6,432.9,389.6z M451.2,421.5c0,0.7-0.6,1.3-1.3,1.3h-12.2V435c0,0.7-0.6,1.3-1.3,1.3h-6.9c-0.7,0-1.3-0.6-1.3-1.3
			v-12.2H416c-0.7,0-1.3-0.6-1.3-1.3v-6.9c0-0.7,0.6-1.3,1.3-1.3h12.2v-12.2c0-0.7,0.6-1.3,1.3-1.3h6.9c0.7,0,1.3,0.6,1.3,1.3v12.2
			h12.2c0.7,0,1.3,0.6,1.3,1.3V421.5z"/>
	</g>
</g>
<g>
	<g>
		<path fill="#FFFFFF" d="M570.4,468.2h-4v-1.4h9.6v1.4h-4V480h-1.7V468.2z"/>
		<path fill="#FFFFFF" d="M582.2,473.8c0-1.2-0.4-2.4-2-2.4c-1.1,0-2.1,0.5-2.9,1l-0.7-1.1c0.9-0.6,2.3-1.3,3.8-1.3
			c2.4,0,3.4,1.6,3.4,4v6h-1.4l-0.1-1.2h0c-0.9,0.8-2,1.4-3.2,1.4c-1.6,0-2.9-1-2.9-2.8C576.2,475.3,578,474.3,582.2,473.8z
			 M579.5,478.9c0.9,0,1.7-0.5,2.7-1.3v-2.7c-3.3,0.4-4.4,1.2-4.4,2.4C577.8,478.4,578.6,478.9,579.5,478.9z"/>
		<path fill="#FFFFFF" d="M586.9,465.7h1.6v9.6h0.1l4.1-5.1h1.8l-3.3,3.9l3.7,5.8h-1.8l-2.8-4.7l-1.8,2.1v2.6h-1.6V465.7z"/>
		<path fill="#FFFFFF" d="M600.1,470c2.5,0,3.9,1.8,3.9,4.6c0,0.3,0,0.7-0.1,0.9h-6.6c0.1,2.1,1.4,3.4,3.2,3.4
			c0.9,0,1.7-0.3,2.4-0.8l0.6,1.1c-0.8,0.5-1.9,1-3.2,1c-2.6,0-4.7-1.9-4.7-5.1S597.9,470,600.1,470z M602.5,474.4
			c0-2-0.9-3.1-2.4-3.1c-1.4,0-2.6,1.1-2.8,3.1H602.5z"/>
		<path fill="#FFFFFF" d="M615.8,466.6c1.8,0,3,0.8,3.8,1.6l-1,1.1c-0.7-0.7-1.5-1.2-2.8-1.2c-2.7,0-4.4,2-4.4,5.3
			c0,3.3,1.6,5.4,4.4,5.4c0.9,0,1.9-0.3,2.4-0.8v-3.4h-2.8v-1.4h4.3v5.5c-0.9,0.8-2.3,1.5-4.1,1.5c-3.4,0-5.9-2.5-5.9-6.8
			C609.8,469.2,612.3,466.6,615.8,466.6z"/>
		<path fill="#FFFFFF" d="M622.7,470.2h1.4l0.1,1.8h0.1c0.7-1.2,1.7-2,2.8-2c0.4,0,0.7,0.1,1,0.2l-0.3,1.4c-0.3-0.1-0.5-0.2-0.9-0.2
			c-0.8,0-1.8,0.6-2.5,2.2v6.2h-1.6V470.2z"/>
		<path fill="#FFFFFF" d="M633,470c2.5,0,3.9,1.8,3.9,4.6c0,0.3,0,0.7-0.1,0.9h-6.6c0.1,2.1,1.4,3.4,3.2,3.4c0.9,0,1.7-0.3,2.4-0.8
			l0.6,1.1c-0.8,0.5-1.9,1-3.2,1c-2.6,0-4.7-1.9-4.7-5.1S630.8,470,633,470z M635.5,474.4c0-2-0.9-3.1-2.4-3.1
			c-1.4,0-2.6,1.1-2.8,3.1H635.5z"/>
		<path fill="#FFFFFF" d="M643,470c2.5,0,3.9,1.8,3.9,4.6c0,0.3,0,0.7-0.1,0.9h-6.6c0.1,2.1,1.4,3.4,3.2,3.4c0.9,0,1.7-0.3,2.4-0.8
			l0.6,1.1c-0.8,0.5-1.9,1-3.2,1c-2.6,0-4.7-1.9-4.7-5.1S640.7,470,643,470z M645.4,474.4c0-2-0.9-3.1-2.4-3.1
			c-1.4,0-2.6,1.1-2.8,3.1H645.4z"/>
		<path fill="#FFFFFF" d="M649.2,470.2h1.4l0.1,1.4h0.1c0.9-0.9,1.9-1.6,3.3-1.6c2,0,3,1.3,3,3.8v6.2h-1.6V474
			c0-1.8-0.6-2.6-1.8-2.6c-1,0-1.7,0.5-2.7,1.5v7h-1.6V470.2z"/>
		<path fill="#FFFFFF" d="M669.7,473.8c0-1.2-0.4-2.4-2-2.4c-1.1,0-2.1,0.5-2.9,1l-0.7-1.1c0.9-0.6,2.3-1.3,3.8-1.3
			c2.4,0,3.4,1.6,3.4,4v6H670l-0.1-1.2h0c-0.9,0.8-2,1.4-3.2,1.4c-1.6,0-2.9-1-2.9-2.8C663.7,475.3,665.6,474.3,669.7,473.8z
			 M667.1,478.9c0.9,0,1.7-0.5,2.7-1.3v-2.7c-3.3,0.4-4.4,1.2-4.4,2.4C665.4,478.4,666.1,478.9,667.1,478.9z"/>
		<path fill="#FFFFFF" d="M674.5,470.2h1.4l0.1,1.8h0.1c0.7-1.2,1.7-2,2.8-2c0.4,0,0.7,0.1,1,0.2l-0.3,1.4c-0.3-0.1-0.5-0.2-0.9-0.2
			c-0.8,0-1.8,0.6-2.5,2.2v6.2h-1.6V470.2z"/>
		<path fill="#FFFFFF" d="M681.4,470.2h1.4l0.1,1.4h0.1c0.8-0.9,1.9-1.6,3-1.6c1.5,0,2.3,0.7,2.7,1.9c1-1.1,2-1.9,3.2-1.9
			c2,0,3,1.3,3,3.8v6.2h-1.6V474c0-1.8-0.6-2.6-1.8-2.6c-0.8,0-1.5,0.5-2.4,1.5v7h-1.6V474c0-1.8-0.6-2.6-1.8-2.6
			c-0.7,0-1.5,0.5-2.4,1.5v7h-1.6V470.2z"/>
		<path fill="#FFFFFF" d="M701.8,470c2.4,0,4.5,1.9,4.5,5.1c0,3.2-2.1,5.1-4.5,5.1c-2.4,0-4.5-1.9-4.5-5.1
			C697.3,471.9,699.4,470,701.8,470z M701.8,478.8c1.7,0,2.8-1.5,2.8-3.7c0-2.2-1.1-3.8-2.8-3.8c-1.7,0-2.8,1.5-2.8,3.8
			C699,477.3,700.1,478.8,701.8,478.8z"/>
		<path fill="#FFFFFF" d="M708.8,470.2h1.4l0.1,1.8h0.1c0.7-1.2,1.7-2,2.8-2c0.4,0,0.7,0.1,1,0.2l-0.3,1.4c-0.3-0.1-0.5-0.2-0.9-0.2
			c-0.8,0-1.8,0.6-2.5,2.2v6.2h-1.6V470.2z"/>
		<path fill="#FFFFFF" d="M562,495.6h-1.4v-1.2l1.5-0.1l0.2-2.7h1.4v2.7h2.6v1.3h-2.6v5.4c0,1.2,0.4,1.9,1.5,1.9
			c0.3,0,0.8-0.1,1.1-0.3l0.3,1.2c-0.5,0.2-1.2,0.4-1.8,0.4c-2.1,0-2.8-1.3-2.8-3.2V495.6z"/>
		<path fill="#FFFFFF" d="M572.1,494c2.4,0,4.5,1.9,4.5,5.1c0,3.2-2.1,5.1-4.5,5.1c-2.4,0-4.5-1.9-4.5-5.1
			C567.6,495.9,569.7,494,572.1,494z M572.1,502.8c1.7,0,2.8-1.5,2.8-3.7c0-2.2-1.1-3.8-2.8-3.8c-1.7,0-2.8,1.5-2.8,3.8
			C569.3,501.3,570.4,502.8,572.1,502.8z"/>
		<path fill="#FFFFFF" d="M583.2,494.2h1.4l0.1,1.8h0.1c0.7-1.2,1.7-2,2.8-2c0.4,0,0.7,0.1,1,0.2l-0.3,1.4c-0.3-0.1-0.5-0.2-0.9-0.2
			c-0.8,0-1.8,0.6-2.5,2.2v6.2h-1.6V494.2z"/>
		<path fill="#FFFFFF" d="M593.6,494c2.5,0,3.9,1.8,3.9,4.6c0,0.3,0,0.7-0.1,0.9h-6.6c0.1,2.1,1.4,3.4,3.2,3.4
			c0.9,0,1.7-0.3,2.4-0.8l0.6,1.1c-0.8,0.5-1.9,1-3.2,1c-2.6,0-4.7-1.9-4.7-5.1S591.4,494,593.6,494z M596,498.4
			c0-2-0.9-3.1-2.4-3.1c-1.4,0-2.6,1.1-2.8,3.1H596z"/>
		<path fill="#FFFFFF" d="M599.6,501.8c0.8,0.7,1.7,1.2,2.9,1.2c1.3,0,1.9-0.7,1.9-1.5c0-1-1.2-1.4-2.2-1.8
			c-1.4-0.5-2.9-1.2-2.9-2.8c0-1.6,1.2-2.8,3.3-2.8c1.2,0,2.3,0.5,3,1.1l-0.8,1c-0.7-0.5-1.4-0.9-2.2-0.9c-1.2,0-1.8,0.7-1.8,1.4
			c0,0.9,1.1,1.3,2.2,1.7c1.4,0.5,3,1.1,3,2.9c0,1.6-1.3,2.9-3.6,2.9c-1.4,0-2.7-0.6-3.6-1.3L599.6,501.8z"/>
		<path fill="#FFFFFF" d="M611.9,494c2.5,0,3.9,1.8,3.9,4.6c0,0.3,0,0.7-0.1,0.9h-6.6c0.1,2.1,1.4,3.4,3.2,3.4
			c0.9,0,1.7-0.3,2.4-0.8l0.6,1.1c-0.8,0.5-1.9,1-3.2,1c-2.6,0-4.7-1.9-4.7-5.1S609.7,494,611.9,494z M614.3,498.4
			c0-2-0.9-3.1-2.4-3.1c-1.4,0-2.6,1.1-2.8,3.1H614.3z"/>
		<path fill="#FFFFFF" d="M618.2,495.6h-1.4v-1.2l1.5-0.1l0.2-2.7h1.4v2.7h2.6v1.3h-2.6v5.4c0,1.2,0.4,1.9,1.5,1.9
			c0.3,0,0.8-0.1,1.1-0.3l0.3,1.2c-0.5,0.2-1.2,0.4-1.8,0.4c-2.1,0-2.8-1.3-2.8-3.2V495.6z"/>
		<path fill="#FFFFFF" d="M628.8,506.8c1.1,0,1.8-0.9,2.2-2.1l0.2-0.7l-3.9-9.7h1.7l2,5.4c0.3,0.8,0.6,1.8,0.9,2.7h0.1
			c0.3-0.9,0.6-1.9,0.8-2.7l1.7-5.4h1.6l-3.7,10.5c-0.7,1.9-1.7,3.4-3.6,3.4c-0.4,0-0.8-0.1-1.1-0.2l0.3-1.3
			C628.2,506.7,628.5,506.8,628.8,506.8z"/>
		<path fill="#FFFFFF" d="M641.7,494c2.4,0,4.5,1.9,4.5,5.1c0,3.2-2.1,5.1-4.5,5.1c-2.4,0-4.5-1.9-4.5-5.1
			C637.2,495.9,639.3,494,641.7,494z M641.7,502.8c1.7,0,2.8-1.5,2.8-3.7c0-2.2-1.1-3.8-2.8-3.8c-1.7,0-2.8,1.5-2.8,3.8
			C638.9,501.3,640.1,502.8,641.7,502.8z"/>
		<path fill="#FFFFFF" d="M648.6,494.2h1.7v5.9c0,1.8,0.5,2.6,1.8,2.6c1,0,1.7-0.5,2.6-1.6v-6.9h1.6v9.7H655l-0.1-1.5h-0.1
			c-0.9,1.1-1.9,1.8-3.2,1.8c-2.1,0-3-1.3-3-3.8V494.2z"/>
		<path fill="#FFFFFF" d="M659.7,494.2h1.4l0.1,1.8h0.1c0.7-1.2,1.7-2,2.8-2c0.4,0,0.7,0.1,1,0.2l-0.3,1.4c-0.3-0.1-0.5-0.2-0.9-0.2
			c-0.8,0-1.8,0.6-2.5,2.2v6.2h-1.6V494.2z"/>
		<path fill="#FFFFFF" d="M670.9,495.6h-1.4v-1.2l1.5-0.1l0.2-2.7h1.4v2.7h2.6v1.3h-2.6v5.4c0,1.2,0.4,1.9,1.5,1.9
			c0.3,0,0.8-0.1,1.1-0.3l0.3,1.2c-0.5,0.2-1.2,0.4-1.8,0.4c-2.1,0-2.8-1.3-2.8-3.2V495.6z"/>
		<path fill="#FFFFFF" d="M677.1,491.2c0-0.6,0.5-1.1,1.1-1.1c0.6,0,1.1,0.4,1.1,1.1c0,0.6-0.5,1.1-1.1,1.1
			C677.6,492.2,677.1,491.8,677.1,491.2z M677.4,494.2h1.6v9.7h-1.6V494.2z"/>
		<path fill="#FFFFFF" d="M682.3,494.2h1.4l0.1,1.4h0.1c0.8-0.9,1.9-1.6,3-1.6c1.5,0,2.3,0.7,2.7,1.9c1-1.1,2-1.9,3.2-1.9
			c2,0,3,1.3,3,3.8v6.2h-1.6V498c0-1.8-0.6-2.6-1.8-2.6c-0.8,0-1.5,0.5-2.4,1.5v7h-1.6V498c0-1.8-0.6-2.6-1.8-2.6
			c-0.7,0-1.5,0.5-2.4,1.5v7h-1.6V494.2z"/>
		<path fill="#FFFFFF" d="M702.5,494c2.5,0,3.9,1.8,3.9,4.6c0,0.3,0,0.7-0.1,0.9h-6.6c0.1,2.1,1.4,3.4,3.2,3.4
			c0.9,0,1.7-0.3,2.4-0.8l0.6,1.1c-0.8,0.5-1.9,1-3.2,1c-2.6,0-4.7-1.9-4.7-5.1S700.3,494,702.5,494z M705,498.4
			c0-2-0.9-3.1-2.4-3.1c-1.4,0-2.6,1.1-2.8,3.1H705z"/>
		<path fill="#FFFFFF" d="M708.8,494.2h1.4l0.1,1.8h0.1c0.7-1.2,1.7-2,2.8-2c0.4,0,0.7,0.1,1,0.2l-0.3,1.4c-0.3-0.1-0.5-0.2-0.9-0.2
			c-0.8,0-1.8,0.6-2.5,2.2v6.2h-1.6V494.2z"/>
		<path fill="#FFFFFF" d="M717,501.7c0.6,0,1.2,0.5,1.2,1.3c0,0.7-0.5,1.2-1.2,1.2c-0.7,0-1.2-0.5-1.2-1.2
			C715.8,502.2,716.3,501.7,717,501.7z M716.2,492.4l0-1.9h1.7l0,1.9l-0.2,7.6h-1.1L716.2,492.4z"/>
	</g>
</g>
<g>
	<g>
		<path fill="#FFFFFF" d="M813.2,476.8c0.9,1,2.2,1.6,3.6,1.6c1.7,0,2.7-0.9,2.7-2.1c0-1.3-1-1.8-2.2-2.3l-1.9-0.8
			c-1.2-0.5-2.7-1.5-2.7-3.4c0-2,1.8-3.5,4.1-3.5c1.6,0,2.9,0.7,3.9,1.6l-0.9,1.1c-0.8-0.8-1.8-1.2-3-1.2c-1.5,0-2.5,0.7-2.5,1.9
			c0,1.3,1.2,1.7,2.2,2.2l1.9,0.8c1.5,0.7,2.7,1.6,2.7,3.5c0,2.1-1.7,3.7-4.5,3.7c-1.8,0-3.4-0.8-4.6-1.9L813.2,476.8z"/>
		<path fill="#FFFFFF" d="M823.9,471.3h-1.4V470l1.5-0.1l0.2-2.7h1.4v2.7h2.6v1.3h-2.6v5.4c0,1.2,0.4,1.9,1.5,1.9
			c0.3,0,0.8-0.1,1.1-0.3l0.3,1.2c-0.5,0.2-1.2,0.4-1.8,0.4c-2.1,0-2.8-1.3-2.8-3.2V471.3z"/>
		<path fill="#FFFFFF" d="M835.5,473.5c0-1.2-0.4-2.4-2-2.4c-1.1,0-2.1,0.5-2.9,1l-0.7-1.1c0.9-0.6,2.3-1.3,3.8-1.3
			c2.4,0,3.4,1.6,3.4,4v6h-1.4l-0.1-1.2h0c-0.9,0.8-2,1.4-3.2,1.4c-1.6,0-2.9-1-2.9-2.8C829.5,475,831.4,474,835.5,473.5z
			 M832.8,478.6c0.9,0,1.7-0.5,2.7-1.3v-2.7c-3.3,0.4-4.4,1.2-4.4,2.4C831.1,478.1,831.9,478.6,832.8,478.6z"/>
		<path fill="#FFFFFF" d="M840.2,469.9h1.4l0.1,1.8h0.1c0.7-1.2,1.7-2,2.8-2c0.4,0,0.7,0.1,1,0.2l-0.3,1.4c-0.3-0.1-0.5-0.2-0.9-0.2
			c-0.8,0-1.8,0.6-2.5,2.2v6.2h-1.6V469.9z"/>
		<path fill="#FFFFFF" d="M847.5,471.3H846V470l1.5-0.1l0.2-2.7h1.4v2.7h2.6v1.3h-2.6v5.4c0,1.2,0.4,1.9,1.5,1.9
			c0.3,0,0.8-0.1,1.1-0.3l0.3,1.2c-0.5,0.2-1.2,0.4-1.8,0.4c-2.1,0-2.8-1.3-2.8-3.2V471.3z"/>
		<path fill="#FFFFFF" d="M863.5,473.5c0-1.2-0.4-2.4-2-2.4c-1.1,0-2.1,0.5-2.9,1l-0.7-1.1c0.9-0.6,2.3-1.3,3.8-1.3
			c2.4,0,3.4,1.6,3.4,4v6h-1.4l-0.1-1.2h0c-0.9,0.8-2,1.4-3.2,1.4c-1.6,0-2.9-1-2.9-2.8C857.5,475,859.3,474,863.5,473.5z
			 M860.8,478.6c0.9,0,1.7-0.5,2.7-1.3v-2.7c-3.3,0.4-4.4,1.2-4.4,2.4C859.1,478.1,859.9,478.6,860.8,478.6z"/>
		<path fill="#FFFFFF" d="M868.2,469.9h1.4l0.1,1.4h0.1c0.9-0.9,1.9-1.6,3.3-1.6c2,0,3,1.3,3,3.8v6.2h-1.6v-5.9
			c0-1.8-0.6-2.6-1.8-2.6c-1,0-1.7,0.5-2.7,1.5v7h-1.6V469.9z"/>
		<path fill="#FFFFFF" d="M882.7,469.7c1.1,0,1.9,0.4,2.7,1.1l-0.1-1.7v-3.7h1.7v14.2h-1.4l-0.1-1.1h-0.1c-0.8,0.7-1.8,1.4-2.9,1.4
			c-2.4,0-4-1.8-4-5.1C878.5,471.7,880.5,469.7,882.7,469.7z M882.8,478.5c0.9,0,1.7-0.4,2.5-1.3v-5.1c-0.8-0.7-1.6-1-2.4-1
			c-1.6,0-2.8,1.5-2.8,3.7C880.2,477.1,881.1,478.5,882.8,478.5z"/>
		<path fill="#FFFFFF" d="M792.7,501.5c0.8,0.7,1.7,1.2,2.9,1.2c1.3,0,1.9-0.7,1.9-1.5c0-1-1.2-1.4-2.2-1.8
			c-1.4-0.5-2.9-1.2-2.9-2.8c0-1.6,1.2-2.8,3.3-2.8c1.2,0,2.3,0.5,3,1.1l-0.8,1c-0.7-0.5-1.4-0.9-2.2-0.9c-1.2,0-1.8,0.7-1.8,1.4
			c0,0.9,1.1,1.3,2.2,1.7c1.4,0.5,3,1.1,3,2.9c0,1.6-1.3,2.9-3.6,2.9c-1.4,0-2.7-0.6-3.6-1.3L792.7,501.5z"/>
		<path fill="#FFFFFF" d="M801.6,495.3h-1.4V494l1.5-0.1l0.2-2.7h1.4v2.7h2.6v1.3h-2.6v5.4c0,1.2,0.4,1.9,1.5,1.9
			c0.3,0,0.8-0.1,1.1-0.3l0.3,1.2c-0.5,0.2-1.2,0.4-1.8,0.4c-2.1,0-2.8-1.3-2.8-3.2V495.3z"/>
		<path fill="#FFFFFF" d="M811.7,493.7c2.4,0,4.5,1.9,4.5,5.1c0,3.2-2.1,5.1-4.5,5.1s-4.5-1.9-4.5-5.1
			C807.2,495.6,809.3,493.7,811.7,493.7z M811.7,502.5c1.7,0,2.8-1.5,2.8-3.7c0-2.2-1.1-3.8-2.8-3.8c-1.7,0-2.8,1.5-2.8,3.8
			C808.9,501,810,502.5,811.7,502.5z"/>
		<path fill="#FFFFFF" d="M820.4,504.5v3.3h-1.6v-13.8h1.4l0.1,1.1h0.1c0.9-0.7,2-1.4,3.1-1.4c2.5,0,3.8,1.9,3.8,5
			c0,3.3-2,5.2-4.2,5.2c-0.9,0-1.8-0.4-2.7-1.1L820.4,504.5z M822.7,502.5c1.6,0,2.8-1.5,2.8-3.9c0-2.1-0.7-3.6-2.6-3.6
			c-0.8,0-1.6,0.5-2.6,1.3v5.1C821.2,502.2,822.1,502.5,822.7,502.5z"/>
		<path fill="#FFFFFF" d="M833.9,506.5c1.1,0,1.8-0.9,2.2-2.1l0.2-0.7l-3.9-9.7h1.7l2,5.4c0.3,0.8,0.6,1.8,0.9,2.7h0.1
			c0.3-0.9,0.6-1.9,0.8-2.7l1.7-5.4h1.6l-3.7,10.5c-0.7,1.9-1.7,3.4-3.6,3.4c-0.4,0-0.8-0.1-1.1-0.2l0.3-1.3
			C833.4,506.4,833.7,506.5,833.9,506.5z"/>
		<path fill="#FFFFFF" d="M846.9,493.7c2.4,0,4.5,1.9,4.5,5.1c0,3.2-2.1,5.1-4.5,5.1s-4.5-1.9-4.5-5.1
			C842.4,495.6,844.5,493.7,846.9,493.7z M846.9,502.5c1.7,0,2.8-1.5,2.8-3.7c0-2.2-1.1-3.8-2.8-3.8c-1.7,0-2.8,1.5-2.8,3.8
			C844.1,501,845.2,502.5,846.9,502.5z"/>
		<path fill="#FFFFFF" d="M853.8,493.9h1.7v5.9c0,1.8,0.5,2.6,1.8,2.6c1,0,1.7-0.5,2.6-1.6v-6.9h1.6v9.7h-1.4l-0.1-1.5H860
			c-0.9,1.1-1.9,1.8-3.2,1.8c-2.1,0-3-1.3-3-3.8V493.9z"/>
		<path fill="#FFFFFF" d="M864.8,493.9h1.4l0.1,1.8h0.1c0.7-1.2,1.7-2,2.8-2c0.4,0,0.7,0.1,1,0.2l-0.3,1.4c-0.3-0.1-0.5-0.2-0.9-0.2
			c-0.8,0-1.8,0.6-2.5,2.2v6.2h-1.6V493.9z"/>
		<path fill="#FFFFFF" d="M875.8,493.9h1.4l0.1,1.8h0.1c0.7-1.2,1.7-2,2.8-2c0.4,0,0.7,0.1,1,0.2l-0.3,1.4c-0.3-0.1-0.5-0.2-0.9-0.2
			c-0.8,0-1.8,0.6-2.5,2.2v6.2h-1.6V493.9z"/>
		<path fill="#FFFFFF" d="M882.6,493.9h1.7v5.9c0,1.8,0.5,2.6,1.8,2.6c1,0,1.7-0.5,2.6-1.6v-6.9h1.6v9.7H889l-0.1-1.5h-0.1
			c-0.9,1.1-1.9,1.8-3.2,1.8c-2.1,0-3-1.3-3-3.8V493.9z"/>
		<path fill="#FFFFFF" d="M893.6,493.9h1.4l0.1,1.4h0.1c0.9-0.9,1.9-1.6,3.3-1.6c2,0,3,1.3,3,3.8v6.2h-1.6v-5.9
			c0-1.8-0.6-2.6-1.8-2.6c-1,0-1.7,0.5-2.7,1.5v7h-1.6V493.9z"/>
		<path fill="#FFFFFF" d="M905.8,501.4c0.6,0,1.2,0.5,1.2,1.3c0,0.7-0.5,1.2-1.2,1.2c-0.7,0-1.2-0.5-1.2-1.2
			C904.6,501.9,905.2,501.4,905.8,501.4z M905,492.1l0-1.9h1.7l0,1.9l-0.2,7.6h-1.1L905,492.1z"/>
	</g>
	<g>
		<path fill="#009640" d="M850,388.6c-15.8,0-28.5,12.8-28.5,28.5s12.8,28.5,28.5,28.5c15.8,0,28.5-12.8,28.5-28.5
			S865.8,388.6,850,388.6z M868.2,420.6c0,0.7-0.6,1.3-1.3,1.3h-12.2V434c0,0.7-0.6,1.3-1.3,1.3h-6.9c-0.7,0-1.3-0.6-1.3-1.3v-12.2
			h-12.2c-0.7,0-1.3-0.6-1.3-1.3v-6.9c0-0.7,0.6-1.3,1.3-1.3h12.2v-12.2c0-0.7,0.6-1.3,1.3-1.3h6.9c0.7,0,1.3,0.6,1.3,1.3v12.2h12.2
			c0.7,0,1.3,0.6,1.3,1.3V420.6z"/>
	</g>
</g>
<g>
	<path fill="#009640" d="M637.9,388.7l-23.7,7.2v17.9c0,11.6,9.6,24.3,23.7,31.8c14.1-7.5,23.7-20.1,23.7-31.8v-17.9L637.9,388.7z
		 M637.9,441.4c-12.1-7-20.1-17.9-20.1-27.7v-15.2l20.1-6.1V441.4z"/>
</g>
</svg>
