<?xml version="1.0" encoding="utf-8"?>
<!-- Generator: Adobe Illustrator 18.1.1, SVG Export Plug-In . SVG Version: 6.00 Build 0)  -->
<svg version="1.1" id="Capa_1" xmlns="http://www.w3.org/2000/svg" xmlns:xlink="http://www.w3.org/1999/xlink" x="0px" y="0px"
	 viewBox="235 -235.6 970.6 970.6" enable-background="new 235 -235.6 970.6 970.6" xml:space="preserve">
<g>
	<g>
		<path fill="#FFFFFF" d="M1039.6,50.2l25.4-33.4c13.4-17.6,10-42.7-7.6-56.1L992-89.1c-17.6-13.4-42.7-10-56.1,7.6l-25.4,33.3
			c41.6,20.6,79.3,47.7,112.4,80.8C1028.8,38.4,1034.3,44.2,1039.6,50.2z"/>
		<path fill="#FFFFFF" d="M720.3-92.8c17.7,0,35.2,1.1,52.5,3.2v-46h31.6c22.1,0,40-17.9,40-40v-20c0-22.1-17.9-40-40-40H636.2
			c-22.1,0-40,17.9-40,40v20c0,22.1,17.9,40,40,40h31.6v46C685.1-91.7,702.6-92.8,720.3-92.8z"/>
		<path fill="#FFFFFF" d="M720.3,735c220.7,0,399.6-178.9,399.6-399.6c0-100.3-36.9-191.9-97.9-262c-35.6-41-79.5-74.6-129-98.4
			c-37.2-17.9-77.7-30.1-120.2-35.7c-17.2-2.3-34.7-3.4-52.5-3.4c-17.8,0-35.3,1.2-52.5,3.4C471.9-35,320.7,132.6,320.7,335.4
			C320.7,556.1,499.6,735,720.3,735z M830.4,57.2c51.6,20.4,96.1,54.7,129,98.4c29.4,39,49.5,85.5,56.9,136.1
			c2.1,14.3,3.2,29,3.2,43.9H822.3h-102h-1.9v-1.5v-130V36.2c0.6,0,1.3,0,1.9,0c14.3,0,28.4,1,42.1,3
			C786.1,42.5,808.8,48.6,830.4,57.2z"/>
	</g>
</g>
</svg>
