<?xml version="1.0" encoding="utf-8"?>
<!-- Generator: Adobe Illustrator 18.1.1, SVG Export Plug-In . SVG Version: 6.00 Build 0)  -->
<svg version="1.1" id="Capa_1" xmlns="http://www.w3.org/2000/svg" xmlns:xlink="http://www.w3.org/1999/xlink" x="0px" y="0px"
	 viewBox="0 0 500 500" enable-background="new 0 0 500 500" xml:space="preserve">
<g>
	<path fill="#FFFFFF" d="M412.5,145.6C368.8,108.1,312.1,85.3,250,85.3c-138,0-250,111.9-250,250c0,3.7,0.4,38.3,0.5,42v37.4H499
		V380l0.5-2.7c0.2-3.7,0.5-38.3,0.5-42C500,212.8,412.5,145.6,412.5,145.6z M60.8,377.3c-0.2-2.3,0.1-35.5-0.1-37.8H112V323H64.3
		c0-0.2-3.6,0-3.6,0c2-42.9,18.4-85.8,49.2-119.5l1.3-1.4l2.3,2l34.1,34.1l10.7-10.7l-36.2-36.2c32.8-30,74.4-47.2,118.9-49.2l2.6,0
		c0,0,1.1,0,1,0.6v50.6h13.7v-51.2c6.7,0.3,13.5,1.1,20.1,2.1c38.1,5,73.6,21.5,102.3,47.7l-36.2,36.2l10.1,10.1l34.7-34.8l1.9-1.5
		l1.6,2.2c30,32.8,47.2,74.4,49.2,118.9h-51.2v16.6l51.5-0.1c0,0,0,35.6-0.1,37.7L60.8,377.3z M317.3,257.8c0,0-81.3,24.9-96.9,40.5
		c-15.6,15.6-15.6,40.8,0,56.5c15.5,15.6,40.8,15.6,56.4,0C292.4,339.1,317.3,257.8,317.3,257.8z"/>
</g>
</svg>
