<?xml version="1.0" encoding="utf-8"?>
<!-- Generator: Adobe Illustrator 18.1.1, SVG Export Plug-In . SVG Version: 6.00 Build 0)  -->
<svg version="1.1" id="Capa_1" xmlns="http://www.w3.org/2000/svg" xmlns:xlink="http://www.w3.org/1999/xlink" x="0px" y="0px"
	 viewBox="-94 -180 561 561" enable-background="new -94 -180 561 561" xml:space="preserve">
<g>
	<g id="visibility">
		<path fill="#FFFFFF" d="M186.5-90.8C59-90.8-50.7-11.7-94,100.5c43.3,112.2,153,191.3,280.5,191.3s237.2-79,280.5-191.3
			C423.7-11.7,314-90.8,186.5-90.8z M186.5,228C115.1,228,59,171.9,59,100.5S115.1-27,186.5-27S314,29.1,314,100.5
			S257.9,228,186.5,228z M186.5,24c-43.4,0-76.5,33.1-76.5,76.5s33.1,76.5,76.5,76.5s76.5-33.1,76.5-76.5S229.9,24,186.5,24z"/>
	</g>
</g>
</svg>
